<?xml version="1.0" encoding="UTF-8"?>
<svg xmlns="http://www.w3.org/2000/svg" xmlns:xlink="http://www.w3.org/1999/xlink" width="48pt" height="48pt" viewBox="0 0 48 48" version="1.1">
<g id="surface1">
<path style=" stroke:none;fill-rule:nonzero;fill:#ffffff;fill-opacity:1;" d="M 18 4 L 14 8 L 8 8 C 5.796875 8 4 9.796875 4 12 L 4 36 C 4 38.203125 5.796875 40 8 40 L 40 40 C 42.203125 40 44 38.203125 44 36 L 44 12 C 44 9.796875 42.203125 8 40 8 L 34 8 L 30 4 Z M 24 14 C 29.601563 14 34 18.398438 34 24 C 34 29.601563 29.601563 34 24 34 C 18.398438 34 14 29.601563 14 24 C 14 18.398438 18.398438 14 24 14 Z M 24 17 C 20.132813 17 17 20.132813 17 24 C 17 27.867188 20.132813 31 24 31 C 27.867188 31 31 27.867188 31 24 C 31 20.132813 27.867188 17 24 17 Z "/>
</g>
</svg>
