<?xml version="1.0" encoding="UTF-8"?>
<svg xmlns="http://www.w3.org/2000/svg" xmlns:xlink="http://www.w3.org/1999/xlink" width="96pt" height="96pt" viewBox="0 0 96 96" version="1.1">
<g id="surface1">
<path style=" stroke:none;fill-rule:nonzero;fill:#000000;fill-opacity:1;" d="M 18 12 C 14.730469 12 12 14.730469 12 18 L 12 54 C 12 57.269531 14.730469 60 18 60 L 78 60 C 81.269531 60 84 57.269531 84 54 L 84 18 C 84 14.730469 81.269531 12 78 12 Z M 20 20 L 76 20 L 76 52 L 60 52 L 60 44 L 68 40 L 48 32 L 28 40 L 36 44 L 36 52 L 20 52 Z M 24 68 C 19.582031 68 16 71.582031 16 76 C 16 80.417969 19.582031 84 24 84 C 28.417969 84 32 80.417969 32 76 C 32 71.582031 28.417969 68 24 68 Z M 48 68 C 43.582031 68 40 71.582031 40 76 C 40 80.417969 43.582031 84 48 84 C 52.417969 84 56 80.417969 56 76 C 56 71.582031 52.417969 68 48 68 Z M 72 68 C 67.582031 68 64 71.582031 64 76 C 64 80.417969 67.582031 84 72 84 C 76.417969 84 80 80.417969 80 76 C 80 71.582031 76.417969 68 72 68 Z "/>
</g>
</svg>
