<?xml version="1.0" encoding="UTF-8"?>
<svg xmlns="http://www.w3.org/2000/svg" xmlns:xlink="http://www.w3.org/1999/xlink" width="48pt" height="48pt" viewBox="0 0 48 48" version="1.1">
<g id="surface1">
<path style=" stroke:none;fill-rule:nonzero;fill:#d83131;fill-opacity:1;" d="M 38 6 L 10 6 C 7.789063 6 6 7.789063 6 10 L 6 38 C 6 40.210938 7.789063 42 10 42 L 38 42 C 40.210938 42 42 40.210938 42 38 L 42 10 C 42 7.789063 40.210938 6 38 6 Z M 34 31.179688 L 31.179688 34 L 24 26.820313 L 16.820313 34 L 14 31.179688 L 21.179688 24 L 14 16.820313 L 16.820313 14 L 24 21.179688 L 31.179688 14 L 34 16.820313 L 26.820313 24 Z "/>
</g>
</svg>
