<?xml version="1.0" encoding="UTF-8"?>
<svg xmlns="http://www.w3.org/2000/svg" xmlns:xlink="http://www.w3.org/1999/xlink" width="480pt" height="480pt" viewBox="0 0 480 480" version="1.1">
<g id="surface1">
<path style=" stroke:none;fill-rule:nonzero;fill:#000000;fill-opacity:1;" d="M 254.28125 40.5 C 132.578125 32.058594 32.058594 132.558594 40.5 254.261719 C 47.839844 360.039063 140.121094 440 246.140625 440 L 260 440 C 282.101563 440 300 422.101563 300 400 L 300 340 C 300 317.898438 317.898438 300 340 300 L 400 300 C 422.101563 300 440 282.101563 440 260 L 440 246.140625 C 440 140.121094 360.039063 47.839844 254.28125 40.5 Z M 210 80 C 226.558594 80 240 93.441406 240 110 C 240 126.558594 226.558594 140 210 140 C 193.441406 140 180 126.558594 180 110 C 180 93.441406 193.441406 80 210 80 Z M 110 300 C 93.441406 300 80 286.558594 80 270 C 80 253.441406 93.441406 240 110 240 C 126.558594 240 140 253.441406 140 270 C 140 286.558594 126.558594 300 110 300 Z M 130 200 C 113.441406 200 100 186.558594 100 170 C 100 153.441406 113.441406 140 130 140 C 146.558594 140 160 153.441406 160 170 C 160 186.558594 146.558594 200 130 200 Z M 220 400 C 197.898438 400 180 382.101563 180 360 C 180 337.898438 197.898438 320 220 320 C 242.101563 320 260 337.898438 260 360 C 260 382.101563 242.101563 400 220 400 Z M 310 160 C 293.441406 160 280 146.558594 280 130 C 280 113.441406 293.441406 100 310 100 C 326.558594 100 340 113.441406 340 130 C 340 146.558594 326.558594 160 310 160 Z M 370 260 C 353.441406 260 340 246.558594 340 230 C 340 213.441406 353.441406 200 370 200 C 386.558594 200 400 213.441406 400 230 C 400 246.558594 386.558594 260 370 260 Z "/>
</g>
</svg>
