<?xml version="1.0" encoding="UTF-8"?>
<svg xmlns="http://www.w3.org/2000/svg" xmlns:xlink="http://www.w3.org/1999/xlink" width="96pt" height="96pt" viewBox="0 0 96 96" version="1.1">
<g id="surface1">
<path style=" stroke:none;fill-rule:nonzero;fill:#000000;fill-opacity:1;" d="M 16 20 C 13.679688 20 11.609375 21.101563 10.125 22.515625 C 8.640625 23.929688 7.566406 25.675781 6.6875 27.648438 C 4.933594 31.597656 4 36.550781 4 42 C 4 47.449219 4.933594 52.402344 6.6875 56.351563 C 7.566406 58.324219 8.640625 60.070313 10.125 61.484375 C 11.609375 62.898438 13.679688 64 16 64 L 44 64 L 44 92 L 52 92 L 52 69.65625 L 65.171875 82.828125 L 70.828125 77.171875 L 57.65625 64 L 80 64 C 82.320313 64 84.390625 62.898438 85.875 61.484375 C 87.359375 60.070313 88.433594 58.324219 89.3125 56.351563 C 91.066406 52.402344 92 47.449219 92 42 C 92 36.550781 91.066406 31.597656 89.3125 27.648438 C 88.433594 25.675781 87.359375 23.929688 85.875 22.515625 C 84.390625 21.101563 82.320313 20 80 20 Z M 16 28 L 38.554688 28 C 36.894531 31.890625 36 36.703125 36 42 C 36 47.296875 36.894531 52.109375 38.554688 56 L 16 56 C 16.109375 56 16.070313 56.097656 15.640625 55.6875 C 15.210938 55.277344 14.570313 54.386719 14 53.101563 C 12.859375 50.535156 12 46.488281 12 42 C 12 37.511719 12.859375 33.464844 14 30.898438 C 14.570313 29.613281 15.210938 28.722656 15.640625 28.3125 C 16.070313 27.902344 16.109375 28 16 28 Z M 48 28 L 70.554688 28 C 68.894531 31.890625 68 36.703125 68 42 C 68 47.296875 68.894531 52.109375 70.554688 56 L 48 56 C 48.109375 56 48.070313 56.097656 47.640625 55.6875 C 47.210938 55.277344 46.570313 54.386719 46 53.101563 C 44.859375 50.535156 44 46.488281 44 42 C 44 37.511719 44.859375 33.464844 46 30.898438 C 46.570313 29.613281 47.210938 28.722656 47.640625 28.3125 C 48.070313 27.902344 48.109375 28 48 28 Z M 80 28 C 79.886719 28 79.929688 27.902344 80.359375 28.3125 C 80.789063 28.722656 81.429688 29.613281 82 30.898438 C 83.140625 33.464844 84 37.511719 84 42 C 84 46.488281 83.140625 50.535156 82 53.101563 C 81.429688 54.386719 80.789063 55.277344 80.359375 55.6875 C 79.929688 56.097656 79.886719 56 80 56 C 80.113281 56 80.070313 56.097656 79.640625 55.6875 C 79.210938 55.277344 78.570313 54.386719 78 53.101563 C 76.859375 50.535156 76 46.488281 76 42 C 76 37.511719 76.859375 33.464844 78 30.898438 C 78.570313 29.613281 79.210938 28.722656 79.640625 28.3125 C 80.070313 27.902344 80.113281 28 80 28 Z "/>
</g>
</svg>
