<?xml version="1.0" encoding="UTF-8"?>
<svg xmlns="http://www.w3.org/2000/svg" xmlns:xlink="http://www.w3.org/1999/xlink" width="480pt" height="480pt" viewBox="0 0 480 480" version="1.1">
<g id="surface1">
<path style=" stroke:none;fill-rule:nonzero;fill:#db2323;fill-opacity:1;" d="M 444.78125 369.019531 L 268.839844 76.320313 C 262.699219 66.101563 251.921875 60 240 60 C 228.078125 60 217.300781 66.101563 211.179688 76.300781 L 35.21875 369.019531 C 28.980469 379.398438 28.820313 392.378906 34.78125 402.921875 C 40.71875 413.460938 51.941406 420 64.058594 420 L 415.960938 420 C 428.058594 420 439.300781 413.460938 445.238281 402.921875 C 451.199219 392.378906 451.019531 379.398438 444.78125 369.019531 Z M 260 360 L 220 360 L 220 320 L 260 320 Z M 260 280 L 220 280 L 220 180 L 260 180 Z "/>
</g>
</svg>
