<?xml version="1.0" encoding="UTF-8"?>
<svg xmlns="http://www.w3.org/2000/svg" xmlns:xlink="http://www.w3.org/1999/xlink" width="480pt" height="480pt" viewBox="0 0 480 480" version="1.1">
<g id="surface1">
<path style=" stroke:none;fill-rule:nonzero;fill:#000000;fill-opacity:1;" d="M 180 60 C 180 60 155.824219 59.722656 131.054688 72.109375 C 106.285156 84.496094 80 113.332031 80 160 L 120 160 C 120 126.667969 133.714844 115.503906 148.945313 107.890625 C 164.175781 100.277344 180 100 180 100 L 232.773438 100 L 195.273438 220 L 140 220 L 140 260 L 182.773438 260 L 158.4375 337.890625 C 150.582031 363.023438 127.507813 380 101.171875 380 L 80 380 L 80 420 L 101.171875 420 C 144.835938 420 183.617188 391.507813 196.640625 349.84375 L 224.726563 260 L 280 260 L 280 220 L 237.226563 220 L 274.726563 100 L 400 100 L 400 60 Z "/>
</g>
</svg>
