<?xml version="1.0" encoding="UTF-8"?>
<svg xmlns="http://www.w3.org/2000/svg" xmlns:xlink="http://www.w3.org/1999/xlink" width="96pt" height="96pt" viewBox="0 0 96 96" version="1.1">
<g id="surface1">
<path style=" stroke:none;fill-rule:nonzero;fill:#000000;fill-opacity:1;" d="M 44 12 C 39.589844 12 36 15.589844 36 20 L 36 32.09375 C 40.832031 35.742188 44 41.480469 44 48 L 44 20 L 84 20 L 84 76 L 52 76 L 52 84 L 92 84 L 92 20 C 92 15.589844 88.410156 12 84 12 Z M 52 28 L 52 36 L 60 36 L 60 28 Z M 68 28 L 68 36 L 76 36 L 76 28 Z M 24 36 C 17.273438 36 12 41.269531 12 48 C 12 54.730469 17.273438 60 24 60 C 30.726563 60 36 54.730469 36 48 C 36 41.269531 30.726563 36 24 36 Z M 24 44 C 26.320313 44 28 45.683594 28 48 C 28 50.316406 26.320313 52 24 52 C 21.679688 52 20 50.316406 20 48 C 20 45.683594 21.679688 44 24 44 Z M 52 44 L 52 52 L 60 52 L 60 44 Z M 68 44 L 68 52 L 76 52 L 76 44 Z M 52 60 L 52 68 L 60 68 L 60 60 Z M 68 60 L 68 68 L 76 68 L 76 60 Z M 24 64 C 12.597656 64 4 69.824219 4 77.539063 L 4 84 L 44 84 L 44 77.539063 C 44 69.824219 35.402344 64 24 64 Z M 24 72 C 29.875 72 33.957031 74.015625 35.414063 76 L 12.585938 76 C 14.042969 74.015625 18.125 72 24 72 Z "/>
</g>
</svg>
