<?xml version="1.0" encoding="UTF-8"?>
<svg xmlns="http://www.w3.org/2000/svg" xmlns:xlink="http://www.w3.org/1999/xlink" width="480pt" height="480pt" viewBox="0 0 480 480" version="1.1">
<g id="surface1">
<path style=" stroke:none;fill-rule:nonzero;fill:#000000;fill-opacity:1;" d="M 120 60 C 87.101563 60 60 87.101563 60 120 C 60 145.863281 76.851563 167.902344 100 176.25 L 100 260 L 140 260 L 140 176.25 C 163.148438 167.902344 180 145.863281 180 120 C 180 87.101563 152.898438 60 120 60 Z M 360 60 C 334.605469 60.035156 311.980469 76.054688 303.515625 100 L 220 100 L 220 140 L 303.476563 140 C 311.945313 163.957031 334.589844 179.980469 360 180 C 393.136719 180 420 153.136719 420 120 C 420 86.863281 393.136719 60 360 60 Z M 120 100 C 131.28125 100 140 108.71875 140 120 C 140 131.28125 131.28125 140 120 140 C 108.71875 140 100 131.28125 100 120 C 100 108.71875 108.71875 100 120 100 Z M 340 220 L 340 300 L 294.140625 345.859375 C 286.339844 353.660156 286.339844 366.339844 294.140625 374.140625 L 345.859375 425.859375 C 353.660156 433.679688 366.320313 433.679688 374.140625 425.859375 L 425.859375 374.140625 C 433.679688 366.339844 433.679688 353.679688 425.859375 345.859375 L 380 300 L 380 220 Z M 80 300 C 68.960938 300 60 308.960938 60 320 L 60 400 C 60 411.039063 68.960938 420 80 420 L 160 420 C 171.039063 420 180 411.039063 180 400 L 180 320 C 180 308.960938 171.039063 300 160 300 Z "/>
</g>
</svg>
