<?xml version="1.0" encoding="UTF-8"?>
<svg xmlns="http://www.w3.org/2000/svg" xmlns:xlink="http://www.w3.org/1999/xlink" width="48pt" height="48pt" viewBox="0 0 48 48" version="1.1">
<g id="surface1">
<path style=" stroke:none;fill-rule:nonzero;fill:#f0dc30;fill-opacity:1;" d="M 12 4 C 9.800781 4 8 5.800781 8 8 L 8 40 C 8 42.199219 9.800781 44 12 44 L 28.34375 44 L 26.585938 42.242188 C 26.210938 41.867188 26 41.359375 26 40.828125 L 26 38 C 26 36.894531 26.894531 36 28 36 L 32 36 L 32 30 C 32 28.894531 32.894531 28 34 28 L 40 28 L 40 16 L 28 4 Z M 26 7 L 37 18 L 26 18 Z M 21.664063 20 C 22.765625 20 23.429688 20.746094 23.75 21.882813 C 24.070313 23.179688 23.75 25.285156 22.949219 27.71875 C 23.429688 28.691406 24.070313 29.664063 24.710938 30.636719 C 26.636719 30.476563 28.238281 30.476563 29.203125 31.125 C 30.003906 31.613281 30.167969 32.421875 29.847656 33.394531 C 29.367188 34.53125 28.402344 35.019531 27.28125 34.695313 C 26.320313 34.371094 25.191406 33.558594 24.070313 32.261719 C 22.949219 32.421875 21.824219 32.746094 20.703125 33.070313 C 19.417969 35.339844 18.140625 37.289063 16.855469 37.773438 C 16.535156 37.933594 16.210938 38 15.890625 38 C 15.25 38 14.765625 37.773438 14.445313 37.289063 C 14.125 36.804688 13.484375 35.828125 14.765625 34.371094 C 15.566406 33.398438 17.492188 32.425781 19.578125 31.777344 C 20.21875 30.480469 20.703125 29.183594 21.183594 27.722656 C 20.0625 25.613281 19.417969 23.34375 19.578125 22.046875 C 19.738281 20.746094 20.5625 20 21.664063 20 Z M 36 32 L 36 40 L 30 40 L 38 48 L 46 40 L 40 40 L 40 32 Z "/>
</g>
</svg>
