<?xml version="1.0" encoding="UTF-8"?>
<svg xmlns="http://www.w3.org/2000/svg" xmlns:xlink="http://www.w3.org/1999/xlink" width="480pt" height="480pt" viewBox="0 0 480 480" version="1.1">
<g id="surface1">
<path style=" stroke:none;fill-rule:nonzero;fill:#000000;fill-opacity:1;" d="M 360 40 L 120 40 C 98 40 80 58 80 80 L 80 400 C 80 422 98 440 120 440 L 360 440 C 382 440 400 422 400 400 L 400 80 C 400 57.898438 382.101563 40 360 40 Z M 190 100 C 206.558594 100 220 113.441406 220 130 C 220 146.558594 206.558594 160 190 160 C 173.441406 160 160 146.558594 160 130 C 160 113.441406 173.441406 100 190 100 Z M 140 205 C 140 188.378906 173.320313 180 190 180 C 206.679688 180 240 188.378906 240 205 L 240 220 L 140 220 Z M 340 380 L 140 380 L 140 340 L 340 340 Z M 340 300 L 140 300 L 140 260 L 340 260 Z M 340 140 L 280 140 L 280 100 L 340 100 Z M 340 220 L 280 220 L 280 180 L 340 180 Z "/>
</g>
</svg>
