<?xml version="1.0" encoding="UTF-8"?>
<svg xmlns="http://www.w3.org/2000/svg" xmlns:xlink="http://www.w3.org/1999/xlink" width="96pt" height="96pt" viewBox="0 0 96 96" version="1.1">
<g id="surface1">
<path style=" stroke:none;fill-rule:nonzero;fill:#000000;fill-opacity:1;" d="M 47.9375 8 C 31.457031 8 17.902344 20.457031 16.148438 36.46875 L 8.578125 48.351563 C 7.359375 50.257813 8.148438 52.804688 10.234375 53.679688 L 15.9375 56.085938 L 15.9375 68 C 15.9375 72.421875 19.515625 76 23.9375 76 L 31.9375 76 L 31.9375 88 L 67.9375 88 L 67.9375 76.960938 C 67.9375 64.441406 73.015625 61.015625 76.5625 54.65625 C 73.863281 55.523438 70.988281 56 68 56 C 67.394531 56 66.800781 55.945313 66.203125 55.90625 C 63.183594 60.390625 59.9375 66.21875 59.9375 76.960938 L 59.9375 80 L 39.9375 80 L 39.9375 68 L 23.9375 68 L 23.9375 50.773438 L 19.046875 48.710938 L 18.085938 48.304688 L 22.890625 40.773438 L 23.890625 39.203125 L 24.09375 37.351563 C 25.222656 27.085938 32.71875 19.023438 42.382813 16.726563 C 43.828125 13.449219 45.875 10.5 48.398438 8.023438 C 48.242188 8.019531 48.089844 8 47.9375 8 Z M 64.1875 8 C 63.671875 8 63.238281 8.386719 63.179688 8.898438 L 62.710938 12.945313 C 60.773438 13.617188 59.027344 14.636719 57.507813 15.953125 L 53.757813 14.328125 C 53.285156 14.125 52.734375 14.308594 52.476563 14.757813 L 48.734375 21.242188 C 48.476563 21.691406 48.597656 22.257813 49.007813 22.5625 L 52.234375 24.953125 C 52.046875 25.9375 51.921875 26.953125 51.921875 27.992188 C 51.921875 29.03125 52.042969 30.050781 52.234375 31.039063 L 49.007813 33.429688 C 48.597656 33.738281 48.472656 34.304688 48.734375 34.75 L 52.476563 41.234375 C 52.734375 41.683594 53.285156 41.859375 53.757813 41.65625 L 57.507813 40.039063 C 59.023438 41.351563 60.773438 42.375 62.710938 43.046875 L 63.179688 47.09375 C 63.238281 47.613281 63.675781 48 64.1875 48 L 71.671875 48 C 72.1875 48 72.621094 47.613281 72.679688 47.101563 L 73.148438 43.054688 C 75.085938 42.382813 76.832031 41.363281 78.351563 40.046875 L 82.09375 41.671875 C 82.566406 41.875 83.117188 41.6875 83.375 41.242188 L 87.117188 34.757813 C 87.375 34.308594 87.261719 33.742188 86.851563 33.4375 L 83.625 31.039063 C 83.8125 30.050781 83.929688 29.039063 83.929688 28 C 83.929688 26.960938 83.808594 25.949219 83.617188 24.960938 L 86.84375 22.5625 C 87.253906 22.253906 87.378906 21.6875 87.117188 21.242188 L 83.375 14.757813 C 83.117188 14.308594 82.566406 14.132813 82.09375 14.335938 L 78.351563 15.953125 C 76.835938 14.640625 75.078125 13.617188 73.140625 12.945313 L 72.679688 8.898438 C 72.621094 8.386719 72.1875 8 71.671875 8 Z M 67.929688 21 C 71.792969 21 74.929688 24.132813 74.929688 28 C 74.929688 31.863281 71.796875 35 67.929688 35 C 64.066406 35 60.929688 31.863281 60.929688 28 C 60.929688 24.132813 64.066406 21 67.929688 21 Z "/>
</g>
</svg>
