<?xml version="1.0" encoding="UTF-8"?>
<svg xmlns="http://www.w3.org/2000/svg" xmlns:xlink="http://www.w3.org/1999/xlink" width="48pt" height="48pt" viewBox="0 0 48 48" version="1.1">
<g id="surface1">
<path style=" stroke:none;fill-rule:nonzero;fill:#f0dc30;fill-opacity:1;" d="M 24 8 C 19.578125 8 16 11.578125 16 16 C 16 20.421875 19.578125 24 24 24 C 28.421875 24 32 20.421875 32 16 C 32 11.578125 28.421875 8 24 8 Z M 18.0625 26.8125 C 10.507813 29.101563 8 35.3125 8 35.3125 L 8 40 L 40 40 L 40 35.3125 C 40 35.3125 37.492188 29.101563 29.9375 26.8125 C 29.523438 29.726563 27.023438 32 24 32 C 20.976563 32 18.476563 29.726563 18.0625 26.8125 Z "/>
</g>
</svg>
