<?xml version="1.0" encoding="utf-8"?>
<!-- Generator: Adobe Illustrator 23.0.1, SVG Export Plug-In . SVG Version: 6.00 Build 0)  -->
<svg version="1.1" id="Capa_1" xmlns="http://www.w3.org/2000/svg" xmlns:xlink="http://www.w3.org/1999/xlink" x="0px" y="0px"
	 viewBox="0 0 207.6 305.2" style="enable-background:new 0 0 207.6 305.2;" xml:space="preserve">
<style type="text/css">
	.st0{fill:#6C48EF;}
	.st1{fill:#B4A8EF;}
	.st2{fill:#263238;}
	.st3{fill:none;stroke:#263238;stroke-width:0.5;stroke-linecap:round;stroke-linejoin:round;}
	.st4{fill:#E4897B;}
	.st5{opacity:0.6;fill:#FFFFFF;enable-background:new    ;}
	.st6{opacity:0.2;enable-background:new    ;}
	.st7{fill:#2E353A;}
	.st8{opacity:0.2;fill:#FFFFFF;enable-background:new    ;}
	.st9{fill:#FFFFFF;}
	.st10{fill:#DE5753;}
	.st11{fill:none;stroke:#263238;stroke-width:0.71;stroke-linecap:round;stroke-linejoin:round;}
	.st12{fill:none;stroke:#29A32D;stroke-width:0.75;stroke-miterlimit:10;}
	.st13{fill:none;stroke:#29A32D;stroke-width:0.75;stroke-miterlimit:10;stroke-dasharray:13.47,13.47;}
	.st14{fill:none;stroke:#29A32D;stroke-width:0.75;stroke-miterlimit:10;stroke-dasharray:11.1,11.1;}
	.st15{opacity:0.4;fill:#FFFFFF;enable-background:new    ;}
</style>
<rect class="st0" width="207.6" height="305.2"/>
<title>AIRecurso 2</title>
<g>
	<g id="Capa_1-2">
		<rect x="6" y="8.9" class="st1" width="195.5" height="287.4"/>
		<g id="freepik--Character--inject-93">
			<path class="st2" d="M56.8,35.7c0,0-4.7,1.7-6.2,8.2s2.4,20.3,3.1,26.9c0.7,6.6-6.6,20,12.2,21.1s21.5-50,12.8-53.6
				S56.8,35.7,56.8,35.7z"/>
			<path class="st3" d="M77.7,39.1c5.3-2.4,7.4,14.6,5.7,26.8"/>
			<path class="st4" d="M109.7,119.8l3.7,5.4c0,0,1.4-0.1,0.7,4.6c-0.8,4.7-1.4,7.4-2.9,8.6c-1.5,1.1-6.1,0.8-7.2-0.2
				c-1-0.9,4.2-11.6,4.2-11.6l-2.8-4.1L109.7,119.8z"/>
			<path class="st0" d="M79.9,81c0,0,18.3,11.1,20.7,15c2.4,3.9,5.7,29,5.7,29l7.3-1c0,0,0-28.2-4.2-35.7S85.8,64.2,85.8,64.2
				L79.9,81z"/>
			<path class="st5" d="M79.9,81c0,0,18.3,11.1,20.7,15c2.4,3.9,5.7,29,5.7,29l7.3-1c0,0,0-28.2-4.2-35.7S85.8,64.2,85.8,64.2
				L79.9,81z"/>
			<path class="st4" d="M48.9,272.6l4.5,2.6c2.1-2.9,4.4-5.6,6.9-8.2l0,0c1.3-1.4,2.7-2.9,4.1-4.6c2.9-3.3,6-7.1,9.2-11.1l2.9-3.7
				c11.4-14.3,23.7-31.2,28.4-42.6c1.4-3.6,2.2-6.6,1.8-8.8c-0.9-6.8-3.6-17-6.6-26.9c-4.6-15.1-9.8-29.5-9.8-29.5l-12.7,21.6
				c0,0,3.9,9.3,7.4,19.2c3.5,9.7,6.7,20.1,5.5,22.7l-0.4,0.9c-2.1,4.3-7.9,14.2-14.6,25.2l-2.1,3.3c-3.6,5.8-7.3,11.9-10.6,17.3
				c-1.3,2.2-2.6,4.2-3.9,6.2C53.2,265.7,48.9,272.6,48.9,272.6z"/>
			<path class="st6" d="M77,247.6c-6,7.5-11.8,14.4-16.1,19.4c-0.7-3.1-1.2-6.7-1.7-10.6c5-8,11-17.8,16.6-26.9
				C75.6,235.5,76,241.6,77,247.6z"/>
			<path class="st4" d="M54.3,185.4c1.3,8.9,3.1,17.5,5.3,26.2c0.8,3.5,1.5,5.6,1.5,5.6c0,11,0.7,22,2,33c0.5,4.3,1,8.5,1.5,12.3
				c2,14.2,4.1,24.5,4.1,24.5l5.5-0.8l-0.2-34.9l-0.1-18.6l-0.3-25.1v-4.4L73.2,184l-0.4-28.3L54,147.2
				C51.4,158.1,52.4,172.5,54.3,185.4z"/>
			<path class="st6" d="M104.6,185.6c-4.8,3.3-11.3,5.3-15.7,6.4c-1-3.5-2.4-7.4-3.8-11.3c-3.6-9.9-7.4-19.2-7.4-19.2L90.4,140
				c0,0,5.2,14.3,9.8,29.5C101.9,174.8,103.4,180.5,104.6,185.6z"/>
			<path class="st6" d="M73.3,195.9c-5.9-0.1-11.7-0.6-17.5-1.3c-0.6-2.9-1.1-6-1.6-9.3c-1.9-12.9-2.8-27.3-0.3-38.1l18.8,8.5
				l0.4,28.3L73.3,195.9z"/>
			<path class="st2" d="M105.6,183.7c-11.8,7-46.4,9.9-46.4,9.9l-5.7-15.9l0.7,15.8h-1.7c0,0-12.6-42.9,4.1-70.9l30.1-2.4l3.3,15.5
				C90,135.6,98.5,157.9,105.6,183.7z"/>
			<path class="st7" d="M83.5,293.9c-0.9-0.5-1.9-0.9-2.9-1l0,0c0,0-3.3-2.4-5.9-11l-4-0.5c-1.4-0.1-2.7,0.6-3.3,1.9
				c-0.1,0.2-0.2,0.4-0.2,0.6c-0.1,1-0.1,1.9,0,2.9c0.3,3.2,0.7,6.4,1.3,9.6l0.7-0.1l-0.6-6c-0.2-2.1,1.7,0.1,2.4,2.3
				s2.1,4.3,6.5,3.8C82.9,295.5,85,295,83.5,293.9z"/>
			<path class="st4" d="M73.6,278.8c0,0,1.4,3.9,3.3,8.1c0.9,2.2,2.1,4.2,3.8,5.9c0,0-3.3,1-5-0.9c-1.7-2-4.8-9.4-8.2-8.6
				c0.2-0.6,0.4-1.2,0.8-1.7C68.7,280.7,73.6,278.8,73.6,278.8z"/>
			<path class="st7" d="M50.3,290.6c-0.2-1-0.6-2-1.1-2.9l0,0c0,0-0.4-4.1,4.2-11.8l-2.3-3.3c-0.8-1.1-2.2-1.6-3.6-1.2
				c-0.2,0.1-0.4,0.1-0.5,0.2c-0.8,0.6-1.5,1.2-2.2,1.9c-2.2,2.3-4.3,4.8-6.3,7.3l0.6,0.5l4.1-4.4c1.4-1.5,1,1.4,0,3.3
				c-1,1.9-1.9,4.4,1.5,7.4C48.7,291.2,50.5,292.4,50.3,290.6z"/>
			<path class="st4" d="M55,273.1c0,0-2,3.6-3.9,7.8c-1,2.1-1.7,4.4-2,6.8c0,0-2.9-1.8-2.6-4.4c0.3-2.6,4-9.9,1-11.9
				c0.6-0.3,1.2-0.5,1.8-0.6C50.4,270.6,55,273.1,55,273.1z"/>
			<polygon class="st2" points="56.3,119.4 56.1,123.9 87.3,122.6 87.5,117.3 			"/>
			<polygon class="st8" points="56.3,119.4 56.1,123.9 87.3,122.6 87.5,117.3 			"/>
			
				<rect x="65.4" y="117.8" transform="matrix(0.9999 -1.343863e-02 1.343863e-02 0.9999 -1.6309 0.8995)" class="st2" width="1.5" height="7.9"/>
			
				<rect x="73.5" y="118.3" transform="matrix(0.9988 -4.993762e-02 4.993762e-02 0.9988 -5.9415 3.9897)" class="st9" width="6.8" height="5.2"/>
			
				<rect x="84.4" y="116.4" transform="matrix(0.9999 -1.326411e-02 1.326411e-02 0.9999 -1.5893 1.1401)" class="st2" width="1.5" height="7.9"/>
			<path class="st4" d="M47.8,121.2l7.2,4.1c1.7,0.6,3,1.8,3.9,3.4c1.7,2.8-0.8,13.6-2.2,13.6c-1.4,0-9-1.7-8.9-3.2
				c0.1-1.5,3.1-8.5,3.1-8.5l-6.9-4.3L47.8,121.2z"/>
			<path class="st0" d="M56.1,119.4c0,0-1.9-27.6-8.3-43.4c0,0,13.2-7.1,38.1-12.2c0,0,7.2,17.3,1.5,54L56.1,119.4z"/>
			<circle class="st5" cx="76.9" cy="91.9" r="0.8"/>
			<path class="st5" d="M78.7,102.7c0.1,0.5-0.2,1-0.7,1.2c-0.5,0.1-1-0.2-1.2-0.7c-0.1-0.2,0-0.4,0-0.6c0-0.5,0.4-0.8,0.8-0.8l0,0
				c0.5,0,0.9,0.3,0.9,0.8C78.6,102.5,78.7,102.6,78.7,102.7L78.7,102.7z"/>
			<path class="st5" d="M78.7,112.9c0.1,0.5-0.2,1-0.7,1.2c-0.5,0.1-1-0.2-1.2-0.7c-0.1-0.2,0-0.4,0-0.6c0-0.5,0.4-0.8,0.8-0.8l0,0
				c0.5,0,0.9,0.3,0.9,0.8C78.6,112.7,78.7,112.7,78.7,112.9L78.7,112.9z"/>
			<path class="st0" d="M47.8,75.9c-5.8,3.2-27.1,27.6-25.4,34.9c1.7,7.3,25.4,18.7,25.4,18.7l4.1-7.1c0,0-15.5-11.7-16.3-13.5
				s17.1-15.9,17.1-15.9c0.2-3.7,0.1-7.5-0.3-11.2C52,79.2,50.3,77,47.8,75.9z"/>
			<path class="st5" d="M47.8,75.9c-5.8,3.2-27.1,27.6-25.4,34.9c1.7,7.3,25.4,18.7,25.4,18.7l4.1-7.1c0,0-15.5-11.7-16.3-13.5
				s17.1-15.9,17.1-15.9c0.2-3.7,0.1-7.5-0.3-11.2C52,79.2,50.3,77,47.8,75.9z"/>
			<path class="st0" d="M58.9,80.8c0,0-5.9-9.7,7.1-13.1s17,4.4,17,4.4L76.5,71l-0.8,15.5c-3-5.4-7.9-9.4-13.8-11.4L58.9,80.8z"/>
			<path class="st5" d="M58.9,80.8c0,0-5.9-9.7,7.1-13.1s17,4.4,17,4.4L76.5,71l-0.8,15.5c-3-5.4-7.9-9.4-13.8-11.4L58.9,80.8z"/>
			<path class="st4" d="M73.7,78.9c-4.4-2-8.6-4.5-12.5-7.3c3.1-2.9,2.5-7.2,1.7-9.8c-0.3-0.8-0.6-1.7-0.9-2.4l9,1.7
				c-0.2,1.2-0.3,2.5-0.4,3.8c0,0.9,0.1,1.9,0.3,2.8c0.7,2.7,2.2,2.7,2.2,2.7C74.6,73.5,73.7,78.9,73.7,78.9z"/>
			<path class="st6" d="M70.6,65c0,0.9,0.1,1.9,0.3,2.8c-3.6-0.5-6.3-3.3-8-5.8c-0.3-0.8-0.6-1.7-0.9-2.4l9,1.7
				C70.8,62.5,70.6,63.7,70.6,65z"/>
			<path class="st4" d="M68.9,35.8c9.7,0,10.5,4.7,11.1,12.8c0.7,10.1-1.6,17.2-11.4,15.1C55.2,60.8,55.8,35.8,68.9,35.8z"/>
			<path class="st10" d="M74.9,48.1c0.6,1.2,1.4,2.3,2.3,3.3c-0.4,0.7-1.3,1-2.1,0.8L74.9,48.1z"/>
			<path class="st2" d="M70,47.5c0,0.7-0.3,1.1-0.8,1.2s-0.8-0.5-0.8-1.1c0-0.7,0.3-1.1,0.8-1.2C69.7,46.3,70,46.8,70,47.5z"/>
			<path class="st2" d="M69,46.4l1.4-0.6C70.5,45.8,69.8,47,69,46.4z"/>
			<path class="st2" d="M78,47.2c0,0.7-0.3,1.1-0.8,1.2c-0.5,0.1-0.8-0.5-0.8-1.1c0-0.7,0.3-1.2,0.8-1.2C77.7,46.1,78,46.5,78,47.2z
				"/>
			<path class="st2" d="M77,46.1l1.4-0.6C78.5,45.5,77.8,46.7,77,46.1z"/>
			<path class="st11" d="M70,42.1c-1.3-0.2-2.5,0.3-3.4,1.2"/>
			<path class="st11" d="M75.6,41.7c1.1-0.3,2.2,0,3.1,0.7"/>
			<path class="st2" d="M60.4,49.5c0,0,3.7-6.4,3.1-11.4c0,0,5.6-5.7,13-0.1c0,0,3.1,5.4,3.3,9.5c0,0,1.5-14-12-14.3
				s-13.5,19.4-6.5,25.2C61.3,58.5,58.1,53.5,60.4,49.5z"/>
			<path class="st4" d="M61.7,51.2c-0.2-1.9-1.8-3.3-3.7-3.2l0,0c-2.4,0.3-3.6,5.3,2.4,6.5C61.2,54.6,61.8,53.8,61.7,51.2z"/>
			<path class="st11" d="M73.9,56.5c0,0-3.3,0.8-4.6-2.2"/>
			<path class="st2" d="M63.6,38.1c0,0,8.9-4,14.9,1.2c0,0,2.4-6.9-5.7-9.2s-16,5.6-16,5.6L63.6,38.1z"/>
			<path class="st2" d="M63.6,38.1c0,0-5.3,5.2-4.5,15.4s-0.3,16.8-2.3,23.2c-2,6.4,3.3,8.4,3.3,8.4s-6.1,1.5-7.3-5
				c-0.8-4.2,1.1-13.6,0.2-24.6S55.9,36.6,63.6,38.1z"/>
		</g>
		<polyline class="st12" points="93.3,30.6 93.3,25 87.7,25 		"/>
		<line class="st13" x1="75.1" y1="25" x2="56" y2="25"/>
		<polyline class="st12" points="49.6,25 44,25 44,30.6 		"/>
		<line class="st14" x1="44" y1="41.1" x2="44" y2="77.7"/>
		<polyline class="st12" points="44,82.9 44,88.5 49.6,88.5 		"/>
		<line class="st13" x1="62.4" y1="88.5" x2="81.4" y2="88.5"/>
		<polyline class="st12" points="87.7,88.5 93.3,88.5 93.3,82.9 		"/>
		<line class="st14" x1="93.3" y1="72.4" x2="93.3" y2="35.9"/>
		<rect x="104.6" y="71.1" class="st0" width="83.1" height="113.2"/>
		<rect x="104.6" y="71.1" class="st15" width="83.1" height="113.2"/>
		<path class="st0" d="M187.7,159v25.3h-6.4c-1.8-1.7-3.8-3.2-5.9-4.5c-1-0.6-2.1-1.1-3.3-1.4c-9.7-2.6,4.3-28.6,4.3-28.6l0,0
			C179.7,150.9,183.6,154.5,187.7,159z"/>
		<path class="st5" d="M187.7,159v25.3h-6.4c-1.8-1.7-3.8-3.2-5.9-4.5c-1-0.6-2.1-1.1-3.3-1.4c-9.7-2.6,4.3-28.6,4.3-28.6l0,0
			C179.7,150.9,183.6,154.5,187.7,159z"/>
		<path class="st6" d="M187.7,184.2L187.7,184.2l-6.4,0.1c-1.8-1.7-3.8-3.2-5.9-4.5l1.9-12c1.9,1.6,3.5,3.3,5,5.3l0,0
			C184.7,176.5,186.5,180.2,187.7,184.2z"/>
		<path class="st2" d="M169.9,148.8c-0.2,1.1-0.4,2.1-0.6,3.1c-0.2,1.1-0.6,2.5-0.8,3.7c-3.1,12.5-8.3,23.5-15.6,28.7h-25.2
			c-7.4-3.8-8.7-10-8.5-16.6c0.1-4.5,1.1-9,1.4-12.9c0.1-1.3,0.1-2.7,0-4c-0.2-2.1-0.6-4.5-1.1-7.1c-2.2-12.5-6.4-30.4-4.3-39.6
			c2.6-11.2,10.8-14.3,10.8-14.3s2.8-0.2,7-0.1c3.1,0,7.1,0.1,11.3,0.6h0.3c4.7,0.4,9.3,1.3,13.9,2.5l1.1,0.3l2.7,0.8l0,0l1.7,0.6
			l0,0c0.7,0.3,1.4,0.8,1.9,1.3C172.3,102.5,173.9,126.8,169.9,148.8z"/>
		<path class="st3" d="M162.4,95.9c9.1-4.3,13,25.3,9.8,46.6"/>
		<path class="st0" d="M182.9,184.3h-65.2l-0.9-3.7c-1.6-7.1-3.8-14.1-6.4-20.9l0,0c2.7-1.6,5.5-3,8.4-4.1c0.6-0.2,1.1-0.5,1.7-0.7
			c2.6-1,5.2-1.9,7.9-2.7l0.9-0.3c2.2-0.6,4.6-1.3,7.1-1.8l0,0c5.3-1.1,10.7-1.8,16.1-2.1l0,0c4.1-0.2,8.3-0.1,12.4,0.2l0,0
			c1.6,0.1,3.2,0.3,5,0.5c2.1,0.3,4.3,0.6,6.4,1l0,0c0.2,0.4,4.3,6.7,5.9,23.4l0,0C182.6,176.5,182.8,180.2,182.9,184.3z"/>
		<path class="st0" d="M128.7,164.9c0,0-7.4-18.4,15.9-20.4c23.3-2,28,12.5,28,12.5l-10.8-3.8l-5.7,26.4
			c-3.7-10-10.9-18.4-20.4-23.4L128.7,164.9z"/>
		<path class="st5" d="M128.7,164.9c0,0-7.4-18.4,15.9-20.4c23.3-2,28,12.5,28,12.5l-10.8-3.8l-5.7,26.4
			c-3.7-10-10.9-18.4-20.4-23.4L128.7,164.9z"/>
		<path class="st4" d="M155,167.8c-6-6.2-12.8-11.6-20.2-16c5.6-4.7,5-12.2,3.9-16.8c-0.4-1.5-0.8-2.9-1.4-4.3l15.5,3.8
			c-0.5,2.1-0.8,4.3-1,6.5c-0.1,1.6-0.1,3.3,0.2,4.9c0.8,4.7,3.5,5,3.5,5C157.9,156.2,155,167.8,155,167.8z"/>
		<path class="st6" d="M151.9,141c-0.1,1.6-0.1,3.3,0.2,4.9c-6.2-1.1-10.6-6.4-13.3-10.8c-0.4-1.5-0.8-2.9-1.4-4.3l15.5,3.8
			C152.3,136.7,152,138.8,151.9,141z"/>
		<path class="st4" d="M146.9,90.1c16.8,0,18.3,8.1,19.3,22.2c1.2,17.5-2.7,30-19.8,26.2C123.3,133.4,124.3,90.1,146.9,90.1z"/>
		<path class="st10" d="M157.3,111.5c1.1,2.1,2.4,4,4,5.7c-0.8,1.2-2.2,1.8-3.6,1.6L157.3,111.5z"/>
		<path class="st2" d="M149,110.4c0,1.1-0.6,2-1.3,2s-1.4-0.8-1.4-2s0.6-2.1,1.3-2.1S149,109.2,149,110.4z"/>
		<path class="st2" d="M147.3,108.5l2.4-0.9C149.7,107.4,148.5,109.5,147.3,108.5z"/>
		<path class="st2" d="M162.9,109.8c0,1.1-0.6,2.1-1.3,2.1s-1.4-0.8-1.4-2s0.6-2,1.3-2C162.1,107.8,162.8,108.7,162.9,109.8z"/>
		<path class="st2" d="M161.2,108l2.4-1C163.6,107,162.5,109,161.2,108z"/>
		<path class="st11" d="M148.9,101c0,0-3.8-0.5-6,2.1"/>
		<path class="st11" d="M158.8,100.4c1.9-0.5,3.9-0.1,5.5,1.1"/>
		<path class="st2" d="M132.2,113.8c0,0,6.4-11.2,5.4-19.8c0,0,9.6-9.9,22.5-0.1c0,0,5.4,9.3,5.7,16.6c0,0,2.7-24.3-20.7-24.9
			c-23.4-0.6-23.3,33.6-11.3,43.9C134,129.4,128.3,120.8,132.2,113.8z"/>
		<path class="st4" d="M134.5,116.7c-0.3-3.3-3.2-5.7-6.4-5.4c0,0,0,0,0,0c-4.3,0.4-6.2,9.1,4.3,11.2
			C133.8,122.8,134.7,121.3,134.5,116.7z"/>
		<path class="st11" d="M155.8,126.2c0,0-5.7,1.3-8.1-3.8"/>
		<path class="st2" d="M137.7,94c0,0,15.6-6.9,25.8,2.2c0,0,4-12-9.8-16c-13.8-4-27.8,9.7-27.8,9.7L137.7,94z"/>
		<path class="st2" d="M137.7,94c0,0-9.1,9-7.8,26.8c1.3,17.8-0.4,29.2-4,40.3c-3.5,11.1,5.7,14.5,5.7,14.5s-10.5,2.6-12.7-8.7
			c-1.4-7.4,2-23.5,0.3-42.7C117.5,105.1,124.3,91.5,137.7,94z"/>
		<path class="st6" d="M120.7,184.3h-3c-0.3-1.2-0.6-2.5-0.8-3.7l2.3-2l0,0C119.8,180.4,120.3,182.3,120.7,184.3z"/>
		<path class="st0" d="M119.2,184.3h-14.6v-20c1.8-1.7,3.8-3.2,5.9-4.5l0,0c4.2,1.8,7.2,5.6,7.9,10.2c0.4,2.8,0.6,5.7,0.7,8.6
			C119.2,180.4,119.2,182.3,119.2,184.3z"/>
		<path class="st5" d="M119.2,184.3h-14.6v-20c1.8-1.7,3.8-3.2,5.9-4.5l0,0c4.2,1.8,7.2,5.6,7.9,10.2c0.4,2.8,0.6,5.7,0.7,8.6
			C119.2,180.4,119.2,182.3,119.2,184.3z"/>
	</g>
</g>
</svg>
