<svg xmlns="http://www.w3.org/2000/svg" viewBox="0 0 402.1 363.27"><defs><style>.cls-1{fill:#ebebeb;}.cls-2{fill:#f5f5f5;}.cls-3{fill:#e0e0e0;}.cls-11,.cls-20,.cls-4,.cls-5,.cls-6,.cls-7,.cls-8,.cls-9{fill:none;stroke-linecap:round;stroke-linejoin:round;}.cls-4,.cls-5,.cls-6,.cls-7,.cls-8,.cls-9{stroke:#ebebeb;stroke-width:2px;}.cls-5{stroke-dasharray:4.87 4.87;}.cls-6{stroke-dasharray:4.98 4.98;}.cls-7{stroke-dasharray:5.31 5.31;}.cls-8{stroke-dasharray:5.54 5.54;}.cls-9{stroke-dasharray:5;}.cls-10{fill:#263238;}.cls-11,.cls-20{stroke:#263238;}.cls-11{stroke-width:0.5px;}.cls-12{fill:#e4897b;}.cls-13{fill:#6c48ef;}.cls-14,.cls-17,.cls-18,.cls-21,.cls-22,.cls-26,.cls-27{fill:#fff;}.cls-14{opacity:0.6;}.cls-14,.cls-15,.cls-17,.cls-21,.cls-22,.cls-24,.cls-25,.cls-26,.cls-27{isolation:isolate;}.cls-15,.cls-17,.cls-23{opacity:0.2;}.cls-16{fill:#2e353a;}.cls-19{fill:#de5753;}.cls-20{stroke-width:0.71px;}.cls-21{opacity:0.8;}.cls-22{opacity:0.4;}.cls-24,.cls-26{opacity:0.3;}.cls-25{opacity:0.1;}.cls-27{opacity:0.5;}</style></defs><title>walk3export</title><g id="Capa_2" data-name="Capa 2"><g id="Capa_1-2" data-name="Capa 1"><g id="freepik--background-complete--inject-93"><rect class="cls-1" x="368.25" y="334.2" width="33.12" height="0.25"/><rect class="cls-1" x="274" y="336.92" width="8.69" height="0.25"/><rect class="cls-1" x="348.06" y="324.92" width="19.19" height="0.25"/><rect class="cls-1" x="3.93" y="326.6" width="43.19" height="0.25"/><rect class="cls-1" x="56.03" y="326.6" width="6.33" height="0.25"/><rect class="cls-1" x="82.94" y="330.82" width="93.68" height="0.25"/><rect class="cls-2" x="316.01" y="22.18" width="48.73" height="59.99"/><rect class="cls-1" x="318.88" y="25.04" width="43" height="54.25"/><path class="cls-3" d="M356.66,65.6V79.29H324.09V65.6a15.11,15.11,0,0,1,12.46-14.89,10.51,10.51,0,1,1,7.65,0A15.09,15.09,0,0,1,356.66,65.6Z"/><rect class="cls-3" x="37.41" y="36.15" width="40.57" height="27.24"/><polygon class="cls-1" points="57.7 27.52 25.14 36.15 57.7 44.78 90.26 36.15 57.7 27.52"/><path class="cls-2" d="M74.47,57V40.52a.71.71,0,0,0-.53-.69L57.86,35.46a.72.72,0,0,0-.39,1.38h0L73,41.07V57a1.93,1.93,0,1,0,1.43,0Z"/><polygon class="cls-3" points="162.06 0 155.35 39.18 190.72 39.18 162.06 0"/><polygon class="cls-2" points="216.13 39.18 167.92 39.18 162.06 0 210.27 0 216.13 39.18"/><polygon class="cls-1" points="211.34 7.18 163.13 7.18 162.06 0 210.27 0 211.34 7.18"/><polygon class="cls-3" points="177.76 14.57 173.6 14.57 172.98 10.37 177.13 10.37 177.76 14.57"/><polygon class="cls-3" points="184.09 14.57 179.93 14.57 179.31 10.37 183.46 10.37 184.09 14.57"/><polygon class="cls-3" points="190.42 14.57 186.26 14.57 185.64 10.37 189.79 10.37 190.42 14.57"/><polygon class="cls-3" points="196.75 14.57 192.59 14.57 191.97 10.37 196.12 10.37 196.75 14.57"/><polygon class="cls-3" points="203.08 14.57 198.92 14.57 198.3 10.37 202.45 10.37 203.08 14.57"/><polygon class="cls-3" points="209.41 14.57 205.25 14.57 204.63 10.37 208.78 10.37 209.41 14.57"/><polygon class="cls-3" points="172.32 20.56 168.17 20.56 167.54 16.37 171.7 16.37 172.32 20.56"/><polygon class="cls-3" points="178.66 20.56 174.5 20.56 173.87 16.37 178.03 16.37 178.66 20.56"/><polygon class="cls-3" points="184.98 20.56 180.83 20.56 180.2 16.37 184.36 16.37 184.98 20.56"/><polygon class="cls-3" points="191.31 20.56 187.16 20.56 186.53 16.37 190.69 16.37 191.31 20.56"/><polygon class="cls-3" points="197.64 20.56 193.49 20.56 192.86 16.37 197.02 16.37 197.64 20.56"/><polygon class="cls-3" points="203.97 20.56 199.82 20.56 199.19 16.37 203.35 16.37 203.97 20.56"/><polygon class="cls-3" points="210.3 20.56 206.15 20.56 205.52 16.37 209.68 16.37 210.3 20.56"/><polygon class="cls-3" points="173.22 26.56 169.07 26.56 168.44 22.36 172.59 22.36 173.22 26.56"/><polygon class="cls-3" points="179.55 26.56 175.4 26.56 174.77 22.36 178.92 22.36 179.55 26.56"/><polygon class="cls-3" points="185.88 26.56 181.73 26.56 181.1 22.36 185.25 22.36 185.88 26.56"/><polygon class="cls-3" points="192.21 26.56 188.06 26.56 187.43 22.36 191.58 22.36 192.21 26.56"/><polygon class="cls-3" points="198.54 26.56 194.39 26.56 193.76 22.36 197.91 22.36 198.54 26.56"/><polygon class="cls-3" points="204.87 26.56 200.72 26.56 200.09 22.36 204.24 22.36 204.87 26.56"/><polygon class="cls-3" points="211.2 26.56 207.05 26.56 206.42 22.36 210.57 22.36 211.2 26.56"/><polygon class="cls-3" points="174.12 32.55 169.97 32.55 169.34 28.36 173.49 28.36 174.12 32.55"/><polygon class="cls-3" points="180.45 32.55 176.29 32.55 175.67 28.36 179.82 28.36 180.45 32.55"/><polygon class="cls-3" points="186.78 32.55 182.62 32.55 182 28.36 186.15 28.36 186.78 32.55"/><polygon class="cls-3" points="193.11 32.55 188.95 32.55 188.33 28.36 192.48 28.36 193.11 32.55"/><polygon class="cls-3" points="199.44 32.55 195.28 32.55 194.66 28.36 198.81 28.36 199.44 32.55"/><polygon class="cls-3" points="205.77 32.55 201.61 32.55 200.98 28.36 205.14 28.36 205.77 32.55"/><rect class="cls-3" x="361.25" y="163.45" width="40.85" height="56.49" rx="2.19"/><rect class="cls-2" x="355.46" y="157.89" width="40.85" height="56.49" rx="2.19"/><path class="cls-1" d="M389.19,166.78H362.58a1.33,1.33,0,0,1-1.33-1.31v0h0a1.34,1.34,0,0,1,1.33-1.33h26.61a1.33,1.33,0,0,1,1.33,1.33h0a1.32,1.32,0,0,1-1.31,1.33Z"/><path class="cls-1" d="M389.19,173.71H362.58a1.34,1.34,0,0,1-1.33-1.33h0a1.34,1.34,0,0,1,1.32-1.34h26.62a1.33,1.33,0,0,1,1.33,1.33h0A1.33,1.33,0,0,1,389.19,173.71Z"/><path class="cls-1" d="M389.19,180.57H362.58a1.33,1.33,0,0,1-1.33-1.31v0h0a1.34,1.34,0,0,1,1.33-1.33h26.61a1.33,1.33,0,0,1,1.33,1.33h0a1.32,1.32,0,0,1-1.31,1.33Z"/><path class="cls-1" d="M389.19,187.47H362.58a1.34,1.34,0,0,1-1.33-1.33h0a1.34,1.34,0,0,1,1.32-1.34h26.62a1.33,1.33,0,0,1,1.33,1.33h0A1.33,1.33,0,0,1,389.19,187.47Z"/><path class="cls-1" d="M389.19,194.36H362.58a1.33,1.33,0,0,1-1.33-1.31v0h0a1.33,1.33,0,0,1,1.31-1.33h26.63a1.31,1.31,0,0,1,1.33,1.31v0h0a1.32,1.32,0,0,1-1.31,1.33Z"/><path class="cls-1" d="M389.19,201.26H362.58a1.34,1.34,0,0,1-1.33-1.33h0a1.34,1.34,0,0,1,1.33-1.33h26.61a1.33,1.33,0,0,1,1.33,1.33h0a1.33,1.33,0,0,1-1.32,1.34Z"/><path class="cls-1" d="M383.19,208.15H362.58a1.34,1.34,0,0,1-1.33-1.33h0a1.33,1.33,0,0,1,1.31-1.33h20.63a1.31,1.31,0,0,1,1.33,1.31v0h0A1.33,1.33,0,0,1,383.19,208.15Z"/><line class="cls-4" x1="339.92" y1="84.79" x2="339.92" y2="87.29"/><line class="cls-5" x1="339.92" y1="92.16" x2="339.92" y2="128.69"/><polyline class="cls-4" points="339.92 131.13 339.92 133.63 337.42 133.63"/><line class="cls-6" x1="332.44" y1="133.63" x2="245.32" y2="133.63"/><polyline class="cls-4" points="242.83 133.63 240.33 133.63 240.33 136.13"/><line class="cls-7" x1="240.33" y1="141.44" x2="240.33" y2="149.41"/><polyline class="cls-4" points="240.33 152.07 240.33 154.57 237.83 154.57"/><line class="cls-8" x1="232.3" y1="154.57" x2="223.99" y2="154.57"/><line class="cls-4" x1="221.22" y1="154.57" x2="218.72" y2="154.57"/><polyline class="cls-9" points="379.59 225.19 379.59 243.8 240.33 243.8 240.33 184.8 220.56 184.8"/><polyline class="cls-9" points="220.56 20.56 247.44 20.56 247.44 124.86 198.3 124.86"/><polyline class="cls-9" points="83.85 52.2 108.6 52.2 108.6 155.79 145.94 155.79"/><polygon class="cls-3" points="28.72 250.37 17.63 243.37 6.26 250.37 6.26 212.99 28.72 212.99 28.72 250.37"/><circle class="cls-2" cx="17.49" cy="209.59" r="17.49"/><circle class="cls-1" cx="17.49" cy="209.59" r="14.85" transform="translate(-143.08 73.75) rotate(-45)"/><polyline class="cls-9" points="40.95 210.08 118.1 210.08 118.1 184.8 145.94 184.8"/></g><g id="freepik--Shadow--inject-93"><ellipse id="freepik--path--inject-93" class="cls-2" cx="201.47" cy="351.95" rx="193.89" ry="11.32"/></g><g id="freepik--Character--inject-93"><path class="cls-10" d="M64.25,77.26s-5,1.85-6.58,8.7,2.62,21.63,3.29,28.62S54,135.74,73.89,137,96.7,83.94,87.47,80.14,64.25,77.26,64.25,77.26Z"/><path class="cls-11" d="M86.53,80.93c5.56-2.62,7.94,15.48,6,28.54"/><path class="cls-12" d="M133.8,73.62l2.37-6.52s-1-1.19,3.56-3.37,7.34-3.36,9.21-2.77,4.44,4.8,4.24,6.26-12.66,3.49-12.66,3.49l-1.78,5Z"/><path class="cls-13" d="M95.25,107s21.76-6.53,25.32-9.87S134.2,68.87,134.2,68.87l7.31,3s-7.49,28.9-13.82,35.59S97,126,97,126Z"/><path class="cls-14" d="M95.25,107s21.76-6.53,25.32-9.87S134.2,68.87,134.2,68.87l7.31,3s-7.49,28.9-13.82,35.59S97,126,97,126Z"/><path class="cls-12" d="M55.89,328.77l4.83,2.84a93.78,93.78,0,0,1,7.34-8.7h0c1.4-1.48,2.87-3.12,4.4-4.88,3.06-3.51,6.37-7.52,9.84-11.83l3.11-3.89c12.06-15.22,25.16-33.1,30.06-45.19,1.52-3.76,2.26-7,1.93-9.34-1-7.22-3.8-18.09-7-28.59C105.52,203.14,100,187.93,100,187.93L86.54,210.78s4.14,9.87,7.91,20.38c3.71,10.32,7.06,21.27,5.82,24.12l-.44,1c-2.24,4.64-8.44,15.15-15.48,26.76l-2.15,3.53c-3.78,6.2-7.71,12.57-11.35,18.42-1.42,2.3-2.8,4.52-4.11,6.62C60.52,321.54,55.89,328.77,55.89,328.77Z"/><path class="cls-15" d="M85.69,302.3c-6.38,8-12.51,15.3-17.07,20.6-.65-3.26-1.31-7.12-1.83-11.33,5.27-8.46,11.72-18.9,17.58-28.57A111.31,111.31,0,0,0,85.69,302.3Z"/><path class="cls-12" d="M61.61,236.18A274.26,274.26,0,0,0,67.21,264c.93,3.69,1.56,5.87,1.56,5.87a310.09,310.09,0,0,0,2.06,35c.51,4.58,1.06,9,1.63,13.07,2.1,15.14,4.31,26,4.31,26l5.75-.75-.22-37.09-.12-19.66L82,259.73,82,255.07l-.28-20.34-.41-30-20-9C58.59,207.18,59.59,222.46,61.61,236.18Z"/><path class="cls-15" d="M115.13,236.37c-5.11,3.53-12,5.65-16.73,6.79-1.09-3.73-2.5-7.92-4-12-3.77-10.51-7.91-20.38-7.91-20.38L100,187.93s5.49,15.21,10.37,31.26C112.17,225,113.83,231,115.13,236.37Z"/><path class="cls-15" d="M81.85,247.37A183.56,183.56,0,0,1,63.26,246c-.58-3.13-1.15-6.44-1.65-9.85-2-13.72-3-29-.34-40.4l20,9,.41,30Z"/><path class="cls-10" d="M116.1,234.38c-12.51,7.35-49.31,10.47-49.31,10.47l-6-16.92.68,16.78H59.68s-13.44-45.5,4.42-75.32l32-2.47,3.5,16.48S108.58,207,116.1,234.38Z"/><path class="cls-16" d="M92.63,351.4a9,9,0,0,0-3.06-1.14h0s-3.54-2.63-6.34-11.68L79,338.1a3.51,3.51,0,0,0-3.48,2,1.9,1.9,0,0,0-.18.57,26,26,0,0,0,0,3.06,87.18,87.18,0,0,0,1.38,10.17l.74-.1-.62-6.42c-.2-2.18,1.82.12,2.63,2.39s2.16,4.6,6.92,4C92,353.1,94.23,352.56,92.63,351.4Z"/><path class="cls-12" d="M82.07,335.38s1.5,4.09,3.5,8.59a19.7,19.7,0,0,0,4,6.29s-3.48,1.13-5.35-1.05-5.09-10-8.68-9.14a8.76,8.76,0,0,1,.8-1.83C76.88,337.35,82.07,335.38,82.07,335.38Z"/><path class="cls-16" d="M57.4,347.85a8.93,8.93,0,0,0-1.18-3.06h0s-.37-4.39,4.55-12.48l-2.43-3.47a3.49,3.49,0,0,0-3.78-1.31,2.42,2.42,0,0,0-.55.24,27.22,27.22,0,0,0-2.3,2,87.16,87.16,0,0,0-6.7,7.78l.57.48,4.4-4.72c1.5-1.59,1.11,1.45,0,3.55s-2,4.67,1.56,7.87C55.68,348.47,57.59,349.81,57.4,347.85Z"/><path class="cls-12" d="M62.4,329.31s-2.07,3.84-4.12,8.32a19.87,19.87,0,0,0-2.06,7.16s-3.14-1.85-2.75-4.7,4.15-10.46,1.09-12.56a8.59,8.59,0,0,1,1.9-.61C57.47,326.71,62.4,329.31,62.4,329.31Z"/><polygon class="cls-10" points="63.77 166.08 63.59 170.91 96.66 169.62 96.88 163.91 63.77 166.08"/><polygon class="cls-17" points="63.77 166.08 63.59 170.91 96.66 169.62 96.88 163.91 63.77 166.08"/><rect class="cls-10" x="73.36" y="164.47" width="1.64" height="8.35" transform="translate(-2.26 1.01) rotate(-0.77)"/><rect class="cls-18" x="82.11" y="164.66" width="7.24" height="5.49" transform="translate(-8.53 4.65) rotate(-2.96)"/><rect class="cls-10" x="93.58" y="163.01" width="1.64" height="8.35" transform="translate(-2.21 1.27) rotate(-0.76)"/><path class="cls-12" d="M54.79,168.12l7.56,4.32A7.94,7.94,0,0,1,66.5,176c1.85,3-.81,14.44-2.25,14.44s-9.57-1.78-9.46-3.36,3.26-9.1,3.26-9.1l-7.31-4.55Z"/><path class="cls-13" d="M63.59,166.07s-2-29.32-8.8-46.08c0,0,14-7.52,40.46-13,0,0,7.58,18.45,1.63,57.27Z"/><circle class="cls-14" cx="85.58" cy="137.03" r="0.94"/><path class="cls-14" d="M87.47,148.41a.95.95,0,1,1-1-1,.94.94,0,0,1,1,.85A.61.61,0,0,1,87.47,148.41Z"/><path class="cls-14" d="M87.47,159.22a.95.95,0,1,1-1-1,.94.94,0,0,1,1,.85A.61.61,0,0,1,87.47,159.22Z"/><path class="cls-13" d="M54.79,120c-6.22,3.42-28.77,29.34-27,37.05s27,19.78,27,19.78l4.33-7.47S42.6,157,41.81,155.06,60,138.16,60,138.16a65.4,65.4,0,0,0-.35-11.87A8.12,8.12,0,0,0,54.79,120Z"/><path class="cls-14" d="M54.79,120c-6.22,3.42-28.77,29.34-27,37.05s27,19.78,27,19.78l4.33-7.47S42.6,157,41.81,155.06,60,138.16,60,138.16a65.4,65.4,0,0,0-.35-11.87A8.12,8.12,0,0,0,54.79,120Z"/><path class="cls-13" d="M66.47,125.19S60.14,114.85,74,111.28,92.06,116,92.06,116l-6.9-1.19-.87,16.49a26.46,26.46,0,0,0-14.57-12.14Z"/><path class="cls-14" d="M66.47,125.19S60.14,114.85,74,111.28,92.06,116,92.06,116l-6.9-1.19-.87,16.49a26.46,26.46,0,0,0-14.57-12.14Z"/><path class="cls-12" d="M82.2,123.22a90.93,90.93,0,0,1-13.3-7.65c3.25-3.06,2.66-7.58,1.83-10.4a15.49,15.49,0,0,0-1-2.6l9.57,1.79a28.19,28.19,0,0,0-.37,4,12.56,12.56,0,0,0,.27,3c.65,2.86,2.28,2.9,2.28,2.9C83.18,117.39,82.2,123.22,82.2,123.22Z"/><path class="cls-15" d="M79,108.39a12.56,12.56,0,0,0,.27,3c-3.8-.5-6.68-3.54-8.49-6.18a15.49,15.49,0,0,0-1-2.6l9.57,1.79A28,28,0,0,0,79,108.39Z"/><path class="cls-12" d="M77.05,77.42c10.31,0,11.17,5,11.76,13.57.74,10.72-1.65,18.34-12.06,16C62.62,103.87,63.22,77.42,77.05,77.42Z"/><path class="cls-19" d="M83.47,90.51A17.76,17.76,0,0,0,85.89,94a2.3,2.3,0,0,1-2.2.94Z"/><path class="cls-10" d="M78.34,89.82c0,.68-.35,1.24-.8,1.25s-.84-.53-.85-1.22.34-1.24.79-1.25S78.32,89.13,78.34,89.82Z"/><path class="cls-10" d="M77.3,88.63,78.77,88S78.06,89.29,77.3,88.63Z"/><path class="cls-10" d="M86.84,89.5c0,.68-.35,1.24-.8,1.25s-.84-.54-.85-1.22.34-1.25.8-1.26S86.82,88.81,86.84,89.5Z"/><path class="cls-10" d="M85.8,88.31l1.47-.61S86.56,89,85.8,88.31Z"/><path class="cls-20" d="M78.27,84.07a4.36,4.36,0,0,0-3.62,1.25"/><path class="cls-20" d="M84.32,83.71a3.9,3.9,0,0,1,3.32.69"/><path class="cls-10" d="M68.09,91.94S72,85.1,71.42,79.82c0,0,5.88-6.06,13.79-.07,0,0,3.3,5.69,3.51,10.12,0,0,1.64-14.87-12.67-15.24s-14.3,20.58-6.92,26.84C69.13,101.47,65.67,96.21,68.09,91.94Z"/><path class="cls-12" d="M69.47,93.71a3.64,3.64,0,0,0-3.92-3.35h0c-2.58.28-3.82,5.57,2.6,6.86C69,97.39,69.56,96.5,69.47,93.71Z"/><path class="cls-20" d="M82.52,99.42s-3.49.79-4.93-2.33"/><path class="cls-10" d="M71.47,79.82S81,75.6,87.29,81.17c0,0,2.47-7.34-6-9.84s-17,5.93-17,5.93Z"/><path class="cls-10" d="M71.47,79.82s-5.55,5.48-4.75,16.4S66.47,114,64.3,120.86s3.51,8.87,3.51,8.87-6.47,1.6-7.8-5.33c-.88-4.54,1.2-14.38.16-26.1S63.25,78.29,71.47,79.82Z"/></g><g id="freepik--Clipboard--inject-93"><path class="cls-13" d="M225.92,55.49a9.2,9.2,0,1,0,9.2,9.2,9.2,9.2,0,0,0-9.2-9.2Zm0,8.31a2.67,2.67,0,1,1,2.67-2.67,2.68,2.68,0,0,1-2.67,2.67Z"/><path class="cls-14" d="M225.92,55.49a9.2,9.2,0,1,0,9.2,9.2,9.2,9.2,0,0,0-9.2-9.2Zm0,8.31a2.67,2.67,0,1,1,2.67-2.67,2.68,2.68,0,0,1-2.67,2.67Z"/><rect class="cls-13" x="127.39" y="67.57" width="197.05" height="286.3" rx="7.49"/><rect class="cls-21" x="137.82" y="84.21" width="176.19" height="256.04"/><rect class="cls-13" x="177.13" y="65.13" width="97.58" height="15.88" rx="1.93"/><rect class="cls-22" x="177.13" y="65.13" width="97.58" height="15.88" rx="1.93"/><path class="cls-10" d="M262,95.76H233.75a3.16,3.16,0,0,1-2.82-1.64,5.67,5.67,0,0,0-10,0,3.14,3.14,0,0,1-2.82,1.64H189.84a3,3,0,0,1-3-3V75.91a3,3,0,0,1,3-3H262a3,3,0,0,1,3,3v16.8A3,3,0,0,1,262,95.76Zm-36.07-6.65a7.62,7.62,0,0,1,6.77,4.07,1.21,1.21,0,0,0,1.06.58H262a1,1,0,0,0,1-1V75.91a1,1,0,0,0-1-1H189.84a1,1,0,0,0-1,1v16.8a1,1,0,0,0,1,1H218.1a1.17,1.17,0,0,0,1.05-.58,7.67,7.67,0,0,1,6.77-4Z"/><g class="cls-23"><path class="cls-18" d="M262,95.76H233.75a3.16,3.16,0,0,1-2.82-1.64,5.67,5.67,0,0,0-10,0,3.14,3.14,0,0,1-2.82,1.64H189.84a3,3,0,0,1-3-3V75.91a3,3,0,0,1,3-3H262a3,3,0,0,1,3,3v16.8A3,3,0,0,1,262,95.76Zm-36.07-6.65a7.62,7.62,0,0,1,6.77,4.07,1.21,1.21,0,0,0,1.06.58H262a1,1,0,0,0,1-1V75.91a1,1,0,0,0-1-1H189.84a1,1,0,0,0-1,1v16.8a1,1,0,0,0,1,1H218.1a1.17,1.17,0,0,0,1.05-.58,7.67,7.67,0,0,1,6.77-4Z"/></g><rect class="cls-13" x="193" y="69.98" width="65.87" height="6.82" rx="1.16"/><rect class="cls-14" x="192.97" y="69.98" width="65.87" height="6.82" rx="1.16"/><rect class="cls-24" x="224.48" y="224.05" width="17.8" height="17.8"/><path class="cls-24" d="M240.2,249H226.56a2.08,2.08,0,0,1-2.08-2.08h0a2.09,2.09,0,0,1,2.08-2.07H240.2a2.08,2.08,0,0,1,2.08,2.07h0A2.08,2.08,0,0,1,240.2,249Z"/><rect class="cls-24" x="249.8" y="224.05" width="49.58" height="3.81" rx="1.9"/><rect class="cls-24" x="249.8" y="234.05" width="39.58" height="3.81" rx="1.9"/><rect class="cls-24" x="249.8" y="244.05" width="49.58" height="3.81" rx="1.9"/><rect class="cls-24" x="249.8" y="254.05" width="23.58" height="3.81" rx="1.9"/><path class="cls-24" d="M278.53,110.58H172.81a3.47,3.47,0,0,1-3.45-3.45h0a3.45,3.45,0,0,1,3.45-3.45H278.53a3.44,3.44,0,0,1,3.45,3.45h0A3.46,3.46,0,0,1,278.53,110.58Z"/><path class="cls-24" d="M296.16,131H226.38a1.91,1.91,0,0,1-1.9-1.91h0a1.91,1.91,0,0,1,1.9-1.9h69.78a1.9,1.9,0,0,1,1.9,1.9h0A1.91,1.91,0,0,1,296.16,131Z"/><path class="cls-24" d="M286.16,141H226.38a1.91,1.91,0,0,1-1.9-1.91h0a1.91,1.91,0,0,1,1.9-1.9h59.78a1.9,1.9,0,0,1,1.9,1.9h0A1.91,1.91,0,0,1,286.16,141Z"/><path class="cls-24" d="M296.16,151H226.38a1.91,1.91,0,0,1-1.9-1.91h0a1.91,1.91,0,0,1,1.9-1.9h69.78a1.9,1.9,0,0,1,1.9,1.9h0A1.91,1.91,0,0,1,296.16,151Z"/><path class="cls-24" d="M276.16,161H226.38a1.91,1.91,0,0,1-1.9-1.91h0a1.91,1.91,0,0,1,1.9-1.9h49.78a1.9,1.9,0,0,1,1.9,1.9h0A1.91,1.91,0,0,1,276.16,161Z"/><polygon class="cls-24" points="229.47 172.92 230.57 175.14 233.03 175.5 231.25 177.23 231.67 179.68 229.47 178.52 227.28 179.68 227.7 177.23 225.92 175.5 228.37 175.14 229.47 172.92"/><polygon class="cls-24" points="241.89 172.92 242.99 175.14 245.44 175.5 243.66 177.23 244.08 179.68 241.89 178.52 239.69 179.68 240.11 177.23 238.33 175.5 240.79 175.14 241.89 172.92"/><polygon class="cls-24" points="254.3 172.92 255.4 175.14 257.86 175.5 256.08 177.23 256.5 179.68 254.3 178.52 252.1 179.68 252.52 177.23 250.75 175.5 253.2 175.14 254.3 172.92"/><polygon class="cls-24" points="266.72 172.92 267.81 175.14 270.27 175.5 268.49 177.23 268.91 179.68 266.72 178.52 264.52 179.68 264.94 177.23 263.16 175.5 265.62 175.14 266.72 172.92"/><polygon class="cls-24" points="279.13 172.92 280.23 175.14 282.68 175.5 280.91 177.23 281.33 179.68 279.13 178.52 276.93 179.68 277.35 177.23 275.58 175.5 278.03 175.14 279.13 172.92"/><polygon class="cls-24" points="229.47 185.66 230.57 187.88 233.03 188.24 231.25 189.97 231.67 192.42 229.47 191.26 227.28 192.42 227.7 189.97 225.92 188.24 228.37 187.88 229.47 185.66"/><polygon class="cls-24" points="241.89 185.66 242.99 187.88 245.44 188.24 243.66 189.97 244.08 192.42 241.89 191.26 239.69 192.42 240.11 189.97 238.33 188.24 240.79 187.88 241.89 185.66"/><polygon class="cls-24" points="254.3 185.66 255.4 187.88 257.86 188.24 256.08 189.97 256.5 192.42 254.3 191.26 252.1 192.42 252.52 189.97 250.75 188.24 253.2 187.88 254.3 185.66"/><polygon class="cls-25" points="266.72 185.66 267.81 187.88 270.27 188.24 268.49 189.97 268.91 192.42 266.72 191.26 264.52 192.42 264.94 189.97 263.16 188.24 265.62 187.88 266.72 185.66"/><polygon class="cls-25" points="279.13 185.66 280.23 187.88 282.68 188.24 280.91 189.97 281.33 192.42 279.13 191.26 276.93 192.42 277.35 189.97 275.58 188.24 278.03 187.88 279.13 185.66"/><polygon class="cls-24" points="229.47 198.4 230.57 200.62 233.03 200.98 231.25 202.71 231.67 205.16 229.47 204 227.28 205.16 227.7 202.71 225.92 200.98 228.37 200.62 229.47 198.4"/><polygon class="cls-24" points="241.89 198.4 242.99 200.62 245.44 200.98 243.66 202.71 244.08 205.16 241.89 204 239.69 205.16 240.11 202.71 238.33 200.98 240.79 200.62 241.89 198.4"/><polygon class="cls-24" points="254.3 198.4 255.4 200.62 257.86 200.98 256.08 202.71 256.5 205.16 254.3 204 252.1 205.16 252.52 202.71 250.75 200.98 253.2 200.62 254.3 198.4"/><polygon class="cls-24" points="266.72 198.4 267.81 200.62 270.27 200.98 268.49 202.71 268.91 205.16 266.72 204 264.52 205.16 264.94 202.71 263.16 200.98 265.62 200.62 266.72 198.4"/><polygon class="cls-25" points="279.13 198.4 280.23 200.62 282.68 200.98 280.91 202.71 281.33 205.16 279.13 204 276.93 205.16 277.35 202.71 275.58 200.98 278.03 200.62 279.13 198.4"/><rect class="cls-24" x="224.48" y="274.05" width="17.8" height="17.8"/><path class="cls-24" d="M240.2,299H226.56a2.08,2.08,0,0,1-2.08-2.08h0a2.09,2.09,0,0,1,2.08-2.07H240.2a2.08,2.08,0,0,1,2.08,2.07h0A2.08,2.08,0,0,1,240.2,299Z"/><rect class="cls-24" x="249.8" y="274.05" width="49.58" height="3.81" rx="1.9"/><rect class="cls-24" x="249.8" y="284.05" width="39.58" height="3.81" rx="1.9"/><rect class="cls-24" x="249.8" y="294.05" width="49.58" height="3.81" rx="1.9"/><rect class="cls-24" x="249.8" y="304.05" width="23.58" height="3.81" rx="1.9"/><rect class="cls-18" x="148.94" y="127.19" width="64.18" height="85.22"/><rect class="cls-13" x="151.94" y="130.19" width="58.18" height="79.22"/><rect class="cls-22" x="151.94" y="130.19" width="58.18" height="79.22"/><path class="cls-13" d="M210.12,191.71v17.7H205.6a23.23,23.23,0,0,0-4.11-3.13,9.46,9.46,0,0,0-2.28-1c-6.79-1.84,3-20,3-20h0C204.47,186,207.28,188.56,210.12,191.71Z"/><path class="cls-14" d="M210.12,191.71v17.7H205.6a23.23,23.23,0,0,0-4.11-3.13,9.46,9.46,0,0,0-2.28-1c-6.79-1.84,3-20,3-20h0C204.47,186,207.28,188.56,210.12,191.71Z"/><path class="cls-15" d="M210.12,209.35v.06H205.6a23.23,23.23,0,0,0-4.11-3.13l1.34-8.37a19.32,19.32,0,0,1,3.45,3.72h0A25.49,25.49,0,0,1,210.12,209.35Z"/><path class="cls-10" d="M197.66,184.55c-.14.72-.28,1.45-.44,2.17s-.38,1.71-.59,2.56c-2.18,8.77-5.78,16.45-10.94,20.13H168.05c-5.13-2.61-6.11-7-5.94-11.6.11-3.11.75-6.28,1-9a16.6,16.6,0,0,0,0-2.82c-.13-1.42-.4-3.13-.73-5-1.53-8.71-4.52-21.28-3-27.73,1.81-7.84,7.53-10,7.53-10s1.94-.13,4.92-.11c2.2,0,5,.11,7.93.39H180a58.14,58.14,0,0,1,9.73,1.72l.73.21c.63.19,1.26.39,1.87.61h0c.4.14.79.29,1.18.45h0a3.8,3.8,0,0,1,1.34.93C199.35,152.11,200.47,169.16,197.66,184.55Z"/><path class="cls-11" d="M192.39,147.5c6.35-3,9.09,17.71,6.82,32.66"/><path class="cls-13" d="M206.76,209.41H161.12c-.19-.86-.38-1.72-.58-2.57a102.33,102.33,0,0,0-4.47-14.62h0a42.82,42.82,0,0,1,5.84-2.89c.38-.17.77-.33,1.19-.49,1.58-.63,3.42-1.28,5.48-1.9l.66-.19c1.55-.45,3.22-.87,5-1.24h0a70.29,70.29,0,0,1,11.28-1.42h0a67.63,67.63,0,0,1,8.66.14h0c1.13.08,2.28.19,3.45.34,1.47.18,3,.41,4.51.7h0c.17.27,3,4.69,4.1,16.37h0C206.52,203.94,206.69,206.52,206.76,209.41Z"/><path class="cls-13" d="M168.84,195.85s-5.22-12.86,11.08-14.31,19.55,8.71,19.55,8.71l-7.57-2.62-4,18.45a30.21,30.21,0,0,0-14.28-16.37Z"/><path class="cls-14" d="M168.84,195.85s-5.22-12.86,11.08-14.31,19.55,8.71,19.55,8.71l-7.57-2.62-4,18.45a30.21,30.21,0,0,0-14.28-16.37Z"/><path class="cls-12" d="M187.22,197.91a67.07,67.07,0,0,0-14.17-11.2c3.9-3.3,3.5-8.5,2.72-11.77a17.6,17.6,0,0,0-1-3l10.83,2.62a33.71,33.71,0,0,0-.67,4.58,14.33,14.33,0,0,0,.13,3.4c.57,3.31,2.43,3.45,2.43,3.45C189.26,189.71,187.22,197.91,187.22,197.91Z"/><path class="cls-15" d="M185,179.13a14.33,14.33,0,0,0,.13,3.4c-4.31-.8-7.42-4.45-9.33-7.57a17.6,17.6,0,0,0-1-3l10.83,2.62A33.19,33.19,0,0,0,185,179.13Z"/><path class="cls-12" d="M181.54,143.49c11.79,0,12.78,5.7,13.46,15.52.84,12.28-1.9,21-13.81,18.34C165,173.76,165.71,143.49,181.54,143.49Z"/><path class="cls-19" d="M188.84,158.47a20.78,20.78,0,0,0,2.76,4,2.59,2.59,0,0,1-2.51,1.08Z"/><path class="cls-10" d="M183,157.71c0,.79-.39,1.43-.92,1.44s-1-.61-1-1.4.39-1.42.91-1.43S183,156.89,183,157.71Z"/><path class="cls-10" d="M181.82,156.32l1.69-.71S182.69,157.06,181.82,156.32Z"/><path class="cls-10" d="M192.74,157.3c0,.79-.39,1.43-.92,1.44s-1-.61-1-1.4.39-1.42.91-1.43S192.72,156.52,192.74,157.3Z"/><path class="cls-10" d="M191.55,156l1.68-.7S192.47,156.71,191.55,156Z"/><path class="cls-20" d="M182.93,151.09s-2.68-.35-4.14,1.43"/><path class="cls-20" d="M189.86,150.71a4.43,4.43,0,0,1,3.79.79"/><path class="cls-10" d="M171.29,160.1s4.47-7.82,3.81-13.87c0,0,6.72-6.93,15.77-.08,0,0,3.79,6.52,4,11.58,0,0,1.88-17-14.5-17.43S164,163.85,172.47,171C172.47,171,168.52,165,171.29,160.1Z"/><path class="cls-12" d="M172.84,162.11a4.19,4.19,0,0,0-4.49-3.83c-3,.32-4.38,6.38,3,7.85C172.37,166.34,173,165.31,172.84,162.11Z"/><path class="cls-20" d="M187.8,168.71s-4,.9-5.65-2.67"/><path class="cls-10" d="M175.1,146.23s10.89-4.83,18.1,1.55c0,0,2.83-8.4-6.83-11.27s-19.48,6.79-19.48,6.79Z"/><path class="cls-10" d="M175.1,146.23s-6.36,6.27-5.44,18.76-.29,20.39-2.77,28.21,4,10.15,4,10.15-7.4,1.82-8.92-6.1c-1-5.2,1.38-16.46.18-29.87S165.74,144.48,175.1,146.23Z"/><path class="cls-15" d="M163.23,209.41h-2.11c-.19-.86-.38-1.72-.58-2.57l1.59-1.39h0A32.3,32.3,0,0,1,163.23,209.41Z"/><path class="cls-13" d="M162.14,209.41h-10.2v-14a26.26,26.26,0,0,1,4.12-3.17h0a9.22,9.22,0,0,1,5.55,7.2,46.4,46.4,0,0,1,.51,6C162.17,206.87,162.16,208.24,162.14,209.41Z"/><path class="cls-14" d="M162.14,209.41h-10.2v-14a26.26,26.26,0,0,1,4.12-3.17h0a9.22,9.22,0,0,1,5.55,7.2,46.4,46.4,0,0,1,.51,6C162.17,206.87,162.16,208.24,162.14,209.41Z"/><rect class="cls-24" x="148.94" y="222.34" width="64.18" height="85.1"/><path class="cls-26" d="M202.33,235.53H158.56a1.91,1.91,0,0,1-1.9-1.91h0a1.91,1.91,0,0,1,1.9-1.9h43.77a1.89,1.89,0,0,1,1.91,1.89h0a1.91,1.91,0,0,1-1.91,1.91Z"/><rect class="cls-26" x="156.66" y="242.36" width="47.58" height="3.81" rx="1.9"/><path class="cls-26" d="M182.33,256.82H158.56a1.91,1.91,0,0,1-1.9-1.91h0a1.91,1.91,0,0,1,1.9-1.9h23.77a1.89,1.89,0,0,1,1.91,1.89h0a1.91,1.91,0,0,1-1.91,1.91Z"/><path class="cls-26" d="M202.33,267.46H158.56a1.91,1.91,0,0,1-1.9-1.9h0a1.91,1.91,0,0,1,1.9-1.91h43.77a1.91,1.91,0,0,1,1.91,1.91h0a1.9,1.9,0,0,1-1.9,1.9Z"/><path class="cls-26" d="M202.33,278.1H158.56a1.91,1.91,0,0,1-1.9-1.9h0a1.91,1.91,0,0,1,1.9-1.9h43.77a1.89,1.89,0,0,1,1.91,1.89h0a1.9,1.9,0,0,1-1.9,1.9Z"/><path class="cls-26" d="M172.33,288.71H158.56a1.91,1.91,0,0,1-1.9-1.9h0a1.91,1.91,0,0,1,1.89-1.91h13.78a1.89,1.89,0,0,1,1.91,1.89v0h0a1.9,1.9,0,0,1-1.9,1.9Z"/><path class="cls-26" d="M192.33,299.39H158.56a1.91,1.91,0,0,1-1.9-1.9h0a1.91,1.91,0,0,1,1.9-1.9h33.77a1.89,1.89,0,0,1,1.91,1.89h0a1.9,1.9,0,0,1-1.9,1.9Z"/></g><g id="freepik--Plant--inject-93"><path class="cls-10" d="M356,291.6a5.71,5.71,0,0,0-5.23.51c-4.85,2.77-6.88,14.15-7.73,23,.31-12.55,2.37-29.91,10.6-39.36l-.75-.65c-6.89,7.9-9.57,20.86-10.5,32.23-.13-4.84-.43-10.08-1.07-15.07.22-10.71,1.15-20.43,3.6-23.74l-.81-.6c-2.16,2.92-3.2,10.34-3.62,19-1.23-6.49-3.19-12-6.26-14.83l-.67.73c3.66,3.37,5.68,11.06,6.74,19.56,0,1.2,0,2.42-.05,3.64-.95-5-2.23-9.11-3.92-10.76-5.7-5.54-12.4-.08-12.46,0l.64.76c.24-.2,6.07-4.93,11.12,0,2.22,2.15,3.69,9.18,4.65,16.6.13,8.89.57,17.25.87,22.11a10.37,10.37,0,0,1-.07,1.25h.15c.11,1.68.19,2.76.21,3l.88-.07a8.14,8.14,0,0,0,.1,1.15l1-.09c0-.08-.15-1.56-.26-4h.31c0-.28.33-28.7,7.85-33a4.74,4.74,0,0,1,4.35-.45c4.4,1.82,6.75,10.24,6.77,10.33l1-.27C363.25,302.22,360.86,293.61,356,291.6Z"/><path class="cls-10" d="M330,292.51c-4.37.31-7.75,6.22-7.9,6.47l.88.49c0-.06,3.26-5.69,7.09-6,1.61-.1,3.14.77,4.56,2.61,5.9,7.71,4.71,29.61,4.7,29.83l1,.06c0-.92,1.22-22.5-4.91-30.49C333.78,293.38,332,292.37,330,292.51Z"/><g class="cls-23"><path class="cls-18" d="M356,291.6a5.71,5.71,0,0,0-5.23.51c-4.85,2.77-6.88,14.15-7.73,23,.31-12.55,2.37-29.91,10.6-39.36l-.75-.65c-6.89,7.9-9.57,20.86-10.5,32.23-.13-4.84-.43-10.08-1.07-15.07.22-10.71,1.15-20.43,3.6-23.74l-.81-.6c-2.16,2.92-3.2,10.34-3.62,19-1.23-6.49-3.19-12-6.26-14.83l-.67.73c3.66,3.37,5.68,11.06,6.74,19.56,0,1.2,0,2.42-.05,3.64-.95-5-2.23-9.11-3.92-10.76-5.7-5.54-12.4-.08-12.46,0l.64.76c.24-.2,6.07-4.93,11.12,0,2.22,2.15,3.69,9.18,4.65,16.6.13,8.89.57,17.25.87,22.11a10.37,10.37,0,0,1-.07,1.25h.15c.11,1.68.19,2.76.21,3l.88-.07a8.14,8.14,0,0,0,.1,1.15l1-.09c0-.08-.15-1.56-.26-4h.31c0-.28.33-28.7,7.85-33a4.74,4.74,0,0,1,4.35-.45c4.4,1.82,6.75,10.24,6.77,10.33l1-.27C363.25,302.22,360.86,293.61,356,291.6Z"/><path class="cls-18" d="M330,292.51c-4.37.31-7.75,6.22-7.9,6.47l.88.49c0-.06,3.26-5.69,7.09-6,1.61-.1,3.14.77,4.56,2.61,5.9,7.71,4.71,29.61,4.7,29.83l1,.06c0-.92,1.22-22.5-4.91-30.49C333.78,293.38,332,292.37,330,292.51Z"/></g><path class="cls-10" d="M357.74,296.76s-3.91,1.44-2.75,4.85,13.54,9,13.54,9,5.19-4.75.43-12.48S357.85,294.32,357.74,296.76Z"/><path class="cls-10" d="M340.72,290.27s4.17-.18,4.41,3.42-9,13.53-9,13.53-6.62-2.39-5.2-11.36S339.69,288.06,340.72,290.27Z"/><path class="cls-10" d="M337.19,273.07s2.78-.3,2.56-2-10.81-6.05-17,1c0,0,4,6.86,9.78,6.95S337.19,273.07,337.19,273.07Z"/><path class="cls-10" d="M342.37,269s-2.51,1.22-3.22-.34,6-10.85,15-8.17c0,0,.24,7.94-4.61,11.07S342.37,269,342.37,269Z"/><path class="cls-10" d="M329.21,295.39s1.92-1.55-.15-2.31-12.23-.54-12.33,9.52c0,0,11.83,2,13.29-1.86S329.21,295.39,329.21,295.39Z"/><path class="cls-10" d="M353.34,272.82s-1.92-1.55.15-2.31,12.23-.54,12.33,9.52c0,0-11.83,2-13.29-1.86S353.34,272.82,353.34,272.82Z"/><path class="cls-10" d="M347.08,280.92s-.17-1.88,1.35-1.14,6.82,6.45,1.33,11.87c0,0-7.39-5.47-6.06-8.32S347.08,280.92,347.08,280.92Z"/><path class="cls-10" d="M327.47,283.61s1.14-1.51-.53-1.69-9.21,1.82-7.46,9.33c0,0,9.17-.69,9.56-3.81S327.47,283.61,327.47,283.61Z"/><polygon class="cls-13" points="358.47 353.87 327.01 353.87 323.62 319.43 361.87 319.43 358.47 353.87"/><polygon class="cls-17" points="358.47 353.87 327.01 353.87 323.62 319.43 361.87 319.43 358.47 353.87"/><rect class="cls-13" x="321.94" y="315.63" width="41.61" height="7.6"/><rect class="cls-27" x="321.94" y="315.63" width="41.61" height="7.6"/></g></g></g></svg>