<svg xmlns="http://www.w3.org/2000/svg" viewBox="0 0 195.99 242.52"><defs><style>.cls-1{fill:#e4897b;}.cls-2{fill:#6c48ef;}.cls-3,.cls-5{fill:#fafafa;}.cls-3{opacity:0.6;}.cls-10,.cls-3,.cls-7,.cls-9{isolation:isolate;}.cls-4{fill:#263238;}.cls-6{fill:#ce6f64;}.cls-7{opacity:0.3;}.cls-8{fill:#de5753;}.cls-9{fill:#f07860;opacity:0.95;}.cls-10{opacity:0.2;}</style></defs><title>dataRecurso 1</title><g id="Capa_2" data-name="Capa 2"><g id="Capa_1-2" data-name="Capa 1"><path class="cls-1" d="M121.26,93.29l.65.55c.24.21.51.41.77.61.52.41,1,.82,1.6,1.21,1.08.79,2.23,1.51,3.38,2.23a50.75,50.75,0,0,0,7.27,3.71,55.45,55.45,0,0,0,7.73,2.64c.66.18,1.34.3,2,.45l1,.22c.21,0,0,0,0,0a1,1,0,0,0-.38.17c-.09.09-.09.09-.05.07a3.63,3.63,0,0,0,.46-1,15.86,15.86,0,0,0,.65-3.55c.12-1.31.16-2.69.15-4.08,0-2.79-.22-5.64-.44-8.5s-.57-5.73-.94-8.61-.78-5.76-1.21-8.6l3.76-.86a158.71,158.71,0,0,1,4,17.36,85,85,0,0,1,1.09,9,45.7,45.7,0,0,1,.11,4.68,21.49,21.49,0,0,1-.65,5.11,9.8,9.8,0,0,1-1.36,3,6.4,6.4,0,0,1-1.59,1.61,5.81,5.81,0,0,1-2.39,1,7,7,0,0,1-2.24,0l-1.15-.19c-.77-.13-1.55-.23-2.31-.4a56.08,56.08,0,0,1-9-2.58,57.55,57.55,0,0,1-8.45-4.06c-1.35-.81-2.67-1.66-4-2.59-.64-.46-1.27-1-1.9-1.44-.31-.26-.62-.51-.93-.79s-.6-.51-1-.89Z"/><path class="cls-2" d="M110.39,88.74c11-1.49,19.84,7.38,19.84,7.38l-10.06,15.52s-10.78-6.9-12.68-11.6C105.53,95.15,104.76,89.47,110.39,88.74Z"/><path class="cls-3" d="M110.39,88.74c11-1.49,19.84,7.38,19.84,7.38l-10.06,15.52s-10.78-6.9-12.68-11.6C105.53,95.15,104.76,89.47,110.39,88.74Z"/><path class="cls-1" d="M144,72.26l-3.65-7.32,9.57-.08s.19,5.11-2.23,8Z"/><polygon class="cls-1" points="142.04 57.07 149.16 58.34 149.91 64.86 140.34 64.94 142.04 57.07"/><path class="cls-4" d="M121.23,82.53c-.07-7.27-6.65-9.81-6.65-9.81s8.23-15.58,4-25.92S100.41,34.64,96,39.47C88.22,39.14,85.75,50.3,85.75,50.3s-6.5,1.09-8.25,5.82,3.58,10.06,3.58,10.06-7.42,1-10.15,6.71-1.05,13.29,7.15,19.83c11.92,9.5,33.83-2.42,33.83-2.42S121.31,90.89,121.23,82.53Z"/><path class="cls-2" d="M119.82,89.76s4,1.75-9.36,54.52l-37-3.21c1.92-15,2.75-24.32-1.78-55.88a109.86,109.86,0,0,1,15.91-.71,118.58,118.58,0,0,1,16.82,1.45Q112.21,87.46,119.82,89.76Z"/><path class="cls-3" d="M119.82,89.76s4,1.75-9.36,54.52l-37-3.21c1.92-15,2.75-24.32-1.78-55.88a109.86,109.86,0,0,1,15.91-.71,118.58,118.58,0,0,1,16.82,1.45Q112.21,87.46,119.82,89.76Z"/><path class="cls-5" d="M110.23,87.18c-1.92-.46-4-.9-5.9-1.25a120.08,120.08,0,0,0-16.82-1.46c-1.93-.07-3.86-.07-5.67,0l1.24,2.36c.22.42,5.5,10.27,15.53,15.86l2.76,1.54,2.57-1.83C110.42,97.77,111.38,91.75,110.23,87.18Z"/><path class="cls-1" d="M90.82,65.68c.59,5.51.79,15.52-3.3,18.8,0,0,4.68,8.89,13.54,13.82,7.84-5.58,3.28-12.37,3.28-12.37-5.91-2-5.37-6.42-4-10.54Z"/><path class="cls-6" d="M94.71,69.64l5.66,5.75a17.7,17.7,0,0,0-.78,2.94C97.32,77.8,94,75.43,94,73A9.92,9.92,0,0,1,94.71,69.64Z"/><path class="cls-1" d="M90.58,53.18c-1.09,9-1.74,12.81,1.93,18.22,5.52,8.12,16.84,7.48,20.59-1,3.38-7.66,4.59-21.12-3.5-26.27a12.39,12.39,0,0,0-19,9Z"/><path class="cls-4" d="M97.56,42.09c7,1.8.08,22.94-11,16.81,0,0,.5-8.93,3.58-12.72A11.5,11.5,0,0,1,97.56,42.09Z"/><path class="cls-4" d="M96.82,43.26c3,4.88,25.25,14.13,17.77,3.63S96.82,43.26,96.82,43.26Z"/><path class="cls-1" d="M87.72,61a6.71,6.71,0,0,0,1.59,4.82c1.54,1.75,3.57.69,4.21-1.43.57-1.9.46-5.1-1.59-6.08a3,3,0,0,0-4,1.53A3.1,3.1,0,0,0,87.72,61Z"/><path class="cls-2" d="M73,138.85l-2,3.17c-.16.25.13.54.55.57L110.46,146c.34,0,.63-.11.67-.32l.62-3.28c0-.23-.23-.45-.6-.48l-37.51-3.25A.68.68,0,0,0,73,138.85Z"/><path class="cls-7" d="M73,138.85l-2,3.17c-.16.25.13.54.55.57L110.46,146c.34,0,.63-.11.67-.32l.62-3.28c0-.23-.23-.45-.6-.48l-37.51-3.25A.68.68,0,0,0,73,138.85Z"/><path class="cls-4" d="M77.69,143.47l-1-.09c-.2,0-.34-.13-.32-.26l.85-4.26c0-.13.21-.22.41-.2l1,.09c.2,0,.34.13.32.26l-.84,4.26C78.07,143.41,77.89,143.47,77.69,143.47Z"/><path class="cls-4" d="M107.61,146.07l-1-.09c-.2,0-.34-.13-.32-.26l.85-4.27c0-.12.21-.21.41-.19l1,.09c.2,0,.34.13.32.25l-.84,4.27C108,146,107.82,146.08,107.61,146.07Z"/><path class="cls-4" d="M92.65,144.77l-1-.08c-.2,0-.34-.14-.32-.26l.85-4.27c0-.12.21-.21.41-.19l1,.08c.2,0,.34.14.32.26l-.84,4.27A.42.42,0,0,1,92.65,144.77Z"/><path class="cls-4" d="M103.65,58.15c-.13.72.15,1.38.62,1.47s1-.43,1.1-1.16-.14-1.39-.62-1.47S103.82,57.47,103.65,58.15Z"/><path class="cls-4" d="M111.82,59.65c-.13.72.15,1.38.62,1.47s1-.43,1.1-1.16-.14-1.39-.62-1.47S112,58.92,111.82,59.65Z"/><path class="cls-4" d="M112.75,58.47l1.83-.18S113.44,59.47,112.75,58.47Z"/><path class="cls-8" d="M109.46,60.47a20.19,20.19,0,0,0,1.75,5.11,3.14,3.14,0,0,1-2.68,0Z"/><path class="cls-4" d="M105.49,68h0a6.18,6.18,0,0,1-4.58-3.35.19.19,0,0,1,.1-.23.18.18,0,0,1,.23.08h0a5.89,5.89,0,0,0,4.31,3.13.18.18,0,0,1,0,.36Z"/><path class="cls-4" d="M101.7,52.47a.37.37,0,0,1-.37-.35.38.38,0,0,1,.15-.3,4.22,4.22,0,0,1,3.81-.77.36.36,0,0,1,.22.46h0a.36.36,0,0,1-.46.22h0a3.5,3.5,0,0,0-3.13.66A.35.35,0,0,1,101.7,52.47Z"/><path class="cls-4" d="M116.5,56.89a.37.37,0,0,1-.28-.13,3.55,3.55,0,0,0-2.9-1.37.37.37,0,0,1-.4-.32.35.35,0,0,1,.31-.39h0a4.2,4.2,0,0,1,3.54,1.62.36.36,0,0,1,0,.51A.4.4,0,0,1,116.5,56.89Z"/><path class="cls-1" d="M74.41,98.47a89.07,89.07,0,0,1-5,8.68c-1.8,2.76-3.7,5.46-5.75,8.06A85.42,85.42,0,0,1,57,122.66c-1.22,1.15-2.41,2.32-3.72,3.4l-1,.82-.24.2-.32.25a8,8,0,0,1-.66.48,12.48,12.48,0,0,1-2.94,1.48A15,15,0,0,1,42,130a23.28,23.28,0,0,1-5.4-1.19,42,42,0,0,1-9.19-4.53A84.7,84.7,0,0,1,12.31,111.7L15,108.91c2.39,1.92,4.91,3.83,7.49,5.56a76.68,76.68,0,0,0,7.88,4.84,41.65,41.65,0,0,0,8.16,3.41c2.7.75,5.41.88,7.28.1a8,8,0,0,0,2.77-2c1.11-1,2.14-2.11,3.19-3.19,2-2.23,3.95-4.62,5.82-7a90.06,90.06,0,0,0,5.2-7.6c.83-1.3,1.62-2.62,2.4-3.94s1.53-2.71,2.18-4Z"/><path class="cls-1" d="M17.5,110.1l-3.56-7.36L8,110.26s3.92,3.27,7.73,3.15Z"/><polygon class="cls-1" points="10.05 100.59 6.7 107 8.02 110.26 13.94 102.74 10.05 100.59"/><path class="cls-2" d="M71.6,85.19C67.06,86,60.69,99,60.69,99l12.47,11.27s8.08-10.85,7.6-16.77C80.35,88.47,77.38,84.17,71.6,85.19Z"/><path class="cls-3" d="M71.6,85.19C67.06,86,60.69,99,60.69,99l12.47,11.27s8.08-10.85,7.6-16.77C80.35,88.47,77.38,84.17,71.6,85.19Z"/><path class="cls-4" d="M104.54,57l1.83-.19S105.23,58,104.54,57Z"/><path class="cls-9" d="M29.31,0,0,189.47,164.92,215,194.23,25.47ZM97.07,107.77a38.72,38.72,0,1,1,44.19-32.34v0A38.72,38.72,0,0,1,97.07,107.77Z"/><path class="cls-5" d="M103,109.73a39.79,39.79,0,0,1-6.17-.48h0a40.16,40.16,0,1,1,6.17.48Zm-5.71-3.44A37.21,37.21,0,1,0,66.21,63.82,37.21,37.21,0,0,0,97.3,106.29Z"/><rect class="cls-2" x="42.29" y="102.38" width="8.26" height="36.76" transform="translate(-80.02 148.18) rotate(-81.21)"/><rect class="cls-3" x="42.29" y="102.38" width="8.26" height="36.76" transform="translate(-80.02 148.18) rotate(-81.21)"/><rect class="cls-2" x="77.53" y="113.78" width="8.26" height="24.87" transform="translate(-55.55 187.63) rotate(-81.21)"/><rect class="cls-3" x="77.53" y="113.78" width="8.26" height="24.87" transform="translate(-55.55 187.63) rotate(-81.21)"/><rect class="cls-5" x="87.24" y="78.19" width="8.26" height="132.93" transform="translate(-65.54 212.85) rotate(-81.21)"/><rect class="cls-5" x="52.56" y="123.63" width="8.27" height="66.19" transform="translate(-106.75 189.3) rotate(-81.38)"/><rect class="cls-5" x="117.23" y="144.95" width="8.26" height="44.22" transform="translate(-62.28 261.47) rotate(-81.21)"/><rect class="cls-5" x="68.71" y="124.2" width="8.26" height="106.27" transform="translate(-113.55 222.22) rotate(-81.21)"/><path class="cls-2" d="M196,215h-1a30,30,0,0,0-.91-7.36l1-.24A30.93,30.93,0,0,1,196,215ZM192.07,202a30.43,30.43,0,0,0-9.67-11.56l.58-.81a31.38,31.38,0,0,1,10,11.92Z"/><path class="cls-3" d="M196,215h-1a30,30,0,0,0-.91-7.36l1-.24A30.93,30.93,0,0,1,196,215ZM192.07,202a30.43,30.43,0,0,0-9.67-11.56l.58-.81a31.38,31.38,0,0,1,10,11.92Z"/><path class="cls-2" d="M164.92,187.38A27.57,27.57,0,1,0,192.49,215a27.57,27.57,0,0,0-27.57-27.57Zm0,51.57a24,24,0,1,1,24-24A24,24,0,0,1,164.92,239Z"/><path class="cls-3" d="M164.92,187.38A27.57,27.57,0,1,0,192.49,215a27.57,27.57,0,0,0-27.57-27.57Zm0,51.57a24,24,0,1,1,24-24A24,24,0,0,1,164.92,239Z"/><circle class="cls-2" cx="164.92" cy="214.95" r="23.99"/><circle class="cls-10" cx="164.92" cy="214.95" r="23.99"/><polygon class="cls-5" points="161.19 230.13 147.11 216.05 150.65 212.52 161.19 223.06 179.2 205.05 182.73 208.59 161.19 230.13"/></g></g></svg>