<svg xmlns="http://www.w3.org/2000/svg" xmlns:xlink="http://www.w3.org/1999/xlink" viewBox="0 0 398.61 360.13"><defs><style>.cls-1{fill:none;}.cls-2{fill:#ebebeb;}.cls-3{fill:#fafafa;}.cls-4{fill:#f5f5f5;}.cls-5{fill:#f0f0f0;}.cls-6{fill:#e0e0e0;}.cls-7{fill:#e6e6e6;}.cls-8{fill:#263238;}.cls-11,.cls-12,.cls-18,.cls-20,.cls-22,.cls-23,.cls-24,.cls-25,.cls-9{fill:#fff;}.cls-27,.cls-32,.cls-9{opacity:0.2;}.cls-11,.cls-12,.cls-13,.cls-15,.cls-17,.cls-18,.cls-19,.cls-20,.cls-23,.cls-24,.cls-25,.cls-27,.cls-30,.cls-9{isolation:isolate;}.cls-10,.cls-15{fill:#6c48ef;}.cls-11,.cls-13{opacity:0.5;}.cls-12,.cls-15,.cls-16,.cls-17{opacity:0.3;}.cls-14{clip-path:url(#clip-path);}.cls-18,.cls-28{opacity:0.6;}.cls-19{opacity:0.1;}.cls-20,.cls-30,.cls-31{opacity:0.4;}.cls-21,.cls-23{opacity:0.8;}.cls-24{opacity:0.9;}.cls-25{opacity:0.7;}.cls-26{fill:#ff8b7b;}.cls-29{fill:#ff5652;}</style><clipPath id="clip-path"><rect class="cls-1" x="342.97" y="212.14" width="25.7" height="12.98"/></clipPath></defs><title>loginRecurso 1</title><g id="Capa_2" data-name="Capa 2"><g id="Capa_1-2" data-name="Capa 1"><g id="freepik--background-complete--inject-44"><rect class="cls-2" x="365.49" y="334.91" width="33.12" height="0.25"/><rect class="cls-2" x="271.24" y="337.63" width="8.69" height="0.25"/><rect class="cls-2" x="345.3" y="325.63" width="19.19" height="0.25"/><rect class="cls-2" x="1.17" y="327.31" width="43.19" height="0.25"/><rect class="cls-2" x="53.27" y="327.31" width="6.33" height="0.25"/><rect class="cls-2" x="80.18" y="331.53" width="93.68" height="0.25"/><rect class="cls-3" x="8.62" y="9.52" width="74.97" height="254.33"/><polygon class="cls-4" points="72.43 9.52 68.05 9.52 41.9 263.85 46.28 263.85 72.43 9.52"/><rect class="cls-2" x="8.14" y="6.3" width="76.23" height="3.45"/><rect class="cls-2" x="8.14" y="263.63" width="76.23" height="4.45"/><path class="cls-5" d="M87.33,273.58H4.71V0H87.35ZM11,267.28H81V6.28H11Z"/><rect class="cls-3" x="99.34" y="9.52" width="74.97" height="254.33"/><polygon class="cls-4" points="153.52 9.52 129.62 9.52 103.47 263.85 127.37 263.85 153.52 9.52"/><rect class="cls-2" x="98.86" y="6.3" width="76.23" height="3.45"/><rect class="cls-2" x="98.86" y="263.63" width="76.23" height="4.45"/><path class="cls-5" d="M178.06,273.58H95.41V0h82.65Zm-76.35-6.3h70.05V6.28h-70Z"/><rect class="cls-3" x="190.07" y="9.52" width="74.97" height="254.33"/><polygon class="cls-4" points="231.35 9.52 226.97 9.52 200.82 263.85 205.21 263.85 231.35 9.52"/><rect class="cls-2" x="189.59" y="6.3" width="76.23" height="3.45"/><rect class="cls-2" x="189.59" y="263.63" width="76.23" height="4.45"/><path class="cls-5" d="M268.78,273.58H186.14V0h82.64Zm-76.34-6.3h70V6.28h-70Z"/><rect class="cls-6" x="300.54" y="61.47" width="70.7" height="81.95" transform="translate(231.69 437.79) rotate(-89.7)"/><rect class="cls-7" x="329.49" y="19.51" width="13.23" height="81.95" transform="translate(273.86 396.28) rotate(-89.7)"/><polygon class="cls-4" points="292.35 135.59 374.3 136.02 377.06 67.31 295.11 66.88 292.35 135.59"/><polygon class="cls-2" points="313.34 83.86 353.9 84.08 354.39 71.98 313.82 71.77 313.34 83.86"/><polygon class="cls-6" points="360.1 99.73 370.94 99.79 371.37 88.95 360.54 88.9 360.1 99.73"/><polygon class="cls-6" points="344.73 99.65 355.57 99.71 356 88.87 345.17 88.82 344.73 99.65"/><polygon class="cls-6" points="359.52 114.34 370.35 114.4 370.78 103.57 359.95 103.51 359.52 114.34"/><polygon class="cls-2" points="358.93 128.95 369.76 129.01 370.2 118.18 359.36 118.12 358.93 128.95"/><polygon class="cls-6" points="344.15 114.26 354.98 114.32 355.42 103.48 344.58 103.43 344.15 114.26"/><polygon class="cls-6" points="328.78 114.18 339.61 114.24 340.05 103.4 329.21 103.35 328.78 114.18"/><polygon class="cls-6" points="313.41 114.1 324.24 114.16 324.68 103.32 313.84 103.27 313.41 114.1"/><polygon class="cls-6" points="298.04 114.02 308.87 114.08 309.31 103.24 298.47 103.19 298.04 114.02"/><polygon class="cls-2" points="343.56 128.87 354.39 128.93 354.83 118.1 343.99 118.04 343.56 128.87"/><polygon class="cls-2" points="328.19 128.79 339.02 128.85 339.46 118.01 328.62 117.96 328.19 128.79"/><polygon class="cls-6" points="312.82 128.71 323.65 128.77 324.09 117.93 313.25 117.88 312.82 128.71"/><polygon class="cls-1" points="329.36 99.57 340.2 99.63 340.63 88.79 329.8 88.74 329.36 99.57"/><polygon class="cls-2" points="329.36 99.57 340.2 99.63 340.63 88.79 329.8 88.74 329.36 99.57"/><polygon class="cls-1" points="313.99 99.49 324.83 99.54 325.26 88.71 314.43 88.66 313.99 99.49"/><polygon class="cls-2" points="313.99 99.49 324.83 99.54 325.26 88.71 314.43 88.66 313.99 99.49"/><polygon class="cls-1" points="298.62 99.41 309.46 99.46 309.89 88.63 299.06 88.57 298.62 99.41"/><polygon class="cls-2" points="298.62 99.41 309.46 99.46 309.89 88.63 299.06 88.57 298.62 99.41"/><polygon class="cls-6" points="297.45 128.63 308.28 128.69 308.72 117.85 297.89 117.8 297.45 128.63"/><path class="cls-7" d="M335.9,50.26A4.74,4.74,0,1,0,340.63,55h0A4.75,4.75,0,0,0,335.9,50.26Zm0,8.33A3.6,3.6,0,1,1,339.49,55v0A3.59,3.59,0,0,1,335.9,58.59Z"/></g><g id="freepik--Shadow--inject-44"><ellipse id="freepik--path--inject-44" class="cls-4" cx="193.89" cy="348.81" rx="193.89" ry="11.32"/></g><g id="freepik--Desk--inject-44"><path class="cls-8" d="M265.07,257.92h58.31s-13.12,3-22.47,4.28v5.32H287.54V262.2C278.19,260.88,265.07,257.92,265.07,257.92Z"/><path class="cls-8" d="M325.06,244.24H313.8a72.63,72.63,0,0,0,0-23.54h11.26A73.2,73.2,0,0,1,325.06,244.24Z"/><rect class="cls-8" x="285.57" y="267.52" width="17.31" height="39.38"/><rect class="cls-9" x="285.57" y="267.52" width="17.31" height="39.38"/><path class="cls-10" d="M343.83,223.42h-48.5a8.85,8.85,0,0,1-9-8.73,9.66,9.66,0,0,1,.16-1.78,427.37,427.37,0,0,0,3.72-52.41,8.78,8.78,0,0,1,8.47-9.08H340a11,11,0,0,1,10.65,9.08,427.5,427.5,0,0,1,4,52.41A10.9,10.9,0,0,1,343.83,223.42Z"/><path class="cls-10" d="M346,212.88A425.54,425.54,0,0,0,342,160.47a11,11,0,0,0-10.65-9.05H299.16a8.78,8.78,0,0,0-8.92,8.63,3.38,3.38,0,0,0,0,.45,427.37,427.37,0,0,1-3.72,52.41,8.84,8.84,0,0,0,7,10.35,8.19,8.19,0,0,0,1.78.16h39.9A10.89,10.89,0,0,0,346,212.88Z"/><path class="cls-11" d="M346,212.88A425.54,425.54,0,0,0,342,160.47a11,11,0,0,0-10.65-9.05H299.16a8.78,8.78,0,0,0-8.92,8.63,3.38,3.38,0,0,0,0,.45,427.37,427.37,0,0,1-3.72,52.41,8.84,8.84,0,0,0,7,10.35,8.19,8.19,0,0,0,1.78.16h39.9A10.89,10.89,0,0,0,346,212.88Z"/><path class="cls-8" d="M323.38,312.42a1.43,1.43,0,0,1-1.44,1.44,1.63,1.63,0,0,1-.31,0c-5.31-1.15-21.2-4.5-27.4-4.5s-22.1,3.35-27.41,4.5a1.44,1.44,0,0,1-1.72-1.1,1.55,1.55,0,0,1,0-.31h0a3.79,3.79,0,0,1,3-3.71c6.21-1.34,20.38-4.24,26.16-4.24s19.94,2.9,26.15,4.24A3.79,3.79,0,0,1,323.38,312.42Z"/><path class="cls-10" d="M265.07,309.48a5,5,0,1,0,5,5A5,5,0,0,0,265.07,309.48Zm0,7.69a2.7,2.7,0,1,1,2.7-2.7,2.7,2.7,0,0,1-2.7,2.7Z"/><path class="cls-10" d="M294.23,309.48a5,5,0,1,0,5,5A5,5,0,0,0,294.23,309.48Zm0,7.69a2.7,2.7,0,1,1,2.7-2.7,2.7,2.7,0,0,1-2.7,2.7Z"/><path class="cls-10" d="M322.78,309.48a5,5,0,1,0,5,5A5,5,0,0,0,322.78,309.48Zm0,7.69a2.7,2.7,0,1,1,2.7-2.7,2.7,2.7,0,0,1-2.7,2.7Z"/><path class="cls-10" d="M309,243.49a396.66,396.66,0,0,1-58.28-2.07,6.27,6.27,0,0,0-7.19,6.38v1a8.27,8.27,0,0,0,7.19,8A398.89,398.89,0,0,0,309,258.85Z"/><path class="cls-11" d="M309,243.49a396.66,396.66,0,0,1-58.28-2.07,6.27,6.27,0,0,0-7.19,6.38v1a8.27,8.27,0,0,0,7.19,8A398.89,398.89,0,0,0,309,258.85Z"/><path class="cls-10" d="M338.08,256.78c-11.12,1-22.09,1.77-33.25,2.22a6.69,6.69,0,0,1-6.85-6.51v-1.91a7,7,0,0,1,6.85-7c11.16-.44,22.13-1.18,33.25-2.22a6,6,0,0,1,6.76,5.13,8.46,8.46,0,0,1,.05.87v1.7A7.85,7.85,0,0,1,338.08,256.78Z"/><polygon class="cls-10" points="368.67 332.75 365.43 332.75 364.56 212.14 368.67 212.14 368.67 332.75"/><polygon class="cls-11" points="368.67 332.75 365.43 332.75 364.56 212.14 368.67 212.14 368.67 332.75"/><polygon class="cls-10" points="371.91 332.75 368.67 332.75 368.67 212.14 372.78 212.14 371.91 332.75"/><polygon class="cls-12" points="371.91 332.75 368.67 332.75 368.67 212.14 372.78 212.14 371.91 332.75"/><polygon class="cls-10" points="179.24 332.75 176 332.75 175.13 212.14 179.24 212.14 179.24 332.75"/><polygon class="cls-11" points="179.24 332.75 176 332.75 175.13 212.14 179.24 212.14 179.24 332.75"/><polygon class="cls-10" points="182.47 332.75 179.24 332.75 179.24 212.14 183.35 212.14 182.47 332.75"/><polygon class="cls-12" points="182.47 332.75 179.24 332.75 179.24 212.14 183.35 212.14 182.47 332.75"/><rect class="cls-8" x="142.16" y="204.26" width="190.73" height="7.87"/><rect class="cls-9" x="142.16" y="204.26" width="190.73" height="7.87"/><rect class="cls-8" x="329.58" y="204.26" width="49.71" height="7.87"/><rect class="cls-13" x="329.58" y="204.26" width="49.71" height="7.87"/><rect class="cls-10" x="153.53" y="212.14" width="189.43" height="12.98"/><rect class="cls-10" x="342.97" y="212.14" width="25.7" height="12.98"/><g class="cls-14"><rect class="cls-15" x="342.97" y="212.14" width="25.7" height="12.98"/></g><g class="cls-16"><rect x="342.97" y="212.14" width="25.7" height="12.98"/><g class="cls-14"><rect class="cls-17" x="342.97" y="212.14" width="25.7" height="12.98"/></g></g><polygon class="cls-10" points="153.53 340.75 150.3 340.75 149.42 212.14 153.53 212.14 153.53 340.75"/><polygon class="cls-11" points="153.53 340.75 150.3 340.75 149.42 212.14 153.53 212.14 153.53 340.75"/><polygon class="cls-10" points="156.77 340.75 153.53 340.75 153.53 212.14 157.64 212.14 156.77 340.75"/><polygon class="cls-12" points="156.77 340.75 153.53 340.75 153.53 212.14 157.64 212.14 156.77 340.75"/><polygon class="cls-10" points="342.97 340.75 339.73 340.75 338.86 212.14 342.97 212.14 342.97 340.75"/><polygon class="cls-11" points="342.97 340.75 339.73 340.75 338.86 212.14 342.97 212.14 342.97 340.75"/><polygon class="cls-10" points="346.2 340.75 342.97 340.75 342.97 212.14 347.08 212.14 346.2 340.75"/><polygon class="cls-12" points="346.2 340.75 342.97 340.75 342.97 212.14 347.08 212.14 346.2 340.75"/><path class="cls-8" d="M274.24,122.76h-5.75l4.22,60.66h5.74a1.59,1.59,0,0,0,1.61-1.55c0-.06,0-.11,0-.17l-4-57.22A1.88,1.88,0,0,0,274.24,122.76Z"/><path class="cls-12" d="M274.24,122.76h-5.75l4.22,60.66h5.74a1.59,1.59,0,0,0,1.61-1.55c0-.06,0-.11,0-.17l-4-57.22A1.88,1.88,0,0,0,274.24,122.76Z"/><path class="cls-8" d="M275.18,183.42H189.11a1.88,1.88,0,0,1-1.85-1.72l-4-57.22a1.57,1.57,0,0,1,1.43-1.71h86.25a1.87,1.87,0,0,1,1.84,1.72l4,57.22a1.58,1.58,0,0,1-1.45,1.71Z"/><path class="cls-18" d="M275.18,183.42H189.11a1.88,1.88,0,0,1-1.85-1.72l-4-57.22a1.57,1.57,0,0,1,1.43-1.71h86.25a1.87,1.87,0,0,1,1.84,1.72l4,57.22a1.58,1.58,0,0,1-1.45,1.71Z"/><path class="cls-19" d="M230,168.76c-12.73.3-40.91,14.66-40.91,14.66h86.07S243.62,168.42,230,168.76Z"/><path class="cls-8" d="M241.19,172.14a2.25,2.25,0,0,0-2.25-2.14H223.53a2.24,2.24,0,0,0-2.25,2.14l-1.57,32.12h23Z"/><path class="cls-20" d="M241.19,172.14a2.25,2.25,0,0,0-2.25-2.14H223.53a2.24,2.24,0,0,0-2.25,2.14l-1.57,32.12h23Z"/><path class="cls-8" d="M242.93,172.14a2.25,2.25,0,0,0-2.25-2.14h-1.74a2.25,2.25,0,0,1,2.25,2.14l1.52,32.12h1.73Z"/><path class="cls-8" d="M253.53,206.92h-2.47a.48.48,0,0,1-.48-.47v-2.62a.48.48,0,0,1,.48-.47h1.77a.46.46,0,0,1,.46.35l.7,2.62a.46.46,0,0,1-.33.57A.32.32,0,0,1,253.53,206.92Z"/><path class="cls-8" d="M257,206.92h-2.47a.47.47,0,0,1-.47-.47h0v-2.62a.47.47,0,0,1,.47-.47h1.77a.47.47,0,0,1,.46.35l.7,2.62a.46.46,0,0,1-.33.57A.32.32,0,0,1,257,206.92Z"/><path class="cls-8" d="M260.37,206.92H257.9a.47.47,0,0,1-.47-.47h0v-2.62a.47.47,0,0,1,.47-.47h1.81a.46.46,0,0,1,.46.35l.7,2.62a.47.47,0,0,1-.33.58A.49.49,0,0,1,260.37,206.92Z"/><path class="cls-8" d="M263.79,206.92h-2.47a.47.47,0,0,1-.47-.47h0v-2.62a.47.47,0,0,1,.47-.47h1.78a.47.47,0,0,1,.45.35l.7,2.62a.46.46,0,0,1-.33.57A.32.32,0,0,1,263.79,206.92Z"/><path class="cls-8" d="M267.21,206.92h-2.5a.47.47,0,0,1-.47-.47h0v-2.62a.47.47,0,0,1,.47-.47h1.78a.47.47,0,0,1,.45.35l.7,2.62a.46.46,0,0,1-.33.57Z"/><path class="cls-8" d="M270.63,206.92h-2.47a.47.47,0,0,1-.45-.49h0V203.8a.47.47,0,0,1,.47-.47H270a.47.47,0,0,1,.45.35l.7,2.62a.48.48,0,0,1-.29.6A.62.62,0,0,1,270.63,206.92Z"/><path class="cls-8" d="M274.05,206.92h-2.47a.47.47,0,0,1-.47-.47h0v-2.62a.47.47,0,0,1,.47-.47h1.78a.47.47,0,0,1,.45.35l.7,2.62a.46.46,0,0,1-.33.57A.32.32,0,0,1,274.05,206.92Z"/><path class="cls-8" d="M277.47,206.92H275a.47.47,0,0,1-.47-.47h0v-2.62a.47.47,0,0,1,.47-.47h1.78a.47.47,0,0,1,.45.35l.7,2.62a.46.46,0,0,1-.33.57A.32.32,0,0,1,277.47,206.92Z"/><path class="cls-8" d="M280.89,206.92h-2.47a.47.47,0,0,1-.47-.47h0v-2.62a.47.47,0,0,1,.47-.47h1.78a.47.47,0,0,1,.45.35l.7,2.62a.46.46,0,0,1-.33.57A.32.32,0,0,1,280.89,206.92Z"/><path class="cls-8" d="M284.31,206.92h-2.47a.47.47,0,0,1-.47-.47h0v-2.62a.47.47,0,0,1,.47-.47h1.78a.47.47,0,0,1,.45.35l.7,2.62a.46.46,0,0,1-.33.57A.32.32,0,0,1,284.31,206.92Z"/><path class="cls-8" d="M287.71,206.92h-2.47a.47.47,0,0,1-.47-.47h0v-2.62a.47.47,0,0,1,.47-.47H287a.47.47,0,0,1,.45.35l.7,2.62a.46.46,0,0,1-.33.57A.32.32,0,0,1,287.71,206.92Z"/><path class="cls-8" d="M291.15,206.92h-2.44a.47.47,0,0,1-.47-.47h0v-2.62a.47.47,0,0,1,.47-.47h1.78a.47.47,0,0,1,.45.35l.7,2.62a.47.47,0,0,1-.33.58Z"/><path class="cls-8" d="M294.58,206.92H292.1a.47.47,0,0,1-.47-.47h0v-2.62a.47.47,0,0,1,.47-.47h1.78a.47.47,0,0,1,.45.35l.7,2.62a.46.46,0,0,1-.33.57Z"/><path class="cls-8" d="M298,206.92h-2.48a.47.47,0,0,1-.47-.47h0v-2.62a.47.47,0,0,1,.47-.47h1.78a.47.47,0,0,1,.45.35l.7,2.62a.46.46,0,0,1-.33.57Z"/><path class="cls-8" d="M301.42,206.92h-2.48a.47.47,0,0,1-.47-.47h0v-2.62a.47.47,0,0,1,.47-.47h1.77a.47.47,0,0,1,.45.35l.7,2.62a.46.46,0,0,1-.33.57Z"/><g class="cls-21"><path class="cls-22" d="M253.53,206.92h-2.47a.48.48,0,0,1-.48-.47v-2.62a.48.48,0,0,1,.48-.47h1.77a.46.46,0,0,1,.46.35l.7,2.62a.46.46,0,0,1-.33.57A.32.32,0,0,1,253.53,206.92Z"/><path class="cls-22" d="M257,206.92h-2.47a.47.47,0,0,1-.47-.47h0v-2.62a.47.47,0,0,1,.47-.47h1.77a.47.47,0,0,1,.46.35l.7,2.62a.46.46,0,0,1-.33.57A.32.32,0,0,1,257,206.92Z"/><path class="cls-22" d="M260.37,206.92H257.9a.47.47,0,0,1-.47-.47h0v-2.62a.47.47,0,0,1,.47-.47h1.81a.46.46,0,0,1,.46.35l.7,2.62a.47.47,0,0,1-.33.58A.49.49,0,0,1,260.37,206.92Z"/><path class="cls-22" d="M263.79,206.92h-2.47a.47.47,0,0,1-.47-.47h0v-2.62a.47.47,0,0,1,.47-.47h1.78a.47.47,0,0,1,.45.35l.7,2.62a.46.46,0,0,1-.33.57A.32.32,0,0,1,263.79,206.92Z"/><path class="cls-22" d="M267.21,206.92h-2.5a.47.47,0,0,1-.47-.47h0v-2.62a.47.47,0,0,1,.47-.47h1.78a.47.47,0,0,1,.45.35l.7,2.62a.46.46,0,0,1-.33.57Z"/><path class="cls-22" d="M270.63,206.92h-2.47a.47.47,0,0,1-.45-.49h0V203.8a.47.47,0,0,1,.47-.47H270a.47.47,0,0,1,.45.35l.7,2.62a.48.48,0,0,1-.29.6A.62.62,0,0,1,270.63,206.92Z"/><path class="cls-22" d="M274.05,206.92h-2.47a.47.47,0,0,1-.47-.47h0v-2.62a.47.47,0,0,1,.47-.47h1.78a.47.47,0,0,1,.45.35l.7,2.62a.46.46,0,0,1-.33.57A.32.32,0,0,1,274.05,206.92Z"/><path class="cls-22" d="M277.47,206.92H275a.47.47,0,0,1-.47-.47h0v-2.62a.47.47,0,0,1,.47-.47h1.78a.47.47,0,0,1,.45.35l.7,2.62a.46.46,0,0,1-.33.57A.32.32,0,0,1,277.47,206.92Z"/><path class="cls-22" d="M280.89,206.92h-2.47a.47.47,0,0,1-.47-.47h0v-2.62a.47.47,0,0,1,.47-.47h1.78a.47.47,0,0,1,.45.35l.7,2.62a.46.46,0,0,1-.33.57A.32.32,0,0,1,280.89,206.92Z"/><path class="cls-22" d="M284.31,206.92h-2.47a.47.47,0,0,1-.47-.47h0v-2.62a.47.47,0,0,1,.47-.47h1.78a.47.47,0,0,1,.45.35l.7,2.62a.46.46,0,0,1-.33.57A.32.32,0,0,1,284.31,206.92Z"/><path class="cls-22" d="M287.71,206.92h-2.47a.47.47,0,0,1-.47-.47h0v-2.62a.47.47,0,0,1,.47-.47H287a.47.47,0,0,1,.45.35l.7,2.62a.46.46,0,0,1-.33.57A.32.32,0,0,1,287.71,206.92Z"/><path class="cls-22" d="M291.15,206.92h-2.44a.47.47,0,0,1-.47-.47h0v-2.62a.47.47,0,0,1,.47-.47h1.78a.47.47,0,0,1,.45.35l.7,2.62a.47.47,0,0,1-.33.58Z"/><path class="cls-22" d="M294.58,206.92H292.1a.47.47,0,0,1-.47-.47h0v-2.62a.47.47,0,0,1,.47-.47h1.78a.47.47,0,0,1,.45.35l.7,2.62a.46.46,0,0,1-.33.57Z"/><path class="cls-22" d="M298,206.92h-2.48a.47.47,0,0,1-.47-.47h0v-2.62a.47.47,0,0,1,.47-.47h1.78a.47.47,0,0,1,.45.35l.7,2.62a.46.46,0,0,1-.33.57Z"/><path class="cls-22" d="M301.42,206.92h-2.48a.47.47,0,0,1-.47-.47h0v-2.62a.47.47,0,0,1,.47-.47h1.77a.47.47,0,0,1,.45.35l.7,2.62a.46.46,0,0,1-.33.57Z"/></g><rect class="cls-8" x="248.57" y="205.14" width="55.34" height="4.12"/><rect class="cls-11" x="248.57" y="205.14" width="55.34" height="4.12"/></g><g id="freepik--Packing--inject-44"><path class="cls-10" d="M204.71,236.62v-5.73a.55.55,0,1,1,0-1.1h6.54v7.94h-6.54a.56.56,0,0,1,0-1.11Z"/><path class="cls-12" d="M204.71,236.62v-5.73a.55.55,0,1,1,0-1.1h6.54v7.94h-6.54a.56.56,0,0,1,0-1.11Z"/><rect class="cls-10" x="204.68" y="230.89" width="5.08" height="5.72"/><rect class="cls-23" x="204.68" y="230.89" width="5.08" height="5.72"/><path class="cls-10" d="M208.71,237.16h17.61c1.21,0,2.19-1.52,2.19-3.41s-1-3.41-2.19-3.41H208.71Z"/><path class="cls-24" d="M208.71,237.16h17.61c1.21,0,2.19-1.52,2.19-3.41s-1-3.41-2.19-3.41H208.71Z"/><path class="cls-10" d="M208.71,229.79c5.77,0,11.54-.1,17.3,0,4,.07,4.16,7.66.29,7.92-2.7.19-5.47,0-8.18,0h-9.41a.55.55,0,0,1-.47-.62.54.54,0,0,1,.47-.47H225.1c1.27,0,2.17,0,2.66-1.51.42-1.3.29-3.93-1.44-4.22a2.91,2.91,0,0,0-.59,0h-17a.55.55,0,1,1,0-1.1Z"/><path class="cls-10" d="M230.58,245.82v-7.18a.69.69,0,0,0,0-1.38h-8.19v10h8.19a.72.72,0,0,0,0-1.44Z"/><path class="cls-12" d="M230.58,245.82v-7.18a.69.69,0,0,0,0-1.38h-8.19v10h8.19a.72.72,0,0,0,0-1.44Z"/><rect class="cls-10" x="224.22" y="238.64" width="6.36" height="7.17"/><rect class="cls-23" x="224.22" y="238.64" width="6.36" height="7.17"/><path class="cls-10" d="M225.55,246.5H203.49c-1.52,0-2.75-1.91-2.75-4.27S202,238,203.49,238h22.06Z"/><path class="cls-24" d="M225.55,246.5H203.49c-1.52,0-2.75-1.91-2.75-4.27S202,238,203.49,238h22.06Z"/><path class="cls-10" d="M225.55,237.26c-7.22,0-14.46-.13-21.68,0-5,.09-5.22,9.6-.36,9.93,3.38.23,6.86,0,10.25,0h11.79a.69.69,0,0,0,0-1.37H205c-1.58,0-2.72,0-3.33-1.9-.53-1.62-.36-4.92,1.81-5.28a4.57,4.57,0,0,1,.74,0h21.32a.69.69,0,0,0,0-1.38Z"/><g class="cls-16"><path d="M225.55,237.26c-7.22,0-14.46-.13-21.68,0-5,.09-5.22,9.6-.36,9.93,3.38.23,6.86,0,10.25,0h11.79a.69.69,0,0,0,0-1.37H205c-1.58,0-2.72,0-3.33-1.9-.53-1.62-.36-4.92,1.81-5.28a4.57,4.57,0,0,1,.74,0h21.32a.69.69,0,0,0,0-1.38Z"/></g><rect class="cls-10" x="190.15" y="243.24" width="35.63" height="35.7"/><rect class="cls-11" x="190.15" y="243.24" width="35.63" height="35.7"/><rect class="cls-10" x="225.78" y="243.24" width="21.88" height="35.7"/><rect class="cls-9" x="225.78" y="243.24" width="21.88" height="35.7"/><polygon class="cls-10" points="218.97 253.28 183.35 253.28 190.15 243.24 225.78 243.24 218.97 253.28"/><polygon class="cls-23" points="218.97 253.28 183.35 253.28 190.15 243.24 225.78 243.24 218.97 253.28"/><polygon class="cls-10" points="232.23 253.28 254.11 253.28 247.66 243.24 225.78 243.24 232.23 253.28"/><polygon class="cls-25" points="232.23 253.28 254.11 253.28 247.66 243.24 225.78 243.24 232.23 253.28"/><rect class="cls-10" x="168.35" y="278.94" width="59.83" height="59.95"/><rect class="cls-18" x="168.35" y="278.94" width="59.83" height="59.95"/><rect class="cls-10" x="228.18" y="278.94" width="36.75" height="59.95"/><rect class="cls-12" x="228.18" y="278.94" width="36.75" height="59.95"/><polygon class="cls-10" points="242.88 278.93 242.88 301.62 243.83 300.76 245.51 301.81 246.98 300.76 248.87 301.81 250.86 300.76 252.12 301.81 253.59 301.04 253.59 278.93 242.88 278.93"/><polygon class="cls-25" points="242.88 278.93 242.88 301.62 243.83 300.76 245.51 301.81 246.98 300.76 248.87 301.81 250.86 300.76 252.12 301.81 253.59 301.04 253.59 278.93 242.88 278.93"/></g><g id="freepik--Character--inject-44"><polygon class="cls-26" points="132.66 316.06 139.38 336.57 131.89 339.85 122.48 321.89 132.66 316.06"/><polygon class="cls-27" points="127.73 331.91 136.79 328.67 133.56 319.85 124.04 324.86 127.73 331.91"/><path class="cls-10" d="M126.71,340.93c-1.1.63-2.34,1.06-3,.74a1,1,0,0,1-.48-1,1.34,1.34,0,0,1,.38-.91c1.23-1.27,5.27-1.11,5.45-1.1a.23.23,0,0,1,.23.18.26.26,0,0,1-.06.28A17.29,17.29,0,0,1,126.71,340.93Zm-2.36-1.1a1.48,1.48,0,0,0-.37.29.67.67,0,0,0-.24.55c0,.38.11.49.21.53.72.41,3-.85,4.46-2a10.15,10.15,0,0,0-4,.63Z"/><path class="cls-10" d="M129.23,339.12h-.09c-1.33.09-4.5-.78-4.86-1.94-.11-.27-.09-.67.43-1.05a1.64,1.64,0,0,1,1.32-.28c1.62.34,3.24,2.76,3.32,2.87a.3.3,0,0,1,0,.26A.24.24,0,0,1,129.23,339.12Zm-4.17-2.62-.12.06c-.35.24-.29.41-.27.48.27.66,2.48,1.48,3.94,1.56a6,6,0,0,0-2.7-2.22A1.15,1.15,0,0,0,125.06,336.5Z"/><path class="cls-8" d="M130.41,337c5.4-1.18,7.28-3.34,7.28-3.34l1-.73a9.68,9.68,0,0,1,2.63,2.63,54.56,54.56,0,0,0,5.27,5.69h0c.73.72-.07,1.51-1.28,2.07-.1,0-3.93,2.75-8.56,5.43-5.48,3.16-4.68,3-11.1,6.86-3.88,2.31-6.88-2.68-5.39-3.86,6.76-5.27,7.82-8.58,9.06-13C129.63,338,129.57,337.21,130.41,337Z"/><path class="cls-8" d="M116.41,82.89c.58-1.2-.57.15-.59-.49,0,.27.69,1,.83,1.39a63.46,63.46,0,0,1,2,6.12c1.87,6.92,3.15,14,4.4,21,2.79,15.72,5,31.55,7.14,47.38q.72,5.52,1.42,11c.23,2,3.33,2,3.09,0q-2.22-18-4.92-36c-1.44-9.7-3-19.39-4.8-29-1.27-6.71-2.43-13.69-4.84-20.1-1-2.56-4.15-7.64-6.41-2.92-.85,1.79,1.81,3.36,2.67,1.56Z"/><polygon class="cls-26" points="64.95 330.4 62.17 346.54 53.07 345.47 54.31 329.86 64.95 330.4"/><path class="cls-10" d="M48.71,345c-1.18-.14-2.37-.5-2.7-1.06a.85.85,0,0,1,.13-1,1.19,1.19,0,0,1,.78-.44c1.63-.24,4.71,2.05,4.84,2.15a.22.22,0,0,1,.08.25.24.24,0,0,1-.2.16A15.92,15.92,0,0,1,48.71,345Zm-1.29-2a1.55,1.55,0,0,0-.43,0,.62.62,0,0,0-.48.26c-.2.26-.16.4-.11.48.37.67,2.76,1,4.55,1A10.27,10.27,0,0,0,47.4,343Z"/><path class="cls-10" d="M51.58,345.1h-.09c-1.07-.64-3.1-3-2.76-4,0-.26.28-.55.91-.53a1.69,1.69,0,0,1,1.2.53c1.09,1.14,1,3.73,1,3.85a.21.21,0,0,1-.12.19A.23.23,0,0,1,51.58,345.1ZM49.71,341h-.13c-.41,0-.46.15-.48.2-.14.64,1.16,2.43,2.25,3.27a5.35,5.35,0,0,0-.9-3.06,1.24,1.24,0,0,0-.74-.38Z"/><path class="cls-8" d="M52.71,343.9l10.34,1.27a.85.85,0,0,1,.74.75l.84,8.64a1.4,1.4,0,0,1-1.24,1.54h-.3c-3.72-.53-7-1.14-11.66-1.7-5.48-.67-4.17.16-10.62-.54-3.89-.42-4.06-4.92-2.39-4.94,7.65,0,8.71-2.2,12-4.54A3.35,3.35,0,0,1,52.71,343.9Z"/><polygon class="cls-27" points="63.17 340.73 64.31 334.14 54.02 333.43 53.51 339.85 63.17 340.73"/><path class="cls-10" d="M87.53,80.76s-12.87-.92-16.93,8.88c-8.33,20.1-8.81,42.11-8.81,42.11l12.92,1.67Z"/><path class="cls-27" d="M74.84,91.64s-3.35,9.75-5.73,34.51h5.73L77.5,98.73Z"/><path class="cls-8" d="M77.14,154.42c-28.51,86.49-24.31,125-24.36,125.82L51.86,334l14.45,1.27s10.06-48.13,9.11-72.11c-.12-3.08,15.88-45.85,21.13-67.55,0,0,10.18-23.54,5.35-39.83C101.9,155.86,79.3,147.91,77.14,154.42Z"/><path class="cls-13" d="M87.53,181.23A195.51,195.51,0,0,0,86,230.75c2.25-9,8.59-22.9,10.52-35.06Z"/><path class="cls-8" d="M85.89,167.85s3.93,49,9.78,89.83C98.58,278,122,326.21,122,326.21s1.45-.4,8.71-2.16c8-1.94,4.31-1.1,4.31-1.1s-1.63-7.69-8.35-39.11c-1.88-8.8-7.54-18.54-8.11-26.86-1.3-19.06-2.87-85.52-3.9-90.35S89.49,159.89,85.89,167.85Z"/><polygon class="cls-8" points="50.46 330.59 49.91 336.86 67.28 338.34 68.5 332.13 50.46 330.59"/><polygon class="cls-9" points="50.46 330.59 49.91 336.86 67.28 338.34 68.5 332.13 50.46 330.59"/><polygon class="cls-8" points="119.78 324.38 121.8 330.34 138.12 324.69 136.82 318.49 119.78 324.38"/><polygon class="cls-9" points="119.78 324.38 121.8 330.34 138.12 324.69 136.82 318.49 119.78 324.38"/><path class="cls-10" d="M114.25,157.54l7-60.42a14.27,14.27,0,0,0-12.43-15.9,14.52,14.52,0,0,0-1.47-.1l-19.87-.37A14.26,14.26,0,0,0,73,94.62L71.35,155.1S83.71,163.51,114.25,157.54Z"/><path class="cls-10" d="M120,165.7l1.27-68.58a14.27,14.27,0,0,0-12.43-15.9,14.52,14.52,0,0,0-1.47-.1l-19.87-.37A14.26,14.26,0,0,0,73,94.62l-2.06,68.65S89.43,171.67,120,165.7Z"/><path class="cls-27" d="M121.3,97.12a14,14,0,0,0,.1-1.71h-5.35l-3.62,2.44s4.14,14.48,8.46,21.39Z"/><path class="cls-10" d="M94.2,98.87a.93.93,0,1,1-.93-.93h0A.93.93,0,0,1,94.2,98.87Z"/><path class="cls-10" d="M93.27,112.63a.94.94,0,1,1-1-.93h0A.93.93,0,0,1,93.27,112.63Z"/><g class="cls-28"><path class="cls-22" d="M94.2,98.87a.93.93,0,1,1-.93-.93h0A.93.93,0,0,1,94.2,98.87Z"/><path class="cls-22" d="M93.27,112.63a.94.94,0,1,1-1-.93h0A.93.93,0,0,1,93.27,112.63Z"/></g><path class="cls-8" d="M89.4,39.55s-6.68,2.27-4,7.93S89.4,39.55,89.4,39.55Z"/><path class="cls-13" d="M89.4,39.55s-6.68,2.27-4,7.93S89.4,39.55,89.4,39.55Z"/><path class="cls-26" d="M87.71,81.07c-.17,1.49,0,3.35,1.6,4,2.82,1,7.92.91,7.92.91a24.11,24.11,0,0,0,6.09-3.74,3.47,3.47,0,0,0,.37-1.21c-3.79-3.5-2.89-11.32-1.94-16.66l-10,8.87C92.71,77.16,93,79.55,87.71,81.07Z"/><path class="cls-27" d="M97.71,67.9,91.8,73.19a17.22,17.22,0,0,1,.56,2.93c2.28-.36,5.82-2.35,6.27-4.84A7.13,7.13,0,0,0,97.71,67.9Z"/><path class="cls-26" d="M108.33,55.42c-2.21,8.63-3,12.32-8.23,15.94-7.93,5.47-18,.86-18.46-8.25-.36-8.2,3.33-21,12.54-22.75a12.16,12.16,0,0,1,14.15,15.06Z"/><path class="cls-29" d="M88.18,55.31a19.22,19.22,0,0,1-3.42,4,3.19,3.19,0,0,0,2.45,1Z"/><path class="cls-8" d="M90.55,63.84a6.26,6.26,0,0,1-1.06-.12.21.21,0,0,1-.18-.24h0a.23.23,0,0,1,.26-.16,5.76,5.76,0,0,0,5-1.32.21.21,0,1,1,.33.26l0,0A5.88,5.88,0,0,1,90.55,63.84Z"/><path class="cls-8" d="M98,53.54a.43.43,0,0,1-.47-.18,5,5,0,0,0-3.61-1.79.44.44,0,0,1-.36-.49.42.42,0,0,1,.36-.36h0a5.81,5.81,0,0,1,4.3,2.19.42.42,0,0,1-.13.57h0Z"/><path class="cls-8" d="M84.14,49.2a.44.44,0,0,1-.31-.31.44.44,0,0,1,.3-.53,4.18,4.18,0,0,1,3.85.76.4.4,0,0,1,0,.57h0a.42.42,0,0,1-.59,0h0a3.42,3.42,0,0,0-3-.54A.53.53,0,0,1,84.14,49.2Z"/><path class="cls-10" d="M87.93,80.16a.65.65,0,0,1,.83.4.63.63,0,0,1,0,.19c0,1.53.8,4.5,6.12,4.5,5.57,0,7.67-3.26,8.33-4.72a.65.65,0,0,1,.85-.32l.07,0,1.44.88s-.45,5.94-4.89,8.32c-3.65,2-6.68-3-6.68-3S90.71,92,87.71,88.72s-1.52-8-1.52-8Z"/><path class="cls-18" d="M87.93,80.16a.65.65,0,0,1,.83.4.63.63,0,0,1,0,.19c0,1.53.8,4.5,6.12,4.5,5.57,0,7.67-3.26,8.33-4.72a.65.65,0,0,1,.85-.32l.07,0,1.44.88s-.45,5.94-4.89,8.32c-3.65,2-6.68-3-6.68-3S90.71,92,87.71,88.72s-1.52-8-1.52-8Z"/><path class="cls-8" d="M104.71,61.9s-2.3-2.74-1-8.35-10.89-2.15-13.22-8.4c0,0,2.85,1.58,5.2.84,0,0-11.64-2.06-7.07-11.57,0,0,2.93,3.17,9.72,3.17S111.61,43.75,110.4,49C110.43,49,113.32,57.1,104.71,61.9Z"/><path class="cls-10" d="M108.1,58.51l-7.85-3.74L79,48.33l-.16,4.86a2,2,0,0,0,1.4,2l3.53,1.07A2,2,0,0,0,86,55.41L86.9,54a2,2,0,0,1,2.25-.85h0a2,2,0,0,1,1.4,2l0,1.62a2,2,0,0,0,1.4,2l3.53,1.07A2,2,0,0,0,97.68,59l1.6-2.57,8,3.12Z"/><path class="cls-17" d="M108.1,58.51l-7.85-3.74L79,48.33l-.16,4.86a2,2,0,0,0,1.4,2l3.53,1.07A2,2,0,0,0,86,55.41L86.9,54a2,2,0,0,1,2.25-.85h0a2,2,0,0,1,1.4,2l0,1.62a2,2,0,0,0,1.4,2l3.53,1.07A2,2,0,0,0,97.68,59l1.6-2.57,8,3.12Z"/><path class="cls-26" d="M109.42,62.63a6.41,6.41,0,0,1-3.87,3c-2.17.55-3.22-1.41-2.58-3.44.6-1.83,2.43-4.32,4.6-4a2.88,2.88,0,0,1,2.33,3.33A3,3,0,0,1,109.42,62.63Z"/><path class="cls-10" d="M121,147.14s-1,2.75,5.73,6.48c0,0,17.29-10.24,16.51-27s-13-45.12-35.81-45.45c0,0-1.43,8.68,8.68,21.38,7,8.83,13.28,16.23,13.84,25.18S121,147.14,121,147.14Z"/><rect class="cls-10" x="111.18" y="161.55" width="23.12" height="39.35" rx="3.95"/><path class="cls-10" d="M119.09,165.5a4,4,0,0,0-7.91,0V197a4,4,0,0,0,7.91,0Z"/><path class="cls-27" d="M119.09,165.5a4,4,0,0,0-7.91,0V197a4,4,0,0,0,7.91,0Z"/><path class="cls-10" d="M130.35,161.55H115.13a4,4,0,0,1,4,4v10a4.11,4.11,0,0,0,4.1,4.1h7a4.11,4.11,0,0,0,4.11-4.1v-10A4,4,0,0,0,130.35,161.55Z"/><path class="cls-30" d="M130.35,161.55H115.13a4,4,0,0,1,4,4v10a4.11,4.11,0,0,0,4.1,4.1h7a4.11,4.11,0,0,0,4.11-4.1v-10A4,4,0,0,0,130.35,161.55Z"/><path class="cls-8" d="M123.19,179.59h-.39v9.58c0,1.28.73,2.32,1.62,2.32s1.61-1,1.61-2.32v-9.54Z"/><path class="cls-8" d="M130.19,179.59h-1.14v9.54c0,1.28.72,2.32,1.62,2.32s1.61-1,1.61-2.32V179A4,4,0,0,1,130.19,179.59Z"/><path class="cls-8" d="M125.45,172.42h-1.1c-.89,0-1.61,1-1.61,2.32s.72,2.32,1.61,2.32h1.1c.89,0,1.61-1,1.61-2.32S126.34,172.42,125.45,172.42Z"/><path class="cls-10" d="M127.06,174.7c0,1.28-.72,2.32-1.61,2.32s-1.62-1-1.62-2.32.73-2.32,1.62-2.32S127.06,173.42,127.06,174.7Z"/><path class="cls-8" d="M132.28,172.42h-1.1c-.89,0-1.61,1-1.61,2.32s.72,2.32,1.61,2.32h1.1c.89,0,1.61-1,1.61-2.32S133.17,172.42,132.28,172.42Z"/><path class="cls-10" d="M133.89,174.7c0,1.28-.72,2.32-1.61,2.32s-1.61-1-1.61-2.32.72-2.32,1.61-2.32S133.89,173.42,133.89,174.7Z"/><path class="cls-8" d="M116.71,170.57q-1.48-19.37-2.18-38.8c-.35-9.7-.58-19.43-.34-29.14.17-6.44-.12-14,2.43-20.11.77-1.83-2.22-2.63-3-.82-2.42,5.73-2.28,12.9-2.48,19-.34,10-.11,20,.24,30q.7,20,2.22,39.91c.15,2,3.25,2,3.09,0Z"/><g class="cls-16"><path class="cls-22" d="M116.71,170.57q-1.48-19.37-2.18-38.8c-.35-9.7-.58-19.43-.34-29.14.17-6.44-.12-14,2.43-20.11.77-1.83-2.22-2.63-3-.82-2.42,5.73-2.28,12.9-2.48,19-.34,10-.11,20,.24,30q.7,20,2.22,39.91c.15,2,3.25,2,3.09,0Z"/></g><path class="cls-8" d="M90.16,122.05h-.47l.51-9.76a8.29,8.29,0,1,0-16.53-1.35c0,.16,0,.31,0,.47l-.52,9.76h-.48a1.74,1.74,0,0,0-1.83,1.65h0l-.11,1.6,21,1.12.08-1.63A1.75,1.75,0,0,0,90.16,122.05Z"/><path class="cls-12" d="M90.16,122.05h-.47l.51-9.76a8.29,8.29,0,1,0-16.53-1.35c0,.16,0,.31,0,.47l-.52,9.76h-.48a1.74,1.74,0,0,0-1.83,1.65h0l-.11,1.6,21,1.12.08-1.63A1.75,1.75,0,0,0,90.16,122.05Z"/><path class="cls-10" d="M88.48,122H88l.52-9.76A8.29,8.29,0,0,0,72,111.32l-.52,9.76H71a1.75,1.75,0,0,0-1.84,1.65L69,124.36l21,1.12.09-1.63a1.76,1.76,0,0,0-1.6-1.89Z"/><path class="cls-17" d="M88.48,122H88l.52-9.76A8.29,8.29,0,0,0,72,111.32l-.52,9.76H71a1.75,1.75,0,0,0-1.84,1.65L69,124.36l21,1.12.09-1.63a1.76,1.76,0,0,0-1.6-1.89Z"/><circle class="cls-10" cx="80.24" cy="111.72" r="6.6"/><circle class="cls-23" cx="80.24" cy="111.72" r="6.6"/><path class="cls-10" d="M84.17,111.42l-3.37-.18.24-4.49a.53.53,0,0,0-1.06-.06l-.27,5a.53.53,0,0,0,.5.56h0l3.91.21a.54.54,0,0,0,0-1Z"/><path class="cls-8" d="M89.55,120.13h11.87a2.39,2.39,0,0,1,2.4,2.4V123a1.57,1.57,0,0,1-1.57,1.57H88.71A1.57,1.57,0,0,1,87.14,123h0v-.47a2.39,2.39,0,0,1,2.4-2.4Z"/><path class="cls-18" d="M89.55,120.13h11.87a2.39,2.39,0,0,1,2.4,2.4V123a1.57,1.57,0,0,1-1.57,1.57H88.71A1.57,1.57,0,0,1,87.14,123h0v-.47a2.39,2.39,0,0,1,2.4-2.4Z"/><ellipse class="cls-8" cx="100.97" cy="105.01" rx="2.78" ry="2.07"/><ellipse class="cls-11" cx="100.97" cy="105.01" rx="2.78" ry="2.07"/><rect class="cls-8" x="92.56" y="115.07" width="2.13" height="5.47"/><rect class="cls-18" x="92.56" y="115.07" width="2.13" height="5.47"/><rect class="cls-8" x="96.14" y="115.07" width="2.13" height="5.47"/><rect class="cls-18" x="96.14" y="115.07" width="2.13" height="5.47"/><path class="cls-8" d="M93.05,110.55a.63.63,0,0,0-.78-.42l-.09,0c-1.05.48-3.08,1.34-3.94,1.17-.57-.11-.91-.94-2.09.55a.84.84,0,0,0-.19.48,1.39,1.39,0,0,0,1.36,1.42h0c.65,0,.92-.6,1.34-1.06.6-.64,2.75-1.13,3.88-1.35a.62.62,0,0,0,.5-.74.31.31,0,0,0,0-.08Z"/><path class="cls-8" d="M104.81,111.88c-1.18-1.49-1.51-.66-2.08-.55-.86.17-2.9-.69-3.94-1.17a.64.64,0,0,0-.85.31l0,.08h0a.63.63,0,0,0,.42.8l.07,0c1.13.22,3.28.71,3.88,1.35.42.46.69,1.06,1.34,1.06a1.39,1.39,0,0,0,1.39-1.39v0A.77.77,0,0,0,104.81,111.88Z"/><g class="cls-31"><path class="cls-22" d="M93.05,110.55a.63.63,0,0,0-.78-.42l-.09,0c-1.05.48-3.08,1.34-3.94,1.17-.57-.11-.91-.94-2.09.55a.84.84,0,0,0-.19.48,1.39,1.39,0,0,0,1.36,1.42h0c.65,0,.92-.6,1.34-1.06.6-.64,2.75-1.13,3.88-1.35a.62.62,0,0,0,.5-.74.31.31,0,0,0,0-.08Z"/><path class="cls-22" d="M104.81,111.88c-1.18-1.49-1.51-.66-2.08-.55-.86.17-2.9-.69-3.94-1.17a.64.64,0,0,0-.85.31l0,.08h0a.63.63,0,0,0,.42.8l.07,0c1.13.22,3.28.71,3.88,1.35.42.46.69,1.06,1.34,1.06a1.39,1.39,0,0,0,1.39-1.39v0A.77.77,0,0,0,104.81,111.88Z"/></g><path class="cls-8" d="M99.44,112.32a4.23,4.23,0,1,1-8.43,0c0-2.55,1.88-3.13,4.21-3.13S99.44,109.77,99.44,112.32Z"/><path class="cls-25" d="M99.44,112.32a4.23,4.23,0,1,1-8.43,0c0-2.55,1.88-3.13,4.21-3.13S99.44,109.77,99.44,112.32Z"/><path class="cls-8" d="M94.71,120.52c0,.86-3.1.86-3.1,0a1.55,1.55,0,0,1,3.1,0Z"/><path class="cls-25" d="M94.71,120.52c0,.86-3.1.86-3.1,0a1.55,1.55,0,0,1,3.1,0Z"/><path class="cls-8" d="M99.24,120.52c0,.86-3.1.86-3.1,0a1.55,1.55,0,0,1,3.1,0Z"/><path class="cls-25" d="M99.24,120.52c0,.86-3.1.86-3.1,0a1.55,1.55,0,0,1,3.1,0Z"/><ellipse class="cls-8" cx="89.48" cy="105.01" rx="2.78" ry="2.07"/><ellipse class="cls-11" cx="89.48" cy="105.01" rx="2.78" ry="2.07"/><path class="cls-8" d="M102.27,103.6c0,4.81-3.16,6.24-7,6.24s-7-1.43-7-6.24,3.15-6.24,7-6.24S102.27,98.78,102.27,103.6Z"/><path class="cls-18" d="M102.27,103.6c0,4.81-3.16,6.24-7,6.24s-7-1.43-7-6.24,3.15-6.24,7-6.24S102.27,98.78,102.27,103.6Z"/><ellipse class="cls-8" cx="92.39" cy="105.59" rx="0.58" ry="0.82"/><ellipse class="cls-8" cx="98.58" cy="105.59" rx="0.58" ry="0.82"/><path class="cls-10" d="M65.71,114.49c-.41-5.06-1.57-10.51-4.39-14.78-.13-.21.18-.46.32-.24,2.85,4.33,4,9.85,4.46,15a.2.2,0,1,1-.39,0Z"/><g class="cls-32"><path d="M65.71,114.49c-.41-5.06-1.57-10.51-4.39-14.78-.13-.21.18-.46.32-.24,2.85,4.33,4,9.85,4.46,15a.2.2,0,1,1-.39,0Z"/></g><path class="cls-10" d="M66.26,113.35S64.9,98.11,72.62,98.14c8.16,0-4,6.8-5.61,15.11Z"/><path class="cls-18" d="M66.26,113.35S64.9,98.11,72.62,98.14c8.16,0-4,6.8-5.61,15.11Z"/><path class="cls-10" d="M67.45,108a.14.14,0,0,1,0-.15l.06-.08c.15-.45.31-.9.48-1.34a2.64,2.64,0,0,1-.86-1.65c0-.24.36-.3.38-.05a2.22,2.22,0,0,0,.63,1.31c.26-.62.54-1.24.85-1.84A3.35,3.35,0,0,1,68,102c0-.24.37-.3.37-.05a3,3,0,0,0,.78,1.82c.31-.59.66-1.16,1-1.72a5.36,5.36,0,0,1-.82-2.18.19.19,0,0,1,.16-.21.19.19,0,0,1,.22.16,5.13,5.13,0,0,0,.67,1.86,21.55,21.55,0,0,1,2.68-3.2c.18-.17.41.13.24.3a19.28,19.28,0,0,0-1.55,1.71,11.66,11.66,0,0,1,2.64-.8c.24,0,.29.33,0,.38a8.19,8.19,0,0,0-3.24,1.19h0c-.2.27-.4.54-.59.82a.19.19,0,0,1-.11.18l-.23.37a5,5,0,0,1,2.44-.18.19.19,0,0,1,.12.24.18.18,0,0,1-.17.13,4.29,4.29,0,0,0-2.73.37h0c-.18.31-.35.61-.51.92a.18.18,0,0,1-.07.15c-.09.17-.18.34-.26.52a3.14,3.14,0,0,1,1.77,0c.23.07.18.44,0,.38-.6-.15-1.53-.32-2,.22h0c-.27.59-.5,1.19-.71,1.8a3.66,3.66,0,0,1,1.15-.4c.24,0,.29.32,0,.37a2.27,2.27,0,0,0-1.4.68,21.77,21.77,0,0,0-1,5.43c0,.24-.39.19-.38-.06A21.9,21.9,0,0,1,67.45,108Z"/><path class="cls-27" d="M67.45,108a.14.14,0,0,1,0-.15l.06-.08c.15-.45.31-.9.48-1.34a2.64,2.64,0,0,1-.86-1.65c0-.24.36-.3.38-.05a2.22,2.22,0,0,0,.63,1.31c.26-.62.54-1.24.85-1.84A3.35,3.35,0,0,1,68,102c0-.24.37-.3.37-.05a3,3,0,0,0,.78,1.82c.31-.59.66-1.16,1-1.72a5.36,5.36,0,0,1-.82-2.18.19.19,0,0,1,.16-.21.19.19,0,0,1,.22.16,5.13,5.13,0,0,0,.67,1.86,21.55,21.55,0,0,1,2.68-3.2c.18-.17.41.13.24.3a19.28,19.28,0,0,0-1.55,1.71,11.66,11.66,0,0,1,2.64-.8c.24,0,.29.33,0,.38a8.19,8.19,0,0,0-3.24,1.19h0c-.2.27-.4.54-.59.82a.19.19,0,0,1-.11.18l-.23.37a5,5,0,0,1,2.44-.18.19.19,0,0,1,.12.24.18.18,0,0,1-.17.13,4.29,4.29,0,0,0-2.73.37h0c-.18.31-.35.61-.51.92a.18.18,0,0,1-.07.15c-.09.17-.18.34-.26.52a3.14,3.14,0,0,1,1.77,0c.23.07.18.44,0,.38-.6-.15-1.53-.32-2,.22h0c-.27.59-.5,1.19-.71,1.8a3.66,3.66,0,0,1,1.15-.4c.24,0,.29.32,0,.37a2.27,2.27,0,0,0-1.4.68,21.77,21.77,0,0,0-1,5.43c0,.24-.39.19-.38-.06A21.9,21.9,0,0,1,67.45,108Z"/><path class="cls-10" d="M65.09,113.54s-2.38-13.12-8.84-11.33c-6.84,1.9,4.9,4.8,8.18,11.41Z"/><path class="cls-20" d="M65.09,113.54s-2.38-13.12-8.84-11.33c-6.84,1.9,4.9,4.8,8.18,11.41Z"/><path class="cls-10" d="M62.86,109.29a.15.15,0,0,0,0-.13h-.07a10.54,10.54,0,0,0-.71-1,2.35,2.35,0,0,0,.35-1.59c0-.2-.38-.16-.33,0a2,2,0,0,1-.23,1.25q-.54-.7-1.14-1.35a2.91,2.91,0,0,0,.32-2c0-.21-.38-.17-.33,0a2.6,2.6,0,0,1-.23,1.71A16,16,0,0,0,59.23,105a4.52,4.52,0,0,0,.19-2c0-.21-.35-.17-.33,0a4.53,4.53,0,0,1-.13,1.72,18.24,18.24,0,0,0-3-2.08c-.19-.1-.31.21-.13.31A18.61,18.61,0,0,1,57.52,104a10.14,10.14,0,0,0-2.4-.07c-.21,0-.17.35.05.33a7.41,7.41,0,0,1,3,.26h0c.23.18.46.36.68.56a.17.17,0,0,0,.14.12c.09.08.18.18.28.26a4.37,4.37,0,0,0-2.1.41.16.16,0,0,0-.08.21.15.15,0,0,0,.21.09,3.76,3.76,0,0,1,2.38-.32h0l.64.66a.12.12,0,0,0,.09.1l.34.38a2.8,2.8,0,0,0-1.49.42c-.18.11,0,.41.13.31.47-.27,1.22-.62,1.74-.28h0a16.07,16.07,0,0,1,1,1.34,3.16,3.16,0,0,0-1.06-.07c-.21,0-.17.34,0,.33a2,2,0,0,1,1.34.24,18.8,18.8,0,0,1,2.09,4.33c.06.2.37.07.3-.13A19.45,19.45,0,0,0,62.86,109.29Z"/><path class="cls-27" d="M62.86,109.29a.15.15,0,0,0,0-.13h-.07a10.54,10.54,0,0,0-.71-1,2.35,2.35,0,0,0,.35-1.59c0-.2-.38-.16-.33,0a2,2,0,0,1-.23,1.25q-.54-.7-1.14-1.35a2.91,2.91,0,0,0,.32-2c0-.21-.38-.17-.33,0a2.6,2.6,0,0,1-.23,1.71A16,16,0,0,0,59.23,105a4.52,4.52,0,0,0,.19-2c0-.21-.35-.17-.33,0a4.53,4.53,0,0,1-.13,1.72,18.24,18.24,0,0,0-3-2.08c-.19-.1-.31.21-.13.31A18.61,18.61,0,0,1,57.52,104a10.14,10.14,0,0,0-2.4-.07c-.21,0-.17.35.05.33a7.41,7.41,0,0,1,3,.26h0c.23.18.46.36.68.56a.17.17,0,0,0,.14.12c.09.08.18.18.28.26a4.37,4.37,0,0,0-2.1.41.16.16,0,0,0-.08.21.15.15,0,0,0,.21.09,3.76,3.76,0,0,1,2.38-.32h0l.64.66a.12.12,0,0,0,.09.1l.34.38a2.8,2.8,0,0,0-1.49.42c-.18.11,0,.41.13.31.47-.27,1.22-.62,1.74-.28h0a16.07,16.07,0,0,1,1,1.34,3.16,3.16,0,0,0-1.06-.07c-.21,0-.17.34,0,.33a2,2,0,0,1,1.34.24,18.8,18.8,0,0,1,2.09,4.33c.06.2.37.07.3-.13A19.45,19.45,0,0,0,62.86,109.29Z"/><path class="cls-8" d="M63.9,127,71,126a2.12,2.12,0,0,0,1.84-2.18l-.39-10.32a1.35,1.35,0,0,0-1.4-1.3H71l-10.61,1.42a1.36,1.36,0,0,0-1.16,1.53.5.5,0,0,0,0,.12l2.35,10.06A2.12,2.12,0,0,0,63.9,127Z"/><path class="cls-11" d="M63.9,127,71,126a2.12,2.12,0,0,0,1.84-2.18l-.39-10.32a1.35,1.35,0,0,0-1.4-1.3H71l-10.61,1.42a1.36,1.36,0,0,0-1.16,1.53.5.5,0,0,0,0,.12l2.35,10.06A2.12,2.12,0,0,0,63.9,127Z"/><path class="cls-10" d="M61.43,100.05c.5-.6,3.28-.85,1.89-2.9s-2.52-3.3-2.26-3.88a2,2,0,0,0-1.22,2.58s-1.34-.86-2.27-.44a4.4,4.4,0,0,0,.27,2s-1.73-1-2.56.06a10.21,10.21,0,0,1,3,3C59.13,102.1,60.56,101.09,61.43,100.05Z"/><path class="cls-30" d="M61.43,100.05c.5-.6,3.28-.85,1.89-2.9s-2.52-3.3-2.26-3.88a2,2,0,0,0-1.22,2.58s-1.34-.86-2.27-.44a4.4,4.4,0,0,0,.27,2s-1.73-1-2.56.06a10.21,10.21,0,0,1,3,3C59.13,102.1,60.56,101.09,61.43,100.05Z"/><rect class="cls-10" x="59.69" y="124.05" width="35.63" height="35.63"/><rect class="cls-18" x="59.69" y="124.05" width="35.63" height="35.63"/><rect class="cls-10" x="95.32" y="124.05" width="21.88" height="35.63"/><rect class="cls-12" x="95.32" y="124.05" width="21.88" height="35.63"/><polygon class="cls-10" points="88.51 134.07 52.88 134.07 59.69 124.05 95.32 124.05 88.51 134.07"/><polygon class="cls-23" points="88.51 134.07 52.88 134.07 59.69 124.05 95.32 124.05 88.51 134.07"/><polygon class="cls-10" points="101.76 134.07 123.65 134.07 117.2 124.05 95.32 124.05 101.76 134.07"/><polygon class="cls-25" points="101.76 134.07 123.65 134.07 117.2 124.05 95.32 124.05 101.76 134.07"/><path class="cls-26" d="M57.82,145.73l.64-.26a3.58,3.58,0,0,1,4.59,1.77l.15.3a3.59,3.59,0,0,1,.28,2.28l-1.18,5.77a3.6,3.6,0,0,1-2.2,2.63h0A2.22,2.22,0,0,1,57.24,157a2.38,2.38,0,0,1-.14-.63l-.64-8.39A2.19,2.19,0,0,1,57.82,145.73Z"/><path class="cls-26" d="M122.39,147.54l-3.68,3.65-1.09-.57a1.57,1.57,0,0,0-2.11.65l0,.09a15.13,15.13,0,0,1-7.54,7.32,1.55,1.55,0,0,0-.78,2,1.52,1.52,0,0,0,.78.78,9.77,9.77,0,0,0,2.65.74c3.36.42,5,2.09,7.56,0s4.06-6.72,4.06-6.72l4.53-3.3Z"/><path class="cls-10" d="M119.84,147.42a12.14,12.14,0,0,0,7,7l2.87-1.5s-5.44-3.49-8-8.12Z"/><path class="cls-18" d="M119.84,147.42a12.14,12.14,0,0,0,7,7l2.87-1.5s-5.44-3.49-8-8.12Z"/><path class="cls-8" d="M113.89,73.11l-6.27,6.31L105.8,75a1.47,1.47,0,0,1,.32-1.58l1.73-1.73a1.45,1.45,0,0,1,1.58-.32Z"/><path class="cls-9" d="M113.89,73.11l-6.27,6.31L105.8,75a1.47,1.47,0,0,1,.32-1.58l1.73-1.73a1.45,1.45,0,0,1,1.58-.32Z"/><path class="cls-8" d="M105.45,84h.26A1.31,1.31,0,0,1,107,85.32v37.1H104.1V85.31a1.31,1.31,0,0,1,1.32-1.3Z"/><path class="cls-18" d="M105.45,84h.26A1.31,1.31,0,0,1,107,85.32v37.1H104.1V85.31a1.31,1.31,0,0,1,1.32-1.3Z"/><path class="cls-8" d="M95.26,124.06h20.68a3,3,0,0,0-3-3H98.31a3,3,0,0,0-3,3Z"/><path class="cls-9" d="M95.26,124.06h20.68a3,3,0,0,0-3-3H98.31a3,3,0,0,0-3,3Z"/><path class="cls-8" d="M104.39,83.56l4-4h0l2.5,2.5h0l-4,4a1.57,1.57,0,0,1-2.23,0h0l-.27-.27A1.57,1.57,0,0,1,104.39,83.56Z"/><path class="cls-9" d="M104.39,83.56l4-4h0l2.5,2.5h0l-4,4a1.57,1.57,0,0,1-2.23,0h0l-.27-.27A1.57,1.57,0,0,1,104.39,83.56Z"/><path class="cls-8" d="M106.71,84.6a.81.81,0,1,1-.81-.81h0a.8.8,0,0,1,.81.79Z"/><path class="cls-23" d="M106.71,84.6a.81.81,0,1,1-.81-.81h0a.8.8,0,0,1,.81.79Z"/><path class="cls-8" d="M106.34,76.9l5.09-5.1a1.32,1.32,0,0,1,1.86,0l7.5,7.5h0l-6.92,6.92h0l-7.51-7.5a1.31,1.31,0,0,1,0-1.85Z"/><path class="cls-18" d="M106.34,76.9l5.09-5.1a1.32,1.32,0,0,1,1.86,0l7.5,7.5h0l-6.92,6.92h0l-7.51-7.5a1.31,1.31,0,0,1,0-1.85Z"/><path class="cls-10" d="M130,83,117.5,95.42a2,2,0,0,1-2.83,0,1.93,1.93,0,0,1-.49-.84l-2.6-9.3a1.05,1.05,0,0,1,.27-1l6.9-6.9a1.05,1.05,0,0,1,1-.27l9.31,2.6a2,2,0,0,1,1.38,2.47A2,2,0,0,1,130,83Z"/><path class="cls-18" d="M130,83,117.5,95.42a2,2,0,0,1-2.83,0,1.93,1.93,0,0,1-.49-.84l-2.6-9.3a1.05,1.05,0,0,1,.27-1l6.9-6.9a1.05,1.05,0,0,1,1-.27l9.31,2.6a2,2,0,0,1,1.38,2.47A2,2,0,0,1,130,83Z"/><path class="cls-10" d="M118.5,83.11a.63.63,0,0,0-.88,0,.62.62,0,0,0,0,.87l3.28,3.28a.63.63,0,0,0,.88-.05.64.64,0,0,0,0-.82Z"/><path class="cls-10" d="M115.62,86a.51.51,0,0,0-.71-.15l-.09.08a.77.77,0,0,0-.07,1l2.76,3.8a.52.52,0,0,0,.72.14l.09-.07a.77.77,0,0,0,.07-1C118.27,89.63,115.71,86.14,115.62,86Z"/><path class="cls-10" d="M120.49,81.11a.5.5,0,0,1-.15-.69.31.31,0,0,1,.09-.11.73.73,0,0,1,.94-.07l3.8,2.76a.51.51,0,0,1,.15.71l-.08.09a.74.74,0,0,1-.95.07Z"/></g></g></g></svg>