<svg xmlns="http://www.w3.org/2000/svg" viewBox="0 0 197.05 288.74"><defs><style>.cls-1{fill:#6c48ef;}.cls-15,.cls-2,.cls-3,.cls-6,.cls-7{fill:#fff;}.cls-2{opacity:0.8;}.cls-10,.cls-15,.cls-16,.cls-2,.cls-3,.cls-7,.cls-8,.cls-9{isolation:isolate;}.cls-3{opacity:0.4;}.cls-4{fill:#263238;}.cls-10,.cls-5{opacity:0.2;}.cls-7{opacity:0.6;}.cls-15,.cls-16,.cls-8{opacity:0.3;}.cls-9{opacity:0.1;}.cls-11,.cls-14{fill:none;stroke:#263238;stroke-linecap:round;stroke-linejoin:round;}.cls-11{stroke-width:0.5px;}.cls-12{fill:#e4897b;}.cls-13{fill:#de5753;}.cls-14{stroke-width:0.71px;}.cls-16{font-size:28px;font-family:Roboto-Bold, Roboto;font-weight:700;}</style></defs><title>PDFRecurso 1</title><g id="Capa_2" data-name="Capa 2"><g id="Capa_1-2" data-name="Capa 1"><g id="freepik--Clipboard--inject-93"><rect class="cls-1" y="2.44" width="197.05" height="286.3" rx="7.49"/><rect class="cls-2" x="10.43" y="19.08" width="176.19" height="256.04"/><rect class="cls-1" x="49.74" width="97.58" height="15.88" rx="1.93"/><rect class="cls-3" x="49.74" width="97.58" height="15.88" rx="1.93"/><path class="cls-4" d="M134.61,30.63H106.36A3.15,3.15,0,0,1,103.54,29a5.67,5.67,0,0,0-10,0,3.15,3.15,0,0,1-2.82,1.64H62.45a3,3,0,0,1-3-3V10.78a3,3,0,0,1,3-3h72.16a3,3,0,0,1,3,3v16.8a3,3,0,0,1-3,3.05ZM98.54,24a7.62,7.62,0,0,1,6.77,4.07,1.2,1.2,0,0,0,1.06.58h28.24a1,1,0,0,0,1-1V10.78a1,1,0,0,0-1-1H62.45a1,1,0,0,0-1,1v16.8a1,1,0,0,0,1,1H90.71A1.19,1.19,0,0,0,91.76,28a7.67,7.67,0,0,1,6.77-4Z"/><g class="cls-5"><path class="cls-6" d="M134.61,30.63H106.36A3.15,3.15,0,0,1,103.54,29a5.67,5.67,0,0,0-10,0,3.15,3.15,0,0,1-2.82,1.64H62.45a3,3,0,0,1-3-3V10.78a3,3,0,0,1,3-3h72.16a3,3,0,0,1,3,3v16.8a3,3,0,0,1-3,3.05ZM98.54,24a7.62,7.62,0,0,1,6.77,4.07,1.2,1.2,0,0,0,1.06.58h28.24a1,1,0,0,0,1-1V10.78a1,1,0,0,0-1-1H62.45a1,1,0,0,0-1,1v16.8a1,1,0,0,0,1,1H90.71A1.19,1.19,0,0,0,91.76,28a7.67,7.67,0,0,1,6.77-4Z"/></g><rect class="cls-1" x="65.61" y="4.85" width="65.87" height="6.82" rx="1.16"/><rect class="cls-7" x="65.58" y="4.85" width="65.87" height="6.82" rx="1.16"/><rect class="cls-8" x="97.09" y="158.92" width="17.8" height="17.8"/><path class="cls-8" d="M112.81,183.87H99.17a2.08,2.08,0,0,1-2.08-2.08h0a2.1,2.1,0,0,1,2.08-2.07h13.64a2.09,2.09,0,0,1,2.08,2.07h0a2.08,2.08,0,0,1-2.08,2.08Z"/><rect class="cls-8" x="122.41" y="158.92" width="49.58" height="3.81" rx="1.9"/><rect class="cls-8" x="122.41" y="168.92" width="39.58" height="3.81" rx="1.9"/><rect class="cls-8" x="122.41" y="178.92" width="49.58" height="3.81" rx="1.9"/><rect class="cls-8" x="122.41" y="188.92" width="23.58" height="3.81" rx="1.9"/><path class="cls-8" d="M168.77,65.87H99A1.91,1.91,0,0,1,97.09,64h0a1.91,1.91,0,0,1,1.9-1.9h69.78a1.9,1.9,0,0,1,1.9,1.9h0A1.91,1.91,0,0,1,168.77,65.87Z"/><path class="cls-8" d="M158.77,75.87H99A1.91,1.91,0,0,1,97.09,74h0a1.91,1.91,0,0,1,1.9-1.9h59.78a1.9,1.9,0,0,1,1.9,1.9h0A1.91,1.91,0,0,1,158.77,75.87Z"/><path class="cls-8" d="M168.77,85.87H99A1.91,1.91,0,0,1,97.09,84h0a1.91,1.91,0,0,1,1.9-1.9h69.78a1.9,1.9,0,0,1,1.9,1.9h0A1.91,1.91,0,0,1,168.77,85.87Z"/><path class="cls-8" d="M148.77,95.87H99A1.91,1.91,0,0,1,97.09,94h0a1.91,1.91,0,0,1,1.9-1.9h49.78a1.9,1.9,0,0,1,1.9,1.9h0A1.91,1.91,0,0,1,148.77,95.87Z"/><polygon class="cls-8" points="102.08 107.79 103.18 110.01 105.64 110.37 103.86 112.1 104.28 114.55 102.08 113.39 99.89 114.55 100.31 112.1 98.53 110.37 100.98 110.01 102.08 107.79"/><polygon class="cls-8" points="114.5 107.79 115.6 110.01 118.05 110.37 116.27 112.1 116.69 114.55 114.5 113.39 112.3 114.55 112.72 112.1 110.94 110.37 113.4 110.01 114.5 107.79"/><polygon class="cls-8" points="126.91 107.79 128.01 110.01 130.47 110.37 128.69 112.1 129.11 114.55 126.91 113.39 124.71 114.55 125.13 112.1 123.36 110.37 125.81 110.01 126.91 107.79"/><polygon class="cls-8" points="139.33 107.79 140.42 110.01 142.88 110.37 141.1 112.1 141.52 114.55 139.33 113.39 137.13 114.55 137.55 112.1 135.77 110.37 138.23 110.01 139.33 107.79"/><polygon class="cls-8" points="151.74 107.79 152.84 110.01 155.29 110.37 153.52 112.1 153.94 114.55 151.74 113.39 149.54 114.55 149.96 112.1 148.19 110.37 150.64 110.01 151.74 107.79"/><polygon class="cls-8" points="102.08 120.53 103.18 122.75 105.64 123.11 103.86 124.84 104.28 127.29 102.08 126.13 99.89 127.29 100.31 124.84 98.53 123.11 100.98 122.75 102.08 120.53"/><polygon class="cls-8" points="114.5 120.53 115.6 122.75 118.05 123.11 116.27 124.84 116.69 127.29 114.5 126.13 112.3 127.29 112.72 124.84 110.94 123.11 113.4 122.75 114.5 120.53"/><polygon class="cls-8" points="126.91 120.53 128.01 122.75 130.47 123.11 128.69 124.84 129.11 127.29 126.91 126.13 124.71 127.29 125.13 124.84 123.36 123.11 125.81 122.75 126.91 120.53"/><polygon class="cls-9" points="139.33 120.53 140.42 122.75 142.88 123.11 141.1 124.84 141.52 127.29 139.33 126.13 137.13 127.29 137.55 124.84 135.77 123.11 138.23 122.75 139.33 120.53"/><polygon class="cls-9" points="151.74 120.53 152.84 122.75 155.29 123.11 153.52 124.84 153.94 127.29 151.74 126.13 149.54 127.29 149.96 124.84 148.19 123.11 150.64 122.75 151.74 120.53"/><polygon class="cls-8" points="102.08 133.27 103.18 135.49 105.64 135.85 103.86 137.58 104.28 140.03 102.08 138.87 99.89 140.03 100.31 137.58 98.53 135.85 100.98 135.49 102.08 133.27"/><polygon class="cls-8" points="114.5 133.27 115.6 135.49 118.05 135.85 116.27 137.58 116.69 140.03 114.5 138.87 112.3 140.03 112.72 137.58 110.94 135.85 113.4 135.49 114.5 133.27"/><polygon class="cls-8" points="126.91 133.27 128.01 135.49 130.47 135.85 128.69 137.58 129.11 140.03 126.91 138.87 124.71 140.03 125.13 137.58 123.36 135.85 125.81 135.49 126.91 133.27"/><polygon class="cls-8" points="139.33 133.27 140.42 135.49 142.88 135.85 141.1 137.58 141.52 140.03 139.33 138.87 137.13 140.03 137.55 137.58 135.77 135.85 138.23 135.49 139.33 133.27"/><polygon class="cls-9" points="151.74 133.27 152.84 135.49 155.29 135.85 153.52 137.58 153.94 140.03 151.74 138.87 149.54 140.03 149.96 137.58 148.19 135.85 150.64 135.49 151.74 133.27"/><rect class="cls-8" x="97.09" y="208.92" width="17.8" height="17.8"/><path class="cls-8" d="M112.81,233.87H99.17a2.08,2.08,0,0,1-2.08-2.08h0a2.1,2.1,0,0,1,2.08-2.07h13.64a2.09,2.09,0,0,1,2.08,2.07h0A2.08,2.08,0,0,1,112.81,233.87Z"/><rect class="cls-8" x="122.41" y="208.92" width="49.58" height="3.81" rx="1.9"/><rect class="cls-8" x="122.41" y="218.92" width="39.58" height="3.81" rx="1.9"/><rect class="cls-8" x="122.41" y="228.92" width="49.58" height="3.81" rx="1.9"/><rect class="cls-8" x="122.41" y="238.92" width="23.58" height="3.81" rx="1.9"/><rect class="cls-6" x="21.55" y="62.06" width="64.18" height="85.22"/><rect class="cls-1" x="24.55" y="65.06" width="58.18" height="79.22"/><rect class="cls-3" x="24.55" y="65.06" width="58.18" height="79.22"/><path class="cls-1" d="M82.73,126.58v17.7H78.21a23.6,23.6,0,0,0-4.11-3.13,9.46,9.46,0,0,0-2.28-1c-6.79-1.84,3-20,3-20h0C77.08,120.87,79.89,123.43,82.73,126.58Z"/><path class="cls-7" d="M82.73,126.58v17.7H78.21a23.6,23.6,0,0,0-4.11-3.13,9.46,9.46,0,0,0-2.28-1c-6.79-1.84,3-20,3-20h0C77.08,120.87,79.89,123.43,82.73,126.58Z"/><path class="cls-10" d="M82.73,144.22v.06H78.21a23.6,23.6,0,0,0-4.11-3.13l1.34-8.37a19,19,0,0,1,3.45,3.72h0A25.49,25.49,0,0,1,82.73,144.22Z"/><path class="cls-4" d="M70.27,119.42c-.14.72-.28,1.45-.44,2.17s-.38,1.71-.59,2.56c-2.18,8.77-5.78,16.45-10.94,20.13H40.66c-5.13-2.61-6.11-7-5.94-11.6.11-3.11.75-6.28,1-9a16.6,16.6,0,0,0,0-2.82c-.13-1.42-.4-3.13-.73-5-1.53-8.71-4.52-21.28-3-27.73,1.81-7.84,7.53-10,7.53-10S41.46,78,44.44,78c2.2,0,5,.11,7.93.39h.24a58.32,58.32,0,0,1,9.73,1.72l.73.21c.63.19,1.26.39,1.87.61h0c.4.14.79.29,1.18.45h0a3.8,3.8,0,0,1,1.34.93C72,87,73.08,104,70.27,119.42Z"/><path class="cls-11" d="M65,82.37c6.35-3,9.09,17.71,6.82,32.66"/><path class="cls-1" d="M79.37,144.28H33.73c-.19-.86-.38-1.72-.58-2.57a102.33,102.33,0,0,0-4.47-14.62h0a42.26,42.26,0,0,1,5.84-2.89c.38-.17.77-.33,1.19-.49,1.58-.63,3.42-1.28,5.48-1.9l.66-.19c1.55-.45,3.22-.87,5-1.24h0A70.29,70.29,0,0,1,58.13,119h0a67.63,67.63,0,0,1,8.66.14h0c1.13.08,2.28.19,3.45.34,1.47.18,3,.41,4.51.7h0c.17.27,3,4.69,4.1,16.37h0C79.13,138.81,79.3,141.39,79.37,144.28Z"/><path class="cls-1" d="M41.45,130.72s-5.22-12.86,11.08-14.31,19.55,8.71,19.55,8.71l-7.57-2.62-4,18.45a30.21,30.21,0,0,0-14.28-16.37Z"/><path class="cls-7" d="M41.45,130.72s-5.22-12.86,11.08-14.31,19.55,8.71,19.55,8.71l-7.57-2.62-4,18.45a30.21,30.21,0,0,0-14.28-16.37Z"/><path class="cls-12" d="M59.83,132.78a67,67,0,0,0-14.17-11.2c3.9-3.3,3.5-8.5,2.72-11.77a17.6,17.6,0,0,0-1-3l10.83,2.62a33.71,33.71,0,0,0-.67,4.58,14.33,14.33,0,0,0,.13,3.4c.57,3.31,2.43,3.45,2.43,3.45C61.87,124.58,59.83,132.78,59.83,132.78Z"/><path class="cls-10" d="M57.61,114a14.33,14.33,0,0,0,.13,3.4c-4.31-.8-7.42-4.45-9.33-7.57a17.6,17.6,0,0,0-1-3l10.83,2.62A33.19,33.19,0,0,0,57.61,114Z"/><path class="cls-12" d="M54.15,78.36c11.79,0,12.78,5.7,13.46,15.52.84,12.28-1.9,21-13.81,18.34C37.61,108.63,38.32,78.36,54.15,78.36Z"/><path class="cls-13" d="M61.45,93.34a20.78,20.78,0,0,0,2.76,4,2.58,2.58,0,0,1-2.51,1.08Z"/><path class="cls-4" d="M55.61,92.58c0,.79-.39,1.43-.92,1.44s-1-.61-1-1.4.39-1.42.91-1.43S55.61,91.76,55.61,92.58Z"/><path class="cls-4" d="M54.43,91.19l1.69-.71S55.3,91.93,54.43,91.19Z"/><path class="cls-4" d="M65.35,92.17c0,.79-.39,1.43-.92,1.44s-1-.61-1-1.4.39-1.42.91-1.43S65.33,91.39,65.35,92.17Z"/><path class="cls-4" d="M64.16,90.87l1.68-.7S65.08,91.58,64.16,90.87Z"/><path class="cls-14" d="M55.54,86s-2.68-.35-4.14,1.43"/><path class="cls-14" d="M62.47,85.58a4.44,4.44,0,0,1,3.79.79"/><path class="cls-4" d="M43.9,95s4.47-7.82,3.81-13.87c0,0,6.72-6.93,15.77-.08,0,0,3.79,6.52,4,11.58,0,0,1.88-17-14.5-17.43s-16.37,23.55-7.9,30.7C45.08,105.87,41.13,99.87,43.9,95Z"/><path class="cls-12" d="M45.45,97A4.2,4.2,0,0,0,41,93.15c-3,.32-4.38,6.38,3,7.85C45,101.21,45.61,100.18,45.45,97Z"/><path class="cls-14" d="M60.41,103.58s-4,.9-5.65-2.67"/><path class="cls-4" d="M47.71,81.1s10.89-4.83,18.1,1.55c0,0,2.83-8.4-6.83-11.27S39.5,78.17,39.5,78.17Z"/><path class="cls-4" d="M47.71,81.1s-6.36,6.27-5.44,18.76S42,120.25,39.5,128.07s4,10.15,4,10.15-7.4,1.82-8.92-6.1c-1-5.2,1.38-16.46.18-29.87S38.35,79.35,47.71,81.1Z"/><path class="cls-10" d="M35.84,144.28H33.73c-.19-.86-.38-1.72-.58-2.57l1.59-1.39h0A32.3,32.3,0,0,1,35.84,144.28Z"/><path class="cls-1" d="M34.75,144.28H24.55v-14a26.88,26.88,0,0,1,4.12-3.17h0a9.22,9.22,0,0,1,5.55,7.2,46.4,46.4,0,0,1,.51,6C34.78,141.74,34.77,143.11,34.75,144.28Z"/><path class="cls-7" d="M34.75,144.28H24.55v-14a26.88,26.88,0,0,1,4.12-3.17h0a9.22,9.22,0,0,1,5.55,7.2,46.4,46.4,0,0,1,.51,6C34.78,141.74,34.77,143.11,34.75,144.28Z"/><rect class="cls-8" x="21.55" y="157.21" width="64.18" height="85.1"/><path class="cls-15" d="M74.94,170.4H31.17a1.91,1.91,0,0,1-1.9-1.91h0a1.91,1.91,0,0,1,1.9-1.9H74.94a1.9,1.9,0,0,1,1.91,1.87v0h0a1.92,1.92,0,0,1-1.91,1.91h0Z"/><rect class="cls-15" x="29.27" y="177.23" width="47.58" height="3.81" rx="1.9"/><path class="cls-15" d="M54.94,191.69H31.17a1.91,1.91,0,0,1-1.9-1.91h0a1.91,1.91,0,0,1,1.9-1.9H54.94a1.9,1.9,0,0,1,1.91,1.87v0h0a1.92,1.92,0,0,1-1.91,1.91Z"/><path class="cls-15" d="M74.94,202.33H31.17a1.91,1.91,0,0,1-1.9-1.9h0a1.91,1.91,0,0,1,1.9-1.91H74.94a1.92,1.92,0,0,1,1.91,1.91h0a1.9,1.9,0,0,1-1.9,1.9Z"/><path class="cls-15" d="M74.94,213H31.17a1.91,1.91,0,0,1-1.9-1.9h0a1.91,1.91,0,0,1,1.9-1.9H74.94A1.9,1.9,0,0,1,76.85,211v0h0A1.9,1.9,0,0,1,75,213Z"/><path class="cls-15" d="M44.94,223.58H31.17a1.91,1.91,0,0,1-1.9-1.9h0a1.91,1.91,0,0,1,1.89-1.91H44.94a1.9,1.9,0,0,1,1.91,1.87v0h0a1.9,1.9,0,0,1-1.9,1.9Z"/><path class="cls-15" d="M64.94,234.26H31.17a1.91,1.91,0,0,1-1.9-1.9h0a1.91,1.91,0,0,1,1.9-1.9H64.94a1.9,1.9,0,0,1,1.91,1.87v0h0a1.9,1.9,0,0,1-1.9,1.9Z"/></g><text class="cls-16" transform="translate(72.61 56.77)">PDF</text></g></g></svg>