<?xml version="1.0" encoding="utf-8"?>
<!-- Generator: Adobe Illustrator 23.0.1, SVG Export Plug-In . SVG Version: 6.00 Build 0)  -->
<svg version="1.1" id="Capa_1" xmlns="http://www.w3.org/2000/svg" xmlns:xlink="http://www.w3.org/1999/xlink" x="0px" y="0px"
	 viewBox="0 0 500 500" style="enable-background:new 0 0 500 500;" xml:space="preserve">
<style type="text/css">
	.st0{fill:#EBEBEB;}
	.st1{fill:#F5F5F5;}
	.st2{fill:#E0E0E0;}
	.st3{fill:none;stroke:#EBEBEB;stroke-width:2;stroke-linecap:round;stroke-linejoin:round;}
	.st4{fill:none;stroke:#EBEBEB;stroke-width:2;stroke-linecap:round;stroke-linejoin:round;stroke-dasharray:4.8716,4.8716;}
	.st5{fill:none;stroke:#EBEBEB;stroke-width:2;stroke-linecap:round;stroke-linejoin:round;stroke-dasharray:4.9781,4.9781;}
	.st6{fill:none;stroke:#EBEBEB;stroke-width:2;stroke-linecap:round;stroke-linejoin:round;stroke-dasharray:5.3134,5.3134;}
	.st7{fill:none;stroke:#EBEBEB;stroke-width:2;stroke-linecap:round;stroke-linejoin:round;stroke-dasharray:5.5373,5.5373;}
	.st8{fill:none;stroke:#EBEBEB;stroke-width:2;stroke-linecap:round;stroke-linejoin:round;stroke-dasharray:5;}
	.st9{fill:#263238;}
	.st10{fill:none;stroke:#263238;stroke-width:0.5;stroke-linecap:round;stroke-linejoin:round;}
	.st11{fill:#E4897B;}
	.st12{fill:#6C48EF;}
	.st13{opacity:0.6;fill:#FFFFFF;enable-background:new    ;}
	.st14{opacity:0.2;enable-background:new    ;}
	.st15{fill:#2E353A;}
	.st16{opacity:0.2;fill:#FFFFFF;enable-background:new    ;}
	.st17{fill:#FFFFFF;}
	.st18{fill:#DE5753;}
	.st19{fill:none;stroke:#263238;stroke-width:0.708;stroke-linecap:round;stroke-linejoin:round;}
	.st20{opacity:0.8;fill:#FFFFFF;enable-background:new    ;}
	.st21{opacity:0.4;fill:#FFFFFF;enable-background:new    ;}
	.st22{opacity:0.2;}
	.st23{opacity:0.3;enable-background:new    ;}
	.st24{opacity:0.1;enable-background:new    ;}
	.st25{opacity:0.3;fill:#FFFFFF;enable-background:new    ;}
	.st26{opacity:0.5;fill:#FFFFFF;enable-background:new    ;}
</style>
<g id="freepik--background-complete--inject-93">
	<rect x="322.5" y="401.2" class="st0" width="8.7" height="0.3"/>
	<rect x="396.6" y="389.2" class="st0" width="19.2" height="0.3"/>
	<rect x="364.5" y="86.5" class="st1" width="48.7" height="60"/>
	<rect x="367.4" y="89.3" class="st0" width="43" height="54.3"/>
	<path class="st2" d="M405.2,129.9v13.7h-32.6v-13.7c0-7.3,5.2-13.6,12.5-14.9c-5.4-2.1-8.1-8.2-6-13.6s8.2-8.1,13.6-6
		s8.1,8.2,6,13.6c-1.1,2.7-3.2,4.9-6,6C399.9,116.3,405.2,122.6,405.2,129.9z"/>
	<rect x="85.9" y="100.4" class="st2" width="40.6" height="27.2"/>
	<polygon class="st0" points="106.2,91.8 73.7,100.4 106.2,109.1 138.8,100.4 	"/>
	<path class="st1" d="M123,121.3v-16.5c0-0.3-0.2-0.6-0.5-0.7l-16.1-4.4c-0.4-0.1-0.8,0.1-0.9,0.5c-0.1,0.4,0.1,0.8,0.5,0.9
		c0,0,0,0,0,0l15.6,4.2v15.9c-1,0.4-1.5,1.5-1.1,2.5c0.4,1,1.5,1.5,2.5,1.1c1-0.4,1.5-1.5,1.1-2.5
		C123.9,121.9,123.5,121.5,123,121.3L123,121.3z"/>
	<polygon class="st2" points="210.6,64.3 203.9,103.5 239.3,103.5 	"/>
	<polygon class="st1" points="264.7,103.5 216.4,103.5 210.6,64.3 258.8,64.3 	"/>
	<polygon class="st0" points="259.9,71.5 211.7,71.5 210.6,64.3 258.8,64.3 	"/>
	<polygon class="st2" points="226.3,78.9 222.1,78.9 221.5,74.7 225.7,74.7 	"/>
	<polygon class="st2" points="232.6,78.9 228.5,78.9 227.8,74.7 232,74.7 	"/>
	<polygon class="st2" points="238.9,78.9 234.8,78.9 234.2,74.7 238.3,74.7 	"/>
	<polygon class="st2" points="245.3,78.9 241.1,78.9 240.5,74.7 244.6,74.7 	"/>
	<polygon class="st2" points="251.6,78.9 247.4,78.9 246.8,74.7 251,74.7 	"/>
	<polygon class="st2" points="257.9,78.9 253.8,78.9 253.2,74.7 257.3,74.7 	"/>
	<polygon class="st2" points="220.9,84.8 216.7,84.8 216.1,80.7 220.2,80.7 	"/>
	<polygon class="st2" points="227.2,84.8 223,84.8 222.4,80.7 226.6,80.7 	"/>
	<polygon class="st2" points="233.5,84.8 229.4,84.8 228.7,80.7 232.9,80.7 	"/>
	<polygon class="st2" points="239.8,84.8 235.7,84.8 235.1,80.7 239.2,80.7 	"/>
	<polygon class="st2" points="246.2,84.8 242,84.8 241.4,80.7 245.6,80.7 	"/>
	<polygon class="st2" points="252.5,84.8 248.4,84.8 247.7,80.7 251.9,80.7 	"/>
	<polygon class="st2" points="258.8,84.8 254.7,84.8 254.1,80.7 258.2,80.7 	"/>
	<polygon class="st2" points="221.8,90.8 217.6,90.8 217,86.7 221.1,86.7 	"/>
	<polygon class="st2" points="228.1,90.8 223.9,90.8 223.3,86.7 227.4,86.7 	"/>
	<polygon class="st2" points="234.4,90.8 230.3,90.8 229.6,86.7 233.8,86.7 	"/>
	<polygon class="st2" points="240.7,90.8 236.6,90.8 236,86.7 240.1,86.7 	"/>
	<polygon class="st2" points="247.1,90.8 242.9,90.8 242.3,86.7 246.4,86.7 	"/>
	<polygon class="st2" points="253.4,90.8 249.3,90.8 248.6,86.7 252.8,86.7 	"/>
	<polygon class="st2" points="259.7,90.8 255.6,90.8 254.9,86.7 259.1,86.7 	"/>
	<polygon class="st2" points="222.6,96.8 218.5,96.8 217.9,92.7 222,92.7 	"/>
	<polygon class="st2" points="229,96.8 224.8,96.8 224.2,92.7 228.4,92.7 	"/>
	<polygon class="st2" points="235.3,96.8 231.1,96.8 230.5,92.7 234.7,92.7 	"/>
	<polygon class="st2" points="241.6,96.8 237.5,96.8 236.9,92.7 241,92.7 	"/>
	<polygon class="st2" points="248,96.8 243.8,96.8 243.2,92.7 247.3,92.7 	"/>
	<polygon class="st2" points="254.3,96.8 250.1,96.8 249.5,92.7 253.7,92.7 	"/>
	<path class="st2" d="M412,227.7h36.5c1.2,0,2.2,1,2.2,2.2V282c0,1.2-1,2.2-2.2,2.2H412c-1.2,0-2.2-1-2.2-2.2v-52.1
		C409.8,228.7,410.8,227.7,412,227.7z"/>
	<path class="st1" d="M406.2,222.2h36.5c1.2,0,2.2,1,2.2,2.2v52.1c0,1.2-1,2.2-2.2,2.2h-36.5c-1.2,0-2.2-1-2.2-2.2v-52.1
		C404,223.2,405,222.2,406.2,222.2z"/>
	<path class="st0" d="M437.7,231.1h-26.6c-0.7,0-1.3-0.6-1.3-1.3c0,0,0,0,0,0l0,0c0-0.7,0.6-1.3,1.3-1.3h26.6c0.7,0,1.3,0.6,1.3,1.3
		l0,0C439.1,230.5,438.5,231.1,437.7,231.1C437.7,231.1,437.7,231.1,437.7,231.1z"/>
	<path class="st0" d="M437.7,238h-26.6c-0.7,0-1.3-0.6-1.3-1.3l0,0c0-0.7,0.6-1.3,1.3-1.3c0,0,0,0,0,0h26.6c0.7,0,1.3,0.6,1.3,1.3
		c0,0,0,0,0,0l0,0C439,237.4,438.5,238,437.7,238z"/>
	<path class="st0" d="M437.7,244.9h-26.6c-0.7,0-1.3-0.6-1.3-1.3c0,0,0,0,0,0l0,0c0-0.7,0.6-1.3,1.3-1.3h26.6c0.7,0,1.3,0.6,1.3,1.3
		l0,0C439.1,244.3,438.5,244.9,437.7,244.9C437.7,244.9,437.7,244.9,437.7,244.9z"/>
	<path class="st0" d="M437.7,251.8h-26.6c-0.7,0-1.3-0.6-1.3-1.3l0,0c0-0.7,0.6-1.3,1.3-1.3c0,0,0,0,0,0h26.6c0.7,0,1.3,0.6,1.3,1.3
		c0,0,0,0,0,0l0,0C439,251.2,438.5,251.8,437.7,251.8z"/>
	<path class="st0" d="M437.7,258.6h-26.6c-0.7,0-1.3-0.6-1.3-1.3c0,0,0,0,0,0l0,0c0-0.7,0.6-1.3,1.3-1.3c0,0,0,0,0,0h26.6
		c0.7,0,1.3,0.6,1.3,1.3c0,0,0,0,0,0l0,0C439.1,258,438.5,258.6,437.7,258.6C437.7,258.7,437.7,258.7,437.7,258.6z"/>
	<path class="st0" d="M437.7,265.5h-26.6c-0.7,0-1.3-0.6-1.3-1.3c0,0,0,0,0,0l0,0c0-0.7,0.6-1.3,1.3-1.3h26.6c0.7,0,1.3,0.6,1.3,1.3
		l0,0C439.1,264.9,438.5,265.5,437.7,265.5C437.7,265.5,437.7,265.5,437.7,265.5z"/>
	<path class="st0" d="M431.7,272.4h-20.6c-0.7,0-1.3-0.6-1.3-1.3l0,0c0-0.7,0.6-1.3,1.3-1.3c0,0,0,0,0,0h20.6c0.7,0,1.3,0.6,1.3,1.3
		c0,0,0,0,0,0l0,0C433,271.8,432.5,272.4,431.7,272.4z"/>
	<line class="st3" x1="388.5" y1="149.1" x2="388.5" y2="151.6"/>
	<line class="st4" x1="388.5" y1="156.4" x2="388.5" y2="193"/>
	<polyline class="st3" points="388.5,195.4 388.5,197.9 386,197.9 	"/>
	<line class="st5" x1="381" y1="197.9" x2="293.9" y2="197.9"/>
	<polyline class="st3" points="291.4,197.9 288.9,197.9 288.9,200.4 	"/>
	<line class="st6" x1="288.9" y1="205.7" x2="288.9" y2="213.7"/>
	<polyline class="st3" points="288.9,216.4 288.9,218.9 286.4,218.9 	"/>
	<line class="st7" x1="280.8" y1="218.9" x2="272.5" y2="218.9"/>
	<line class="st3" x1="269.8" y1="218.9" x2="267.3" y2="218.9"/>
	<polyline class="st8" points="428.1,289.5 428.1,308.1 288.9,308.1 288.9,249.1 269.1,249.1 	"/>
	<polyline class="st8" points="269.1,84.8 296,84.8 296,189.1 246.8,189.1 	"/>
	<polyline class="st8" points="132.4,116.5 157.1,116.5 157.1,220.1 194.5,220.1 	"/>
	<polygon class="st2" points="77.3,314.7 66.2,307.7 54.8,314.7 54.8,277.3 77.3,277.3 	"/>
	<circle class="st1" cx="66" cy="273.9" r="17.5"/>
	
		<ellipse transform="matrix(0.7071 -0.7071 0.7071 0.7071 -174.3263 126.8974)" class="st0" cx="66" cy="273.9" rx="14.8" ry="14.9"/>
	<polyline class="st8" points="89.5,274.4 166.6,274.4 166.6,249.1 194.5,249.1 	"/>
</g>
<g id="freepik--Shadow--inject-93">
	<ellipse id="freepik--path--inject-93" class="st1" cx="250" cy="416.2" rx="193.9" ry="11.3"/>
</g>
<g id="freepik--Character--inject-93">
	<path class="st9" d="M112.8,141.6c0,0-5,1.9-6.6,8.7s2.6,21.6,3.3,28.6s-7,21.2,12.9,22.4s22.8-53.1,13.6-56.9
		S112.8,141.6,112.8,141.6z"/>
	<path class="st10" d="M135.1,145.2c5.6-2.6,7.9,15.5,6,28.5"/>
	<path class="st11" d="M182.3,137.9l2.4-6.5c0,0-1-1.2,3.6-3.4s7.3-3.4,9.2-2.8s4.4,4.8,4.2,6.3s-12.7,3.5-12.7,3.5l-1.8,5
		L182.3,137.9z"/>
	<path class="st12" d="M143.8,171.3c0,0,21.8-6.5,25.3-9.9s13.6-28.2,13.6-28.2l7.3,3c0,0-7.5,28.9-13.8,35.6s-30.7,18.6-30.7,18.6
		L143.8,171.3z"/>
	<path class="st13" d="M143.8,171.3c0,0,21.8-6.5,25.3-9.9s13.6-28.2,13.6-28.2l7.3,3c0,0-7.5,28.9-13.8,35.6s-30.7,18.6-30.7,18.6
		L143.8,171.3z"/>
	<path class="st11" d="M104.4,393.1l4.8,2.8c2.3-3,4.7-6,7.3-8.7l0,0c1.4-1.5,2.9-3.1,4.4-4.9c3.1-3.5,6.4-7.5,9.8-11.8l3.1-3.9
		c12.1-15.2,25.2-33.1,30.1-45.2c1.5-3.8,2.3-7,1.9-9.3c-1-7.2-3.8-18.1-7-28.6c-4.9-16-10.4-31.3-10.4-31.3l-13.5,22.8
		c0,0,4.1,9.9,7.9,20.4c3.7,10.3,7.1,21.3,5.8,24.1c-0.1,0.3-0.3,0.6-0.4,1c-2.2,4.6-8.4,15.1-15.5,26.8l-2.1,3.5
		c-3.8,6.2-7.7,12.6-11.3,18.4c-1.4,2.3-2.8,4.5-4.1,6.6C109.1,385.8,104.4,393.1,104.4,393.1z"/>
	<path class="st14" d="M134.2,366.6c-6.4,8-12.5,15.3-17.1,20.6c-0.7-3.3-1.3-7.1-1.8-11.3c5.3-8.5,11.7-18.9,17.6-28.6
		C132.8,353.7,133.2,360.2,134.2,366.6z"/>
	<path class="st11" d="M110.1,300.5c1.7,11.4,4,21.7,5.6,27.9c0.9,3.7,1.6,5.9,1.6,5.9c0,11.7,0.7,23.4,2.1,35
		c0.5,4.6,1.1,9,1.6,13.1c2.1,15.1,4.3,26,4.3,26l5.8-0.8l-0.2-37.1l-0.1-19.7l-0.2-26.8l-0.1-4.7l-0.3-20.3l-0.4-30l-20-9
		C107.1,271.5,108.1,286.8,110.1,300.5z"/>
	<path class="st14" d="M163.7,300.7c-5.1,3.5-12,5.6-16.7,6.8c-1.1-3.7-2.5-7.9-4-12c-3.8-10.5-7.9-20.4-7.9-20.4l13.5-22.9
		c0,0,5.5,15.2,10.4,31.3C160.7,289.3,162.4,295.3,163.7,300.7z"/>
	<path class="st14" d="M130.4,311.7c-6.2-0.1-12.4-0.6-18.6-1.3c-0.6-3.1-1.2-6.4-1.7-9.9c-2-13.7-3-29-0.3-40.4l20,9l0.4,30
		L130.4,311.7z"/>
	<path class="st9" d="M164.6,298.7c-12.5,7.4-49.3,10.5-49.3,10.5l-6-16.9L110,309h-1.8c0,0-13.4-45.5,4.4-75.3l32-2.5l3.5,16.5
		C148.1,247.7,157.1,271.3,164.6,298.7z"/>
	<path class="st15" d="M141.2,415.7c-0.9-0.6-2-0.9-3.1-1.1l0,0c0,0-3.5-2.6-6.3-11.7l-4.2-0.5c-1.5-0.1-2.9,0.7-3.5,2
		c-0.1,0.2-0.2,0.4-0.2,0.6c-0.1,1-0.1,2,0,3.1c0.3,3.4,0.7,6.8,1.4,10.2l0.7-0.1l-0.6-6.4c-0.2-2.2,1.8,0.1,2.6,2.4
		c0.8,2.3,2.2,4.6,6.9,4C140.5,417.4,142.8,416.9,141.2,415.7z"/>
	<path class="st11" d="M130.6,399.7c0,0,1.5,4.1,3.5,8.6c0.9,2.3,2.3,4.5,4,6.3c0,0-3.5,1.1-5.4-1s-5.1-10-8.7-9.1
		c0.2-0.6,0.5-1.3,0.8-1.8C125.4,401.6,130.6,399.7,130.6,399.7z"/>
	<path class="st15" d="M105.9,412.1c-0.2-1.1-0.6-2.1-1.2-3.1l0,0c0,0-0.4-4.4,4.6-12.5l-2.4-3.5c-0.9-1.2-2.4-1.7-3.8-1.3
		c-0.2,0.1-0.4,0.1-0.6,0.2c-0.8,0.6-1.6,1.3-2.3,2c-2.4,2.5-4.6,5.1-6.7,7.8l0.6,0.5l4.4-4.7c1.5-1.6,1.1,1.5-0.1,3.5
		s-2,4.7,1.6,7.9C104.2,412.8,106.1,414.1,105.9,412.1z"/>
	<path class="st11" d="M110.9,393.6c0,0-2.1,3.8-4.1,8.3c-1.1,2.2-1.8,4.7-2.1,7.2c0,0-3.1-1.9-2.8-4.7s4.2-10.5,1.1-12.6
		c0.6-0.3,1.2-0.5,1.9-0.6C106,391,110.9,393.6,110.9,393.6z"/>
	<polygon class="st9" points="112.3,230.4 112.1,235.2 145.2,233.9 145.4,228.2 	"/>
	<polygon class="st16" points="112.3,230.4 112.1,235.2 145.2,233.9 145.4,228.2 	"/>
	
		<rect x="121.9" y="228.8" transform="matrix(0.9999 -1.343863e-02 1.343863e-02 0.9999 -3.1192 1.6701)" class="st9" width="1.6" height="8.4"/>
	
		<rect x="130.6" y="228.9" transform="matrix(0.9987 -5.163877e-02 5.163877e-02 0.9987 -11.7852 7.2419)" class="st17" width="7.2" height="5.5"/>
	
		<rect x="142.1" y="227.3" transform="matrix(0.9999 -1.326411e-02 1.326411e-02 0.9999 -3.0578 1.9162)" class="st9" width="1.6" height="8.4"/>
	<path class="st11" d="M103.3,232.4l7.6,4.3c1.8,0.7,3.2,1.9,4.2,3.6c1.8,3-0.8,14.4-2.3,14.4s-9.6-1.8-9.5-3.4s3.3-9.1,3.3-9.1
		l-7.3-4.6L103.3,232.4z"/>
	<path class="st12" d="M112.1,230.4c0,0-2-29.3-8.8-46.1c0,0,14-7.5,40.5-13c0,0,7.6,18.4,1.6,57.3L112.1,230.4z"/>
	<circle class="st13" cx="134.1" cy="201.3" r="0.9"/>
	<path class="st13" d="M136,212.7c-0.1,0.5-0.5,0.9-1,0.8c-0.4,0-0.8-0.4-0.8-0.8c-0.1-0.5,0.3-1,0.8-1s1,0.3,1,0.8
		C136,212.6,136,212.6,136,212.7z"/>
	<path class="st13" d="M136,223.5c-0.1,0.5-0.5,0.9-1,0.8c-0.4,0-0.8-0.4-0.8-0.8c-0.1-0.5,0.3-1,0.8-1s1,0.3,1,0.8
		C136,223.4,136,223.4,136,223.5z"/>
	<path class="st12" d="M103.3,184.3c-6.2,3.4-28.8,29.3-27,37.1s27,19.8,27,19.8l4.3-7.5c0,0-16.5-12.3-17.3-14.3
		s18.2-16.9,18.2-16.9c0.2-4,0.1-7.9-0.3-11.9C107.8,187.8,105.9,185.4,103.3,184.3z"/>
	<path class="st13" d="M103.3,184.3c-6.2,3.4-28.8,29.3-27,37.1s27,19.8,27,19.8l4.3-7.5c0,0-16.5-12.3-17.3-14.3
		s18.2-16.9,18.2-16.9c0.2-4,0.1-7.9-0.3-11.9C107.8,187.8,105.9,185.4,103.3,184.3z"/>
	<path class="st12" d="M115,189.5c0,0-6.3-10.3,7.5-13.9s18.1,4.8,18.1,4.8l-6.9-1.2l-0.9,16.5c-3.2-5.7-8.4-10-14.6-12.1L115,189.5
		z"/>
	<path class="st13" d="M115,189.5c0,0-6.3-10.3,7.5-13.9s18.1,4.8,18.1,4.8l-6.9-1.2l-0.9,16.5c-3.2-5.7-8.4-10-14.6-12.1L115,189.5
		z"/>
	<path class="st11" d="M130.7,187.5c-4.6-2.2-9.1-4.7-13.3-7.6c3.3-3.1,2.7-7.6,1.8-10.4c-0.3-0.9-0.6-1.8-1-2.6l9.6,1.8
		c-0.2,1.3-0.3,2.7-0.4,4c0,1,0.1,2,0.3,3c0.7,2.9,2.3,2.9,2.3,2.9C131.7,181.7,130.7,187.5,130.7,187.5z"/>
	<path class="st14" d="M127.5,172.7c0,1,0.1,2,0.3,3c-3.8-0.5-6.7-3.5-8.5-6.2c-0.3-0.9-0.6-1.8-1-2.6l9.6,1.8
		C127.6,170,127.5,171.3,127.5,172.7z"/>
	<path class="st11" d="M125.6,141.7c10.3,0,11.2,5,11.8,13.6c0.7,10.7-1.6,18.3-12.1,16C111.2,168.2,111.8,141.7,125.6,141.7z"/>
	<path class="st18" d="M132,154.8c0.7,1.2,1.5,2.4,2.4,3.5c-0.5,0.7-1.3,1.1-2.2,0.9L132,154.8z"/>
	<path class="st9" d="M126.9,154.1c0,0.7-0.3,1.2-0.8,1.3s-0.8-0.5-0.8-1.2s0.3-1.2,0.8-1.3S126.8,153.4,126.9,154.1z"/>
	<path class="st9" d="M125.8,152.9l1.5-0.6C127.3,152.3,126.6,153.6,125.8,152.9z"/>
	<path class="st9" d="M135.4,153.8c0,0.7-0.4,1.2-0.8,1.3s-0.8-0.5-0.9-1.2s0.3-1.3,0.8-1.3S135.4,153.1,135.4,153.8z"/>
	<path class="st9" d="M134.3,152.6l1.5-0.6C135.8,152,135.1,153.3,134.3,152.6z"/>
	<path class="st19" d="M126.8,148.4c-1.3-0.2-2.7,0.3-3.6,1.3"/>
	<path class="st19" d="M132.9,148c1.2-0.3,2.4,0,3.3,0.7"/>
	<path class="st9" d="M116.6,156.2c0,0,3.9-6.8,3.3-12.1c0,0,5.9-6.1,13.8-0.1c0,0,3.3,5.7,3.5,10.1c0,0,1.6-14.9-12.7-15.2
		s-14.3,20.6-6.9,26.8C117.7,165.8,114.2,160.5,116.6,156.2z"/>
	<path class="st11" d="M118,158c-0.2-2-1.9-3.5-3.9-3.4c0,0,0,0,0,0c-2.6,0.3-3.8,5.6,2.6,6.9C117.6,161.7,118.1,160.8,118,158z"/>
	<path class="st19" d="M131.1,163.7c0,0-3.5,0.8-4.9-2.3"/>
	<path class="st9" d="M120,144.1c0,0,9.5-4.2,15.8,1.4c0,0,2.5-7.3-6-9.8s-17,5.9-17,5.9L120,144.1z"/>
	<path class="st9" d="M120,144.1c0,0-5.6,5.5-4.8,16.4s-0.3,17.8-2.4,24.6s3.5,8.9,3.5,8.9s-6.5,1.6-7.8-5.3
		c-0.9-4.5,1.2-14.4,0.2-26.1S111.8,142.6,120,144.1z"/>
</g>
<g id="freepik--Clipboard--inject-93">
	<path class="st12" d="M274.5,119.8c-5.1,0-9.2,4.1-9.2,9.2c0,5.1,4.1,9.2,9.2,9.2c5.1,0,9.2-4.1,9.2-9.2
		C283.7,123.9,279.5,119.8,274.5,119.8L274.5,119.8z M274.5,128.1c-1.5,0-2.7-1.2-2.7-2.7s1.2-2.7,2.7-2.7c1.5,0,2.7,1.2,2.7,2.7
		C277.1,126.9,275.9,128.1,274.5,128.1L274.5,128.1z"/>
	<path class="st13" d="M274.5,119.8c-5.1,0-9.2,4.1-9.2,9.2c0,5.1,4.1,9.2,9.2,9.2c5.1,0,9.2-4.1,9.2-9.2
		C283.7,123.9,279.5,119.8,274.5,119.8L274.5,119.8z M274.5,128.1c-1.5,0-2.7-1.2-2.7-2.7s1.2-2.7,2.7-2.7c1.5,0,2.7,1.2,2.7,2.7
		C277.1,126.9,275.9,128.1,274.5,128.1L274.5,128.1z"/>
	<path class="st12" d="M183.4,131.9h182.1c4.1,0,7.5,3.4,7.5,7.5v271.3c0,4.1-3.4,7.5-7.5,7.5H183.4c-4.1,0-7.5-3.4-7.5-7.5V139.4
		C175.9,135.2,179.3,131.9,183.4,131.9z"/>
	<rect x="186.4" y="148.5" class="st20" width="176.2" height="256"/>
	<path class="st12" d="M227.6,129.4h93.7c1.1,0,1.9,0.9,1.9,1.9v12c0,1.1-0.9,1.9-1.9,1.9h-93.7c-1.1,0-1.9-0.9-1.9-1.9v-12
		C225.7,130.3,226.5,129.4,227.6,129.4z"/>
	<path class="st21" d="M227.6,129.4h93.7c1.1,0,1.9,0.9,1.9,1.9v12c0,1.1-0.9,1.9-1.9,1.9h-93.7c-1.1,0-1.9-0.9-1.9-1.9v-12
		C225.7,130.3,226.5,129.4,227.6,129.4z"/>
	<path class="st9" d="M310.5,160.1h-28.2c-1.2,0-2.3-0.6-2.8-1.6c-1.5-2.8-4.9-3.8-7.7-2.3c-1,0.5-1.8,1.3-2.3,2.3
		c-0.6,1-1.6,1.7-2.8,1.6h-28.3c-1.7,0-3-1.3-3-3v-16.9c0-1.7,1.3-3,3-3h72.1c1.7,0,3,1.3,3,3V157
		C313.5,158.7,312.2,160,310.5,160.1C310.6,160,310.5,160.1,310.5,160.1z M274.4,153.4c2.8,0,5.4,1.6,6.8,4.1
		c0.2,0.4,0.6,0.6,1.1,0.6h28.2c0.6,0,1-0.4,1-1v-16.9c0-0.6-0.4-1-1-1h-72.1c-0.6,0-1,0.4-1,1V157c0,0.6,0.4,1,1,1h28.3
		c0.4,0,0.8-0.2,1-0.6C269,154.9,271.6,153.4,274.4,153.4L274.4,153.4z"/>
	<g class="st22">
		<path class="st17" d="M310.5,160.1h-28.2c-1.2,0-2.3-0.6-2.8-1.6c-1.5-2.8-4.9-3.8-7.7-2.3c-1,0.5-1.8,1.3-2.3,2.3
			c-0.6,1-1.6,1.7-2.8,1.6h-28.3c-1.7,0-3-1.3-3-3v-16.9c0-1.7,1.3-3,3-3h72.1c1.7,0,3,1.3,3,3V157
			C313.5,158.7,312.2,160,310.5,160.1C310.6,160,310.5,160.1,310.5,160.1z M274.4,153.4c2.8,0,5.4,1.6,6.8,4.1
			c0.2,0.4,0.6,0.6,1.1,0.6h28.2c0.6,0,1-0.4,1-1v-16.9c0-0.6-0.4-1-1-1h-72.1c-0.6,0-1,0.4-1,1V157c0,0.6,0.4,1,1,1h28.3
			c0.4,0,0.8-0.2,1-0.6C269,154.9,271.6,153.4,274.4,153.4L274.4,153.4z"/>
	</g>
	<path class="st12" d="M242.7,134.3h63.5c0.6,0,1.2,0.5,1.2,1.2v4.5c0,0.6-0.5,1.2-1.2,1.2h-63.5c-0.6,0-1.2-0.5-1.2-1.2v-4.5
		C241.5,134.8,242,134.3,242.7,134.3z"/>
	<path class="st13" d="M242.7,134.3h63.5c0.6,0,1.2,0.5,1.2,1.2v4.5c0,0.6-0.5,1.2-1.2,1.2h-63.5c-0.6,0-1.2-0.5-1.2-1.2v-4.5
		C241.5,134.8,242,134.3,242.7,134.3z"/>
	<rect x="273" y="288.3" class="st23" width="17.8" height="17.8"/>
	<path class="st23" d="M288.7,313.3h-13.6c-1.1,0-2.1-0.9-2.1-2.1l0,0c0-1.1,0.9-2.1,2.1-2.1h13.6c1.1,0,2.1,0.9,2.1,2.1l0,0
		C290.8,312.4,289.9,313.3,288.7,313.3z"/>
	<path class="st23" d="M300.2,288.3H346c1,0,1.9,0.9,1.9,1.9v0c0,1-0.9,1.9-1.9,1.9h-45.8c-1,0-1.9-0.9-1.9-1.9v0
		C298.3,289.2,299.2,288.3,300.2,288.3z"/>
	<path class="st23" d="M300.2,298.3H336c1,0,1.9,0.9,1.9,1.9v0c0,1-0.9,1.9-1.9,1.9h-35.8c-1,0-1.9-0.9-1.9-1.9v0
		C298.3,299.2,299.2,298.3,300.2,298.3z"/>
	<path class="st23" d="M300.2,308.3H346c1,0,1.9,0.9,1.9,1.9v0c0,1-0.9,1.9-1.9,1.9h-45.8c-1,0-1.9-0.9-1.9-1.9v0
		C298.3,309.2,299.2,308.3,300.2,308.3z"/>
	<path class="st23" d="M300.2,318.3H320c1,0,1.9,0.9,1.9,1.9v0c0,1-0.9,1.9-1.9,1.9h-19.8c-1,0-1.9-0.9-1.9-1.9v0
		C298.3,319.2,299.2,318.3,300.2,318.3z"/>
	<path class="st23" d="M327.1,174.9H221.3c-1.9,0-3.4-1.5-3.4-3.4l0,0c0-1.9,1.5-3.4,3.4-3.4h105.7c1.9,0,3.5,1.5,3.5,3.4
		c0,0,0,0,0,0l0,0C330.5,173.3,329,174.9,327.1,174.9z"/>
	<path class="st23" d="M344.7,195.3h-69.8c-1.1,0-1.9-0.9-1.9-1.9l0,0c0-1,0.9-1.9,1.9-1.9h69.8c1,0,1.9,0.9,1.9,1.9l0,0
		C346.6,194.4,345.7,195.3,344.7,195.3z"/>
	<path class="st23" d="M334.7,205.3h-59.8c-1.1,0-1.9-0.9-1.9-1.9l0,0c0-1,0.9-1.9,1.9-1.9h59.8c1,0,1.9,0.9,1.9,1.9l0,0
		C336.6,204.4,335.7,205.3,334.7,205.3z"/>
	<path class="st23" d="M344.7,215.3h-69.8c-1.1,0-1.9-0.9-1.9-1.9l0,0c0-1,0.9-1.9,1.9-1.9h69.8c1,0,1.9,0.9,1.9,1.9l0,0
		C346.6,214.4,345.7,215.3,344.7,215.3z"/>
	<path class="st23" d="M324.7,225.3h-49.8c-1.1,0-1.9-0.9-1.9-1.9l0,0c0-1,0.9-1.9,1.9-1.9h49.8c1,0,1.9,0.9,1.9,1.9l0,0
		C326.6,224.4,325.7,225.3,324.7,225.3z"/>
	<polygon class="st23" points="278,237.2 279.1,239.4 281.6,239.8 279.8,241.5 280.2,244 278,242.8 275.8,244 276.2,241.5 
		274.5,239.8 276.9,239.4 	"/>
	<polygon class="st23" points="290.4,237.2 291.5,239.4 294,239.8 292.2,241.5 292.6,244 290.4,242.8 288.2,244 288.6,241.5 
		286.9,239.8 289.3,239.4 	"/>
	<polygon class="st23" points="302.8,237.2 303.9,239.4 306.4,239.8 304.6,241.5 305,244 302.8,242.8 300.6,244 301,241.5 
		299.3,239.8 301.7,239.4 	"/>
	<polygon class="st23" points="315.3,237.2 316.3,239.4 318.8,239.8 317,241.5 317.4,244 315.3,242.8 313,244 313.5,241.5 
		311.7,239.8 314.1,239.4 	"/>
	<polygon class="st23" points="327.7,237.2 328.8,239.4 331.2,239.8 329.4,241.5 329.9,244 327.7,242.8 325.5,244 325.9,241.5 
		324.1,239.8 326.6,239.4 	"/>
	<polygon class="st23" points="278,249.9 279.1,252.2 281.6,252.5 279.8,254.3 280.2,256.7 278,255.6 275.8,256.7 276.2,254.3 
		274.5,252.5 276.9,252.2 	"/>
	<polygon class="st23" points="290.4,249.9 291.5,252.2 294,252.5 292.2,254.3 292.6,256.7 290.4,255.6 288.2,256.7 288.6,254.3 
		286.9,252.5 289.3,252.2 	"/>
	<polygon class="st23" points="302.8,249.9 303.9,252.2 306.4,252.5 304.6,254.3 305,256.7 302.8,255.6 300.6,256.7 301,254.3 
		299.3,252.5 301.7,252.2 	"/>
	<polygon class="st24" points="315.3,249.9 316.3,252.2 318.8,252.5 317,254.3 317.4,256.7 315.3,255.6 313,256.7 313.5,254.3 
		311.7,252.5 314.1,252.2 	"/>
	<polygon class="st24" points="327.7,249.9 328.8,252.2 331.2,252.5 329.4,254.3 329.9,256.7 327.7,255.6 325.5,256.7 325.9,254.3 
		324.1,252.5 326.6,252.2 	"/>
	<polygon class="st23" points="278,262.7 279.1,264.9 281.6,265.3 279.8,267 280.2,269.5 278,268.3 275.8,269.5 276.2,267 
		274.5,265.3 276.9,264.9 	"/>
	<polygon class="st23" points="290.4,262.7 291.5,264.9 294,265.3 292.2,267 292.6,269.5 290.4,268.3 288.2,269.5 288.6,267 
		286.9,265.3 289.3,264.9 	"/>
	<polygon class="st23" points="302.8,262.7 303.9,264.9 306.4,265.3 304.6,267 305,269.5 302.8,268.3 300.6,269.5 301,267 
		299.3,265.3 301.7,264.9 	"/>
	<polygon class="st23" points="315.3,262.7 316.3,264.9 318.8,265.3 317,267 317.4,269.5 315.3,268.3 313,269.5 313.5,267 
		311.7,265.3 314.1,264.9 	"/>
	<polygon class="st24" points="327.7,262.7 328.8,264.9 331.2,265.3 329.4,267 329.9,269.5 327.7,268.3 325.5,269.5 325.9,267 
		324.1,265.3 326.6,264.9 	"/>
	<rect x="273" y="338.3" class="st23" width="17.8" height="17.8"/>
	<path class="st23" d="M288.7,363.3h-13.6c-1.1,0-2.1-0.9-2.1-2.1l0,0c0-1.1,0.9-2.1,2.1-2.1h13.6c1.1,0,2.1,0.9,2.1,2.1l0,0
		C290.8,362.4,289.9,363.3,288.7,363.3z"/>
	<path class="st23" d="M300.2,338.3H346c1,0,1.9,0.9,1.9,1.9v0c0,1-0.9,1.9-1.9,1.9h-45.8c-1,0-1.9-0.9-1.9-1.9v0
		C298.3,339.2,299.2,338.3,300.2,338.3z"/>
	<path class="st23" d="M300.2,348.3H336c1,0,1.9,0.9,1.9,1.9v0c0,1-0.9,1.9-1.9,1.9h-35.8c-1,0-1.9-0.9-1.9-1.9v0
		C298.3,349.2,299.2,348.3,300.2,348.3z"/>
	<path class="st23" d="M300.2,358.3H346c1,0,1.9,0.9,1.9,1.9v0c0,1-0.9,1.9-1.9,1.9h-45.8c-1,0-1.9-0.9-1.9-1.9v0
		C298.3,359.2,299.2,358.3,300.2,358.3z"/>
	<path class="st23" d="M300.2,368.3H320c1,0,1.9,0.9,1.9,1.9v0c0,1-0.9,1.9-1.9,1.9h-19.8c-1,0-1.9-0.9-1.9-1.9v0
		C298.3,369.2,299.2,368.3,300.2,368.3z"/>
	<rect x="197.5" y="191.5" class="st17" width="64.2" height="85.2"/>
	<rect x="200.5" y="194.5" class="st12" width="58.2" height="79.2"/>
	<rect x="200.5" y="194.5" class="st21" width="58.2" height="79.2"/>
	<path class="st12" d="M258.6,256v17.7h-4.5c-1.3-1.2-2.6-2.2-4.1-3.1c-0.7-0.4-1.5-0.8-2.3-1c-6.8-1.8,3-20,3-20l0,0
		C253,250.3,255.8,252.9,258.6,256z"/>
	<path class="st13" d="M258.6,256v17.7h-4.5c-1.3-1.2-2.6-2.2-4.1-3.1c-0.7-0.4-1.5-0.8-2.3-1c-6.8-1.8,3-20,3-20l0,0
		C253,250.3,255.8,252.9,258.6,256z"/>
	<path class="st14" d="M258.6,273.6L258.6,273.6l-4.5,0.1c-1.3-1.2-2.6-2.2-4.1-3.1l1.3-8.4c1.3,1.1,2.5,2.3,3.4,3.7l0,0
		C256.5,268.3,257.8,270.9,258.6,273.6z"/>
	<path class="st9" d="M246.2,248.8c-0.1,0.7-0.3,1.4-0.4,2.2s-0.4,1.7-0.6,2.6c-2.2,8.8-5.8,16.4-10.9,20.1h-17.6
		c-5.1-2.6-6.1-7-5.9-11.6c0.1-3.1,0.8-6.3,1-9c0.1-0.9,0.1-1.9,0-2.8c-0.1-1.4-0.4-3.1-0.7-5c-1.5-8.7-4.5-21.3-3-27.7
		c1.8-7.8,7.5-10,7.5-10s1.9-0.1,4.9-0.1c2.2,0,5,0.1,7.9,0.4h0.2c3.3,0.3,6.5,0.9,9.7,1.7l0.7,0.2c0.6,0.2,1.3,0.4,1.9,0.6l0,0
		c0.4,0.1,0.8,0.3,1.2,0.4l0,0c0.5,0.2,1,0.5,1.3,0.9C247.9,216.4,249,233.4,246.2,248.8z"/>
	<path class="st10" d="M240.9,211.8c6.4-3,9.1,17.7,6.8,32.7"/>
	<path class="st12" d="M255.3,273.7h-45.6c-0.2-0.9-0.4-1.7-0.6-2.6c-1.1-5-2.6-9.9-4.5-14.6l0,0c1.9-1.1,3.8-2.1,5.8-2.9
		c0.4-0.2,0.8-0.3,1.2-0.5c1.6-0.6,3.4-1.3,5.5-1.9l0.7-0.2c1.6-0.4,3.2-0.9,5-1.2l0,0c3.7-0.8,7.5-1.3,11.3-1.4l0,0
		c2.9-0.1,5.8-0.1,8.7,0.1l0,0c1.1,0.1,2.3,0.2,3.4,0.3c1.5,0.2,3,0.4,4.5,0.7l0,0c0.2,0.3,2.9,4.7,4.1,16.4l0,0
		C255.1,268.2,255.2,270.8,255.3,273.7z"/>
	<path class="st12" d="M217.4,260.1c0,0-5.2-12.9,11.1-14.3s19.6,8.7,19.6,8.7l-7.6-2.6l-4,18.4c-2.6-7-7.7-12.9-14.3-16.4
		L217.4,260.1z"/>
	<path class="st13" d="M217.4,260.1c0,0-5.2-12.9,11.1-14.3s19.6,8.7,19.6,8.7l-7.6-2.6l-4,18.4c-2.6-7-7.7-12.9-14.3-16.4
		L217.4,260.1z"/>
	<path class="st11" d="M235.8,262.2c-4.2-4.4-9-8.1-14.2-11.2c3.9-3.3,3.5-8.5,2.7-11.8c-0.2-1-0.6-2-1-3l10.8,2.6
		c-0.3,1.5-0.6,3-0.7,4.6c-0.1,1.1,0,2.3,0.1,3.4c0.6,3.3,2.4,3.4,2.4,3.4C237.8,254,235.8,262.2,235.8,262.2z"/>
	<path class="st14" d="M233.5,243.4c-0.1,1.1,0,2.3,0.1,3.4c-4.3-0.8-7.4-4.4-9.3-7.6c-0.2-1-0.6-2-1-3l10.8,2.6
		C233.8,240.4,233.6,241.9,233.5,243.4z"/>
	<path class="st11" d="M230.1,207.8c11.8,0,12.8,5.7,13.5,15.5c0.8,12.3-1.9,21-13.8,18.3C213.6,238.1,214.2,207.8,230.1,207.8z"/>
	<path class="st18" d="M237.4,222.8c0.8,1.4,1.7,2.8,2.8,4c-0.6,0.8-1.5,1.2-2.5,1.1L237.4,222.8z"/>
	<path class="st9" d="M231.5,222c0,0.8-0.4,1.4-0.9,1.4s-1-0.6-1-1.4s0.4-1.4,0.9-1.4S231.5,221.2,231.5,222z"/>
	<path class="st9" d="M230.4,220.6l1.7-0.7C232,219.9,231.2,221.4,230.4,220.6z"/>
	<path class="st9" d="M241.3,221.6c0,0.8-0.4,1.4-0.9,1.4s-1-0.6-1-1.4s0.4-1.4,0.9-1.4S241.3,220.8,241.3,221.6z"/>
	<path class="st9" d="M240.1,220.2l1.7-0.7C241.8,219.5,241,221,240.1,220.2z"/>
	<path class="st19" d="M231.5,215.4c0,0-2.7-0.4-4.1,1.4"/>
	<path class="st19" d="M238.4,215c1.3-0.3,2.7,0,3.8,0.8"/>
	<path class="st9" d="M219.8,224.4c0,0,4.5-7.8,3.8-13.9c0,0,6.7-6.9,15.8-0.1c0,0,3.8,6.5,4,11.6c0,0,1.9-17-14.5-17.4
		s-16.3,23.6-7.9,30.7C221,235.3,217.1,229.3,219.8,224.4z"/>
	<path class="st11" d="M221.4,226.4c-0.2-2.3-2.2-4-4.5-3.8c-3,0.3-4.4,6.4,3,7.9C220.9,230.6,221.5,229.6,221.4,226.4z"/>
	<path class="st19" d="M236.3,233c0,0-4,0.9-5.6-2.7"/>
	<path class="st9" d="M223.6,210.5c0,0,10.9-4.8,18.1,1.6c0,0,2.8-8.4-6.8-11.3s-19.5,6.8-19.5,6.8L223.6,210.5z"/>
	<path class="st9" d="M223.6,210.5c0,0-6.4,6.3-5.4,18.8s-0.3,20.4-2.8,28.2c-2.5,7.8,4,10.1,4,10.1s-7.4,1.8-8.9-6.1
		c-1-5.2,1.4-16.5,0.2-29.9S214.3,208.8,223.6,210.5z"/>
	<path class="st14" d="M211.8,273.7h-2.1c-0.2-0.9-0.4-1.7-0.6-2.6l1.6-1.4l0,0C211.1,271,211.5,272.4,211.8,273.7z"/>
	<path class="st12" d="M210.7,273.7h-10.2v-14c1.3-1.2,2.6-2.3,4.1-3.2l0,0c3,1.3,5.1,4,5.6,7.2c0.3,2,0.5,4,0.5,6
		C210.7,271.2,210.7,272.5,210.7,273.7z"/>
	<path class="st13" d="M210.7,273.7h-10.2v-14c1.3-1.2,2.6-2.3,4.1-3.2l0,0c3,1.3,5.1,4,5.6,7.2c0.3,2,0.5,4,0.5,6
		C210.7,271.2,210.7,272.5,210.7,273.7z"/>
	<rect x="197.5" y="286.6" class="st23" width="64.2" height="85.1"/>
	<path class="st25" d="M250.9,299.8h-43.8c-1.1,0-1.9-0.9-1.9-1.9l0,0c0-1,0.9-1.9,1.9-1.9h43.8c1,0,1.9,0.8,1.9,1.9c0,0,0,0,0,0
		l0,0C252.8,299,251.9,299.8,250.9,299.8L250.9,299.8z"/>
	<path class="st25" d="M207.1,306.6h43.8c1,0,1.9,0.9,1.9,1.9v0c0,1-0.9,1.9-1.9,1.9h-43.8c-1,0-1.9-0.9-1.9-1.9v0
		C205.2,307.5,206,306.6,207.1,306.6z"/>
	<path class="st25" d="M230.9,321.1h-23.8c-1.1,0-1.9-0.9-1.9-1.9l0,0c0-1,0.9-1.9,1.9-1.9h23.8c1,0,1.9,0.8,1.9,1.9c0,0,0,0,0,0
		l0,0C232.8,320.3,231.9,321.1,230.9,321.1L230.9,321.1z"/>
	<path class="st25" d="M250.9,331.8h-43.8c-1,0-1.9-0.9-1.9-1.9l0,0c0-1.1,0.8-1.9,1.9-1.9h43.8c1.1,0,1.9,0.9,1.9,1.9l0,0l0,0
		C252.8,330.9,251.9,331.8,250.9,331.8C250.9,331.8,250.9,331.8,250.9,331.8z"/>
	<path class="st25" d="M250.9,342.4h-43.8c-1,0-1.9-0.9-1.9-1.9l0,0c0-1,0.9-1.9,1.9-1.9h43.8c1,0,1.9,0.8,1.9,1.9c0,0,0,0,0,0l0,0
		C252.8,341.5,251.9,342.4,250.9,342.4C250.9,342.4,250.9,342.4,250.9,342.4z"/>
	<path class="st25" d="M220.9,353h-13.8c-1,0-1.9-0.9-1.9-1.9l0,0c0-1,0.8-1.9,1.9-1.9c0,0,0,0,0,0h13.8c1,0,1.9,0.8,1.9,1.9
		c0,0,0,0,0,0l0,0C222.8,352.1,221.9,353,220.9,353C220.9,353,220.9,353,220.9,353z"/>
	<path class="st25" d="M240.9,363.7h-33.8c-1,0-1.9-0.9-1.9-1.9l0,0c0-1,0.9-1.9,1.9-1.9h33.8c1,0,1.9,0.8,1.9,1.9c0,0,0,0,0,0l0,0
		C242.8,362.8,241.9,363.7,240.9,363.7C240.9,363.7,240.9,363.7,240.9,363.7z"/>
</g>
<g id="freepik--Plant--inject-93">
	<path class="st9" d="M404.5,355.9c-1.7-0.7-3.7-0.5-5.2,0.5c-4.9,2.8-6.9,14.1-7.7,23c0.3-12.5,2.4-29.9,10.6-39.4l-0.8-0.6
		c-6.9,7.9-9.6,20.9-10.5,32.2c-0.1-4.8-0.4-10.1-1.1-15.1c0.2-10.7,1.1-20.4,3.6-23.7l-0.8-0.6c-2.2,2.9-3.2,10.3-3.6,19
		c-1.2-6.5-3.2-12-6.3-14.8l-0.7,0.7c3.7,3.4,5.7,11.1,6.7,19.6c0,1.2,0,2.4,0,3.6c-1-5-2.2-9.1-3.9-10.8c-5.7-5.5-12.4-0.1-12.5,0
		l0.6,0.8c0.2-0.2,6.1-4.9,11.1,0c2.2,2.1,3.7,9.2,4.6,16.6c0.1,8.9,0.6,17.3,0.9,22.1c0,0.8-0.1,1.2-0.1,1.3h0.1
		c0.1,1.7,0.2,2.8,0.2,3l0.9-0.1c0,0.6,0.1,1,0.1,1.1l1-0.1c0-0.1-0.1-1.6-0.3-4h0.3c0-0.3,0.3-28.7,7.9-33c1.3-0.9,2.9-1,4.4-0.5
		c4.4,1.8,6.8,10.2,6.8,10.3l1-0.3C411.8,366.5,409.4,357.9,404.5,355.9z"/>
	<path class="st9" d="M378.5,356.8c-4.4,0.3-7.8,6.2-7.9,6.5l0.9,0.5c0-0.1,3.3-5.7,7.1-6c1.6-0.1,3.1,0.8,4.6,2.6
		c5.9,7.7,4.7,29.6,4.7,29.8l1,0.1c0-0.9,1.2-22.5-4.9-30.5C382.3,357.7,380.5,356.7,378.5,356.8z"/>
	<g class="st22">
		<path class="st17" d="M404.5,355.9c-1.7-0.7-3.7-0.5-5.2,0.5c-4.9,2.8-6.9,14.1-7.7,23c0.3-12.5,2.4-29.9,10.6-39.4l-0.8-0.6
			c-6.9,7.9-9.6,20.9-10.5,32.2c-0.1-4.8-0.4-10.1-1.1-15.1c0.2-10.7,1.1-20.4,3.6-23.7l-0.8-0.6c-2.2,2.9-3.2,10.3-3.6,19
			c-1.2-6.5-3.2-12-6.3-14.8l-0.7,0.7c3.7,3.4,5.7,11.1,6.7,19.6c0,1.2,0,2.4,0,3.6c-1-5-2.2-9.1-3.9-10.8c-5.7-5.5-12.4-0.1-12.5,0
			l0.6,0.8c0.2-0.2,6.1-4.9,11.1,0c2.2,2.1,3.7,9.2,4.6,16.6c0.1,8.9,0.6,17.3,0.9,22.1c0,0.8-0.1,1.2-0.1,1.3h0.1
			c0.1,1.7,0.2,2.8,0.2,3l0.9-0.1c0,0.6,0.1,1,0.1,1.1l1-0.1c0-0.1-0.1-1.6-0.3-4h0.3c0-0.3,0.3-28.7,7.9-33c1.3-0.9,2.9-1,4.4-0.5
			c4.4,1.8,6.8,10.2,6.8,10.3l1-0.3C411.8,366.5,409.4,357.9,404.5,355.9z"/>
		<path class="st17" d="M378.5,356.8c-4.4,0.3-7.8,6.2-7.9,6.5l0.9,0.5c0-0.1,3.3-5.7,7.1-6c1.6-0.1,3.1,0.8,4.6,2.6
			c5.9,7.7,4.7,29.6,4.7,29.8l1,0.1c0-0.9,1.2-22.5-4.9-30.5C382.3,357.7,380.5,356.7,378.5,356.8z"/>
	</g>
	<path class="st9" d="M406.3,361c0,0-3.9,1.4-2.8,4.9s13.5,9,13.5,9s5.2-4.8,0.4-12.5S406.4,358.6,406.3,361z"/>
	<path class="st9" d="M389.3,354.6c0,0,4.2-0.2,4.4,3.4s-9,13.5-9,13.5s-6.6-2.4-5.2-11.4S388.2,352.4,389.3,354.6z"/>
	<path class="st9" d="M385.7,337.4c0,0,2.8-0.3,2.6-2s-10.8-6-17,1c0,0,4,6.9,9.8,7S385.7,337.4,385.7,337.4z"/>
	<path class="st9" d="M390.9,333.3c0,0-2.5,1.2-3.2-0.3s6-10.9,15-8.2c0,0,0.2,7.9-4.6,11.1S390.9,333.3,390.9,333.3z"/>
	<path class="st9" d="M377.7,359.7c0,0,1.9-1.5-0.1-2.3s-12.2-0.5-12.3,9.5c0,0,11.8,2,13.3-1.9S377.7,359.7,377.7,359.7z"/>
	<path class="st9" d="M401.9,337.1c0,0-1.9-1.5,0.1-2.3s12.2-0.5,12.3,9.5c0,0-11.8,2-13.3-1.9S401.9,337.1,401.9,337.1z"/>
	<path class="st9" d="M395.6,345.2c0,0-0.2-1.9,1.4-1.1s6.8,6.5,1.3,11.9c0,0-7.4-5.5-6.1-8.3S395.6,345.2,395.6,345.2z"/>
	<path class="st9" d="M376,347.9c0,0,1.1-1.5-0.5-1.7s-9.2,1.8-7.5,9.3c0,0,9.2-0.7,9.6-3.8S376,347.9,376,347.9z"/>
	<polygon class="st12" points="407,418.2 375.5,418.2 372.1,383.7 410.4,383.7 	"/>
	<polygon class="st16" points="407,418.2 375.5,418.2 372.1,383.7 410.4,383.7 	"/>
	<rect x="370.5" y="379.9" class="st12" width="41.6" height="7.6"/>
	<rect x="370.5" y="379.9" class="st26" width="41.6" height="7.6"/>
</g>
</svg>
