<svg xmlns="http://www.w3.org/2000/svg" viewBox="0 0 398.33 350.34"><defs><style>.cls-1{fill:#ebebeb;}.cls-2{fill:#f0f0f0;}.cls-3{fill:#e0e0e0;}.cls-4{fill:#f5f5f5;}.cls-5{fill:#6c48ef;}.cls-10,.cls-11,.cls-16,.cls-18,.cls-6,.cls-8,.cls-9{fill:#fff;}.cls-19,.cls-6{opacity:0.3;}.cls-11,.cls-13,.cls-16,.cls-18,.cls-6,.cls-8,.cls-9{isolation:isolate;}.cls-7{fill:#263238;}.cls-13,.cls-20,.cls-8{opacity:0.2;}.cls-9{opacity:0.5;}.cls-11{opacity:0.6;}.cls-12{fill:#ebb376;}.cls-14{fill:#d58745;}.cls-15,.cls-17{fill:none;}.cls-15{stroke:#263238;stroke-linecap:round;stroke-linejoin:round;stroke-width:0.5px;}.cls-16{opacity:0.7;}.cls-18{opacity:0.1;}.cls-21{fill:#de5753;}</style></defs><title>signRecurso 1</title><g id="Capa_2" data-name="Capa 2"><g id="Capa_1-2" data-name="Capa 1"><g id="freepik--background-complete--inject-101"><rect class="cls-1" x="359.79" y="321.27" width="33.12" height="0.25"/><rect class="cls-1" x="275.54" y="323.99" width="8.69" height="0.25"/><rect class="cls-1" x="349.6" y="311.99" width="19.19" height="0.25"/><rect class="cls-1" x="5.47" y="313.67" width="43.19" height="0.25"/><rect class="cls-1" x="57.57" y="313.67" width="6.33" height="0.25"/><rect class="cls-1" x="84.48" y="317.89" width="93.68" height="0.25"/><rect class="cls-2" x="222.04" y="82.1" width="176.29" height="223.23"/><rect class="cls-3" x="228.27" y="90.23" width="163.83" height="47.74"/><rect class="cls-1" x="382.79" y="97.95" width="9.31" height="40.01"/><rect class="cls-1" x="337.79" y="97.95" width="9.31" height="40.01"/><rect class="cls-1" x="267.9" y="112.79" width="40.01" height="9.31" transform="translate(123.26 381.22) rotate(-80.22)"/><rect class="cls-1" x="371.26" y="103.23" width="9.31" height="34.74"/><rect class="cls-1" x="349.87" y="103.23" width="9.31" height="34.74"/><rect class="cls-1" x="295.88" y="103.23" width="9.31" height="34.74"/><rect class="cls-1" x="308.98" y="115.33" width="34.74" height="9.31" transform="translate(138.42 412.54) rotate(-77.47)"/><rect class="cls-1" x="363.22" y="95.98" width="4.65" height="41.99"/><rect class="cls-1" x="307.86" y="95.98" width="4.65" height="41.99"/><rect class="cls-3" x="228.28" y="145.52" width="163.83" height="47.74"/><rect class="cls-1" x="228.28" y="153.25" width="9.31" height="40.01"/><rect class="cls-1" x="273.28" y="153.25" width="9.31" height="40.01"/><rect class="cls-1" x="327.84" y="152.74" width="9.31" height="40.01" transform="translate(-24.51 58.99) rotate(-9.78)"/><rect class="cls-1" x="239.81" y="158.52" width="9.31" height="34.74"/><rect class="cls-1" x="261.2" y="158.52" width="9.31" height="34.74"/><rect class="cls-1" x="315.19" y="158.52" width="9.31" height="34.74"/><rect class="cls-1" x="289.39" y="157.91" width="9.31" height="34.74" transform="translate(-31.02 67.97) rotate(-12.53)"/><rect class="cls-1" x="252.51" y="151.27" width="4.65" height="41.99"/><rect class="cls-1" x="307.87" y="151.27" width="4.65" height="41.99"/><rect class="cls-1" x="382.79" y="153.25" width="9.31" height="40.01"/><rect class="cls-1" x="371.26" y="158.52" width="9.31" height="34.74"/><rect class="cls-1" x="349.87" y="158.52" width="9.31" height="34.74"/><rect class="cls-1" x="363.22" y="151.27" width="4.65" height="41.99"/><rect class="cls-3" x="228.27" y="200.81" width="163.83" height="47.74"/><rect class="cls-1" x="288.76" y="208.54" width="9.31" height="40.01"/><rect class="cls-1" x="218.87" y="223.39" width="40.01" height="9.31" transform="translate(-26.43 424.71) rotate(-80.22)"/><rect class="cls-1" x="322.23" y="213.81" width="9.31" height="34.74"/><rect class="cls-1" x="300.84" y="213.81" width="9.31" height="34.74"/><rect class="cls-1" x="246.85" y="213.81" width="9.31" height="34.74"/><rect class="cls-1" x="259.96" y="225.93" width="34.74" height="9.31" transform="translate(-7.93 451.28) rotate(-77.47)"/><rect class="cls-1" x="314.19" y="206.56" width="4.65" height="41.99"/><rect class="cls-1" x="258.84" y="206.56" width="4.65" height="41.99"/><rect class="cls-1" x="325.95" y="223.38" width="40.01" height="9.31" transform="translate(62.46 530.22) rotate(-80.22)"/><rect class="cls-1" x="353.92" y="213.81" width="9.31" height="34.74"/><rect class="cls-1" x="367.04" y="225.92" width="34.74" height="9.31" transform="translate(75.93 555.8) rotate(-77.47)"/><rect class="cls-1" x="365.91" y="206.56" width="4.65" height="41.99"/><path class="cls-3" d="M371.27,82.09V78.78H365.9a62.76,62.76,0,0,0,2-31.45s.08,13.73-5.23,13.83c-8.11.14-8.72-13.83-8.72-13.83s-2,20,5.32,31.45h-5.56v3.31Z"/><circle class="cls-3" cx="360.86" cy="56.49" r="4.68"/><path class="cls-3" d="M335.27,82.09V80.16l-5.67-2.64,2.83-2.76-7.05-24.93V65.39s1,0,1,2.24-3.21,1.72-3.21-.13,1.05-2.11,1.05-2.11V49.17l-6.46,24.66,2.9,3.69-5.8,2.64v1.93Z"/><polygon class="cls-3" points="300.54 82.09 300.54 80.56 295.31 79.37 295.31 56.49 290.83 50.23 287.01 55.13 287.01 65.63 285.03 62.89 282.26 61.83 280.28 66.16 284.5 79.37 280.28 80.56 280.28 82.09 300.54 82.09"/><polygon class="cls-3" points="265.85 82.79 259.44 50.23 239.81 50.23 244.46 68.69 237.58 82.09 265.85 82.79"/><rect class="cls-3" x="6.32" y="34.27" width="130.44" height="6.7"/><rect class="cls-1" x="12.32" y="9.57" width="5.75" height="24.7"/><rect class="cls-1" x="40.11" y="9.57" width="5.75" height="24.7"/><rect class="cls-1" x="73.79" y="9.26" width="5.75" height="24.7" transform="translate(-2.56 13.34) rotate(-9.78)"/><rect class="cls-1" x="19.44" y="12.82" width="5.75" height="21.45"/><rect class="cls-1" x="32.65" y="12.82" width="5.75" height="21.45"/><rect class="cls-1" x="65.99" y="12.82" width="5.75" height="21.45"/><rect class="cls-1" x="50.05" y="12.45" width="5.75" height="21.45" transform="translate(-3.77 12.03) rotate(-12.53)"/><rect class="cls-1" x="27.28" y="8.34" width="2.87" height="25.93"/><rect class="cls-1" x="61.46" y="8.34" width="2.87" height="25.93"/><rect class="cls-1" x="96.24" y="14.72" width="28" height="19.33"/><rect class="cls-3" x="6.31" y="84.31" width="130.44" height="6.7"/><rect class="cls-1" x="125" y="59.61" width="5.75" height="24.7"/><rect class="cls-1" x="97.21" y="59.61" width="5.75" height="24.7"/><rect class="cls-1" x="54.06" y="68.77" width="24.7" height="5.75" transform="translate(-15.47 124.92) rotate(-80.22)"/><rect class="cls-1" x="117.88" y="62.85" width="5.75" height="21.45"/><rect class="cls-1" x="104.68" y="62.85" width="5.75" height="21.45"/><rect class="cls-1" x="71.34" y="62.85" width="5.75" height="21.45"/><rect class="cls-1" x="79.43" y="70.33" width="21.45" height="5.75" transform="translate(-0.86 145.34) rotate(-77.47)"/><rect class="cls-1" x="112.92" y="58.38" width="2.87" height="25.93"/><rect class="cls-1" x="78.74" y="58.38" width="2.87" height="25.93"/><rect class="cls-1" x="18.83" y="64.75" width="28" height="19.33"/><rect class="cls-3" y="182.25" width="109.39" height="123.08"/><rect class="cls-1" x="5.43" y="187.15" width="98.53" height="19.82"/><rect class="cls-1" x="5.43" y="212.12" width="98.53" height="19.82"/><rect class="cls-1" x="5.43" y="237.09" width="98.53" height="59.1"/><path class="cls-3" d="M59.28,190.54H50.11a6.9,6.9,0,0,1-5.94-3.39h21A6.9,6.9,0,0,1,59.28,190.54Z"/><path class="cls-3" d="M59.28,215.48H50.11a6.9,6.9,0,0,1-5.94-3.39h21A6.9,6.9,0,0,1,59.28,215.48Z"/><path class="cls-3" d="M59.28,240.51H50.11a6.89,6.89,0,0,1-5.94-3.4h21A6.9,6.9,0,0,1,59.28,240.51Z"/></g><g id="freepik--Shadow--inject-101"><ellipse id="freepik--path--inject-101" class="cls-4" cx="203.01" cy="339.02" rx="193.89" ry="11.32"/></g><g id="freepik--Plant--inject-101"><path class="cls-5" d="M60.86,265.18c-.21,1.47,3.77,2.44,7,3-.26,2.67-2,5.37-4.49,7.89-3.09-1.74-7.49-4-8.3-3.48s3.62,3.53,6.44,5.25a56.73,56.73,0,0,1-6.39,4.84c-1.38-1.29-3-2.43-4-1.81s-.73,2.63-.24,4.42c-3.36,1.95-5.87,3.14-5.87,3.14a67.63,67.63,0,0,1-2.24-9.53c.17-.33.34-.67.49-1,.54-1.25,0-1.78-.88-2a32.77,32.77,0,0,1-.05-6.86c3.79-.8,8.41-2.27,6.68-4.55-1-1.38-3-1.53-4.94-1.19A8.34,8.34,0,0,1,45,262c6.92-7.62,11.74,0,11.74,0,4-3.35,9.66-2.45,10.88,2.79C65.43,264.23,61.12,263.37,60.86,265.18Z"/><path class="cls-6" d="M60.86,265.18c-.21,1.47,3.77,2.44,7,3-.26,2.67-2,5.37-4.49,7.89-3.09-1.74-7.49-4-8.3-3.48s3.62,3.53,6.44,5.25a56.73,56.73,0,0,1-6.39,4.84c-1.38-1.29-3-2.43-4-1.81s-.73,2.63-.24,4.42c-3.36,1.95-5.87,3.14-5.87,3.14a67.63,67.63,0,0,1-2.24-9.53c.17-.33.34-.67.49-1,.54-1.25,0-1.78-.88-2a32.77,32.77,0,0,1-.05-6.86c3.79-.8,8.41-2.27,6.68-4.55-1-1.38-3-1.53-4.94-1.19A8.34,8.34,0,0,1,45,262c6.92-7.62,11.74,0,11.74,0,4-3.35,9.66-2.45,10.88,2.79C65.43,264.23,61.12,263.37,60.86,265.18Z"/><path class="cls-5" d="M52.23,321.17l1-.08c0-.52-4.1-51.53,7.35-56.34a3.89,3.89,0,0,1,3.47.09c4.14,2.15,6.12,11.08,6.14,11.17l1-.21c-.09-.39-2.11-9.48-6.66-11.85a4.9,4.9,0,0,0-4.32-.12C48.08,268.92,52,319,52.23,321.17Z"/><path class="cls-5" d="M50.79,320.06c.2-2.29,4.87-56.26-3.87-62-2.09-1.38-4-1.67-5.54-.87-4.13,2.09-4.68,10.91-4.7,11.29l1,0c0-.08.53-8.62,4.15-10.45,1.24-.62,2.77-.35,4.55.81,8.24,5.41,3.46,60.52,3.41,61.08Z"/><path class="cls-5" d="M49.47,324.43c.07-1.76,1.54-43.07-6.46-46.65a5.52,5.52,0,0,0-4.73,0c-5.46,2.4-8.83,12.58-9,13l1,.31c0-.1,3.37-10.18,8.42-12.4a4.56,4.56,0,0,1,3.92,0c6.1,2.77,6.3,34,5.86,45.74Z"/><path class="cls-5" d="M51.5,322.54l1-.12c-1.4-12.29-4.08-45.06.3-49a1.72,1.72,0,0,1,1.79-.55c2.93,1.13,4.72,11.78,5.16,15.8l1-.11C60.58,287,59,273.48,55,271.94a2.65,2.65,0,0,0-2.82.74C46.46,277.78,51.29,320.71,51.5,322.54Z"/><polygon class="cls-7" points="68.18 299.23 32.26 299.23 35.26 339.47 65.18 339.47 68.18 299.23"/><polygon class="cls-8" points="57.27 299.23 56.27 339.47 35.26 339.47 32.26 299.23 57.27 299.23"/><path class="cls-5" d="M63.29,284.46c.38,1,3.17.21,5.36-.57.75,1.73.58,4-.07,6.4-2.5,0-6,.08-6.31.7s3.44.94,5.77,1a40.36,40.36,0,0,1-2.28,5.17c-1.3-.32-2.68-.46-3.07.25s.46,1.87,1.37,2.8c-1.4,2.36-2.54,4-2.54,4a48.93,48.93,0,0,1-4.65-5.11v-.81c-.09-1-.6-1.1-1.21-.9a22.8,22.8,0,0,1-2.39-4.22c2.07-1.79,4.41-4.28,2.56-5.1-1.11-.49-2.34.07-3.45,1a5.91,5.91,0,0,1,.14-1.11c1.65-7.07,7.24-4,7.24-4,1.33-3.44,5.12-4.82,7.67-2C65.79,282.3,62.83,283.25,63.29,284.46Z"/><path class="cls-6" d="M63.29,284.46c.38,1,3.17.21,5.36-.57.75,1.73.58,4-.07,6.4-2.5,0-6,.08-6.31.7s3.44.94,5.77,1a40.36,40.36,0,0,1-2.28,5.17c-1.3-.32-2.68-.46-3.07.25s.46,1.87,1.37,2.8c-1.4,2.36-2.54,4-2.54,4a48.93,48.93,0,0,1-4.65-5.11v-.81c-.09-1-.6-1.1-1.21-.9a22.8,22.8,0,0,1-2.39-4.22c2.07-1.79,4.41-4.28,2.56-5.1-1.11-.49-2.34.07-3.45,1a5.91,5.91,0,0,1,.14-1.11c1.65-7.07,7.24-4,7.24-4,1.33-3.44,5.12-4.82,7.67-2C65.79,282.3,62.83,283.25,63.29,284.46Z"/><path class="cls-5" d="M36.62,289.24a13.13,13.13,0,0,1,3.28.69,7.47,7.47,0,0,0,.48-2.38c.23-7.25-5-4.19-7.7-6.32a5.94,5.94,0,0,0-4.58-1.45,12,12,0,0,1,.62,1.24,1.14,1.14,0,0,1-.63,1.48,1.17,1.17,0,0,1-.25.07,3.2,3.2,0,0,1-2-.24,2.75,2.75,0,0,1-.53-.36,10,10,0,0,0-1,2.42,13.52,13.52,0,0,0-.47,3.1,10.37,10.37,0,0,1,1.21.34,1.13,1.13,0,0,1,.59,1.48.89.89,0,0,1-.14.25,5.34,5.34,0,0,1-1.49,1,16.65,16.65,0,0,0,.91,3.39.8.8,0,0,1,.37.06c.12.06.52.12.78.19a2.32,2.32,0,0,1,.44.16,1.13,1.13,0,0,1,.59,1.48,1.08,1.08,0,0,1-.34.45,4.86,4.86,0,0,1-.54.33,8,8,0,0,0,2.87,2.89,28.84,28.84,0,0,0,3-1.61c-.22-.29-.43-.58-.63-.88a1.65,1.65,0,0,1-.31-1.14,1.52,1.52,0,0,1,2.72-.74,10.07,10.07,0,0,0,.76,1,18.91,18.91,0,0,0,3.68-3.58H38.2a12.29,12.29,0,0,0-2-.34,1.54,1.54,0,0,1,.25-3.07l.15,0Z"/><path class="cls-9" d="M36.62,289.24a13.13,13.13,0,0,1,3.28.69,7.47,7.47,0,0,0,.48-2.38c.23-7.25-5-4.19-7.7-6.32a5.94,5.94,0,0,0-4.58-1.45,12,12,0,0,1,.62,1.24,1.14,1.14,0,0,1-.63,1.48,1.17,1.17,0,0,1-.25.07,3.2,3.2,0,0,1-2-.24,2.75,2.75,0,0,1-.53-.36,10,10,0,0,0-1,2.42,13.52,13.52,0,0,0-.47,3.1,10.37,10.37,0,0,1,1.21.34,1.13,1.13,0,0,1,.59,1.48.89.89,0,0,1-.14.25,5.34,5.34,0,0,1-1.49,1,16.65,16.65,0,0,0,.91,3.39.8.8,0,0,1,.37.06c.12.06.52.12.78.19a2.32,2.32,0,0,1,.44.16,1.13,1.13,0,0,1,.59,1.48,1.08,1.08,0,0,1-.34.45,4.86,4.86,0,0,1-.54.33,8,8,0,0,0,2.87,2.89,28.84,28.84,0,0,0,3-1.61c-.22-.29-.43-.58-.63-.88a1.65,1.65,0,0,1-.31-1.14,1.52,1.52,0,0,1,2.72-.74,10.07,10.07,0,0,0,.76,1,18.91,18.91,0,0,0,3.68-3.58H38.2a12.29,12.29,0,0,0-2-.34,1.54,1.54,0,0,1,.25-3.07l.15,0Z"/><path class="cls-5" d="M34.54,264.26a9,9,0,0,0-2-1.08,5,5,0,0,1,.79-1.46c3.06-3.91,4.45,0,6.82.06a4,4,0,0,1,3,1.25,6.74,6.74,0,0,0-.87.38.79.79,0,0,0-.31,1.07l.09.13a2.35,2.35,0,0,0,1.18.77h.43a6.43,6.43,0,0,1-.54,1.71A9.85,9.85,0,0,1,42,269a7.91,7.91,0,0,0-.79-.35.76.76,0,0,0-1,.48.85.85,0,0,0,0,.22,3.39,3.39,0,0,0,.32,1.21,11.92,11.92,0,0,1-2,1.39,1.64,1.64,0,0,0-.22-.14c-.16-.09-.33-.16-.49-.24l-.3-.11a.8.8,0,0,0-.74.17.76.76,0,0,0-.24.74,2.83,2.83,0,0,0,.14.41,5.6,5.6,0,0,1-2.78.26,18.94,18.94,0,0,1-.89-2.19c.24-.06.48-.11.71-.18a1.19,1.19,0,0,0,.67-.47,1,1,0,0,0-.24-1.39l-.09-.06a1,1,0,0,0-.79-.14c-.28.08-.57.14-.86.21a13.27,13.27,0,0,1-.37-3.5h.08a8.25,8.25,0,0,1,1.22.71,1.05,1.05,0,0,0,1.45-.32A1.06,1.06,0,0,0,34.54,264.26Z"/><path class="cls-6" d="M34.54,264.26a9,9,0,0,0-2-1.08,5,5,0,0,1,.79-1.46c3.06-3.91,4.45,0,6.82.06a4,4,0,0,1,3,1.25,6.74,6.74,0,0,0-.87.38.79.79,0,0,0-.31,1.07l.09.13a2.35,2.35,0,0,0,1.18.77h.43a6.43,6.43,0,0,1-.54,1.71A9.85,9.85,0,0,1,42,269a7.91,7.91,0,0,0-.79-.35.76.76,0,0,0-1,.48.85.85,0,0,0,0,.22,3.39,3.39,0,0,0,.32,1.21,11.92,11.92,0,0,1-2,1.39,1.64,1.64,0,0,0-.22-.14c-.16-.09-.33-.16-.49-.24l-.3-.11a.8.8,0,0,0-.74.17.76.76,0,0,0-.24.74,2.83,2.83,0,0,0,.14.41,5.6,5.6,0,0,1-2.78.26,18.94,18.94,0,0,1-.89-2.19c.24-.06.48-.11.71-.18a1.19,1.19,0,0,0,.67-.47,1,1,0,0,0-.24-1.39l-.09-.06a1,1,0,0,0-.79-.14c-.28.08-.57.14-.86.21a13.27,13.27,0,0,1-.37-3.5h.08a8.25,8.25,0,0,1,1.22.71,1.05,1.05,0,0,0,1.45-.32A1.06,1.06,0,0,0,34.54,264.26Z"/><path class="cls-5" d="M63.81,271.51c.21,1.47-3.77,2.44-7,3,.26,2.67,2,5.36,4.49,7.88,3.09-1.74,7.49-4,8.3-3.47s-3.62,3.53-6.44,5.24A56.73,56.73,0,0,0,69.55,289c1.38-1.29,3-2.42,4-1.81s.73,2.64.24,4.42c3.36,2,5.87,3.15,5.87,3.15a67.63,67.63,0,0,0,2.24-9.53c-.17-.34-.34-.67-.49-1-.54-1.25,0-1.79.88-2a32.86,32.86,0,0,0,0-6.87c-3.79-.79-8.41-2.27-6.68-4.55,1-1.37,3-1.53,4.94-1.18a9,9,0,0,0-.94-1.28c-6.92-7.62-11.74,0-11.74,0-4-3.35-9.66-2.44-10.88,2.79C59.24,270.55,63.55,269.69,63.81,271.51Z"/><path class="cls-9" d="M63.81,271.51c.21,1.47-3.77,2.44-7,3,.26,2.67,2,5.36,4.49,7.88,3.09-1.74,7.49-4,8.3-3.47s-3.62,3.53-6.44,5.24A56.73,56.73,0,0,0,69.55,289c1.38-1.29,3-2.42,4-1.81s.73,2.64.24,4.42c3.36,2,5.87,3.15,5.87,3.15a67.63,67.63,0,0,0,2.24-9.53c-.17-.34-.34-.67-.49-1-.54-1.25,0-1.79.88-2a32.86,32.86,0,0,0,0-6.87c-3.79-.79-8.41-2.27-6.68-4.55,1-1.37,3-1.53,4.94-1.18a9,9,0,0,0-.94-1.28c-6.92-7.62-11.74,0-11.74,0-4-3.35-9.66-2.44-10.88,2.79C59.24,270.55,63.55,269.69,63.81,271.51Z"/></g><g id="freepik--Device--inject-101"><rect class="cls-7" x="85.27" width="188.74" height="339.47" rx="10.4"/><path class="cls-5" d="M267.7,11.37V327.49a4.62,4.62,0,0,1-4.62,4.62H95.89A4.14,4.14,0,0,1,91.7,328V11a3.73,3.73,0,0,1,3.57-3.88h41.8A2.93,2.93,0,0,1,139.76,9l1.73,4.26a2.94,2.94,0,0,0,2.69,1.86h71.13a2.91,2.91,0,0,0,2.7-1.83L219.74,9a3,3,0,0,1,2.69-1.89h41.18A4.22,4.22,0,0,1,267.7,11.37Z"/><rect class="cls-6" x="91.7" y="26.86" width="176" height="284.25"/><circle class="cls-10" cx="141.86" cy="85.59" r="39.85"/><circle class="cls-11" cx="175.72" cy="7.53" r="2.42"/><path class="cls-11" d="M183,7.53A1.55,1.55,0,1,1,181.46,6,1.54,1.54,0,0,1,183,7.53Z"/><rect class="cls-11" x="111.56" y="16.95" width="2.17" height="2.9"/><rect class="cls-11" x="108.01" y="15.99" width="2.17" height="3.86"/><rect class="cls-11" x="104.47" y="15.02" width="2.17" height="4.83"/><rect class="cls-11" x="100.93" y="14.05" width="2.17" height="5.8"/><rect class="cls-11" x="246.95" y="15.89" width="1.29" height="2.9"/><rect class="cls-11" x="249.12" y="14.84" width="10.27" height="5.01"/><g id="freepik--group--inject-101"><path class="cls-5" d="M147,78.78c-8.26.1-20.63.75-30.91,3.34,0,0,1.51,7.58,3.15,17.89.61,3.84,1.24,8,1.82,12.39.08.65.17,1.3.25,2l.12,1c.16,1.31.32,2.63.47,3.94a8.58,8.58,0,0,0,.1.87,39.86,39.86,0,0,0,38.21.79c-.08-13.32-.9-30.23-4.05-42A73.88,73.88,0,0,0,147,78.78Z"/><path class="cls-11" d="M147,78.78c-8.26.1-20.63.75-30.91,3.34,0,0,1.51,7.58,3.15,17.89.61,3.84,1.24,8,1.82,12.39.08.65.17,1.3.25,2l.12,1c.16,1.31.32,2.63.47,3.94a8.58,8.58,0,0,0,.1.87,39.86,39.86,0,0,0,38.21.79c-.08-13.32-.9-30.23-4.05-42A73.88,73.88,0,0,0,147,78.78Z"/><path class="cls-12" d="M129.54,80.41c3.3,3,11.37,1.89,11.37,1.89s5-1.38,4-3c-3-.49-4.41-1.88-5-3.65a8.82,8.82,0,0,1-.3-3.39,11.24,11.24,0,0,1,.25-1.9l-10-7.39C131.17,67.89,132.77,76.87,129.54,80.41Z"/><path class="cls-13" d="M132.16,67.71c.4,6,5.32,7.64,7.73,8a8.82,8.82,0,0,1-.3-3.39Z"/><path class="cls-7" d="M144.57,47.62S148,56.41,143.94,61s-7.84-12.36-7.84-12.36Z"/><path class="cls-12" d="M131.53,71.36a8.49,8.49,0,0,0,10.21,1.08A9.48,9.48,0,0,0,146,67a9.16,9.16,0,0,0,.24-1c1.13-6.1-.29-16-7-18.33a9.18,9.18,0,0,0-12.17,9.81C127.85,64.16,128,68.12,131.53,71.36Z"/><path class="cls-7" d="M137.38,58.85c0,.55.33,1,.69,1s.62-.47.6-1-.34-1-.7-1S137.35,58.3,137.38,58.85Z"/><path class="cls-7" d="M143.54,58.54c0,.54.34,1,.7,1s.62-.48.59-1-.34-1-.7-.95S143.51,58,143.54,58.54Z"/><path class="cls-14" d="M141.59,58.91a19.76,19.76,0,0,0,2.85,4.53,3.15,3.15,0,0,1-2.6.62Z"/><path class="cls-7" d="M135.36,57a.35.35,0,0,0,.31-.15,2.56,2.56,0,0,1,2-1.17.32.32,0,1,0,0-.64h0a3.2,3.2,0,0,0-2.53,1.45.33.33,0,0,0,.07.45h0A.47.47,0,0,0,135.36,57Z"/><path class="cls-7" d="M146.08,56.28a.31.31,0,0,0,.19,0,.32.32,0,0,0,.13-.43h0a3.15,3.15,0,0,0-2.4-1.68.3.3,0,0,0-.34.26v0h0a.33.33,0,0,0,.29.34h0a2.57,2.57,0,0,1,1.88,1.36A.3.3,0,0,0,146.08,56.28Z"/><path class="cls-7" d="M131.61,48.9l.65,2.9a2.21,2.21,0,0,0-.83,2.87c1.19,2.38.17,6.36-1.58,8.07,0,0-.16-1.06-1-.72s-.08,5.9,2,8.39a19.62,19.62,0,0,1-5.49-8.35c-1.93-5.28-2-9.28-1.15-11.49Z"/><path class="cls-12" d="M124.48,63.14a6.36,6.36,0,0,0,3.81,3c2.15.6,3.23-1.32,2.64-3.36-.54-1.8-2.31-4.35-4.48-4a2.85,2.85,0,0,0-2,4.36Z"/><path class="cls-7" d="M132.26,51.78s7.24,2.57,11.36-1.25-.64-9-.64-9a6,6,0,0,1-3.76,1.8c-2.31.16-7.64-1.23-11.93,1s-5.9,8.37-2,11.17Z"/><path class="cls-15" d="M138,65a3.14,3.14,0,0,0,3.57,1.28"/><path class="cls-5" d="M144.2,81.78l-1,4.75s5.53,23.07,6.72,35l-2,2-3.17-2s-.28-24.37-3.08-34.61l-5-4.11,4-1.27Z"/><path class="cls-5" d="M130.67,75.89l9.59,4.32.56-3.46L144.35,78a2.9,2.9,0,0,1,1.92,3l-.4,3.81L141,82.16l-2.43,3.43L127.06,80Z"/><path class="cls-16" d="M130.67,75.89l9.59,4.32.56-3.46L144.35,78a2.9,2.9,0,0,1,1.92,3l-.4,3.81L141,82.16l-2.43,3.43L127.06,80Z"/><path class="cls-17" d="M140,38c-22,0-38,25.58-38,47.58a39.85,39.85,0,0,0,18.76,33.81c-1.74-12.78-4.16-31.11-4.64-37.27l11.19-2.68s9.05,7.36,19.28,30.83c0,0,.37-22.93-1.56-31.93l11.16.54s6,13.25,5.11,41.48a39.82,39.82,0,0,0,20.4-34.78C181.71,63.59,162,38,140,38Z"/><path class="cls-7" d="M156.2,78.89,145,78.35c1.93,9,1.56,31.93,1.56,31.93-10.23-23.47-19.28-30.83-19.28-30.83L116.1,82.13c.48,6.16,2.9,24.49,4.64,37.27a39.85,39.85,0,0,0,40.54,1C162.16,92.14,156.2,78.89,156.2,78.89Z"/><path class="cls-18" d="M161.37,110.78c-.54-21.65-5.17-31.86-5.17-31.86L145,78.35c1.65,7.72,1.61,25.72,1.57,30.66v1.26l-.58-1.33c-10-22.41-18.69-29.5-18.69-29.5l-.77.19-10.41,2.5c.27,3.49,1.16,10.88,2.19,19,.34,2.57.68,5.2,1,7.8s.66,4.89,1,7.2c.15,1.14.3,2.24.45,3.31a39.84,39.84,0,0,0,40.56,1,13.29,13.29,0,0,1,0-1.43Q161.46,114.6,161.37,110.78Z"/><path class="cls-8" d="M150.71,88.84l2.59,4.56s-2.69,17.56-7,23.67v-3.63l-16.74-19.3,3-4.64L125,91s-.7-7,1.54-11.35l.77-.18s9.05,7.37,19.27,30.83c0,0,.38-22.94-1.55-31.93,0,0,5.33,2.89,9.13,10.49Z"/><path class="cls-17" d="M140,38c-22,0-38,25.58-38,47.58a39.81,39.81,0,0,0,18.76,33.81c-.15-1.07-.3-2.17-.45-3.31-.31-2.31-.63-4.74-1-7.2l5-16.1,12.37,15,9.34,1.1.6.07,14.79,1.77q.09,3.84,0,8.18c-2.83-.43-6.65-1.14-11.42-2.33a141.35,141.35,0,0,1-14.76,8.28A39.85,39.85,0,0,0,181.7,85.62C181.71,63.59,162,38,140,38Z"/><path class="cls-13" d="M161.38,118.93q.08-4.34,0-8.18L146.62,109l-.6-.07-9.34-1.1L124.3,92.78l-5,16.1c.34,2.46.66,4.89,1,7.2.15,1.14.3,2.24.45,3.31a39.47,39.47,0,0,0,14.43,5.48A141.56,141.56,0,0,0,150,116.6C154.73,117.78,158.55,118.5,161.38,118.93Z"/><path class="cls-17" d="M137.29,114.59l1-4.31,22.66-7.6a106,106,0,0,0-1.56-11.23A110.89,110.89,0,0,0,156.2,78.9C160.57,79.9,173,97,175.46,107a39.65,39.65,0,0,0,6.25-21.42C181.71,63.59,162,38,140,38s-38,25.58-38,47.58A39.85,39.85,0,0,0,168.83,115C157.68,117.06,137.29,114.59,137.29,114.59Z"/><path class="cls-7" d="M156.2,78.9a110.89,110.89,0,0,1,3.19,12.55A106,106,0,0,1,161,102.68l-22.66,7.6-1,4.31s20.39,2.47,31.52.36a40.46,40.46,0,0,0,6.65-7.94C173,97,160.57,79.92,156.2,78.9Z"/><path class="cls-17" d="M154.13,115.78c-3.32-.08-6.53-.26-9.25-.47-4.47-.33-7.59-.72-7.59-.72l1-4.31,7.9-2.64,14.77-5a108.68,108.68,0,0,0-1.56-11.23c-.07-.36-.14-.71-.22-1.07a108.35,108.35,0,0,0-3-11.49C160.55,79.9,173,97,175.44,107a39.71,39.71,0,0,0,6.25-21.43C181.69,63.6,162,38,140,38S102,63.6,102,85.6A39.85,39.85,0,0,0,168.8,115,75,75,0,0,1,154.13,115.78Z"/><path class="cls-18" d="M156.2,78.89a108.35,108.35,0,0,1,3,11.49c.08.36.15.71.22,1.07A108.68,108.68,0,0,1,161,102.68l-14.77,4.95-7.9,2.64-1,4.31s3.12.39,7.59.72c2.72.21,5.93.39,9.25.47a75,75,0,0,0,14.67-.81,40.51,40.51,0,0,0,6.66-7.94C173,97,160.57,79.92,156.2,78.89Z"/><path class="cls-13" d="M167.5,102.61a70.07,70.07,0,0,1-13.37,13.17c-3.32-.08-6.53-.26-9.25-.47a16,16,0,0,1-.7-5l2-2.64,14.77-5a108.68,108.68,0,0,0-1.56-11.23c-.07-.36-.14-.71-.22-1.07l.08-.09S165.85,95.34,167.5,102.61Z"/><path class="cls-12" d="M140.54,107.89s-4.51-3.63-6.27-4.18-5.18,2.09-5.18,2.09l4.4,6.28Z"/><path class="cls-12" d="M160.79,107.12l6.71-4.51s-5.06-3.63-5.72-3.74-4,3.74-4,3.74Z"/><path class="cls-7" d="M116.14,82.13c-6.53,3.2,2.81,34.19,10.91,40.49s35.58-15.55,35.58-15.55l-4.15-5.82S137,108.78,134.19,108s-10.4-16.81-12.87-20.53a21.37,21.37,0,0,0-6.12-5.9"/><path class="cls-18" d="M116.14,82.13c-6.53,3.2,2.81,34.19,10.91,40.49s35.58-15.55,35.58-15.55l-4.15-5.82S137,108.78,134.19,108s-10.4-16.81-12.87-20.53a21.37,21.37,0,0,0-6.12-5.9"/></g><path class="cls-5" d="M235.94,67.08H198.83A4.81,4.81,0,0,1,194,62.29h0a4.79,4.79,0,0,1,4.79-4.78h37.11a4.78,4.78,0,0,1,4.78,4.78h0A4.79,4.79,0,0,1,235.94,67.08Z"/><path class="cls-5" d="M252.85,78.4h-57A1.84,1.84,0,0,1,194,76.56h0a1.83,1.83,0,0,1,1.83-1.83h57a1.83,1.83,0,0,1,1.84,1.82h0A1.84,1.84,0,0,1,252.85,78.4Z"/><path class="cls-5" d="M228.68,86.94h-32.8A1.83,1.83,0,0,1,194,85.12h0a1.84,1.84,0,0,1,1.84-1.84h32.8a1.83,1.83,0,0,1,1.83,1.83h0A1.83,1.83,0,0,1,228.68,86.94Z"/><path class="cls-13" d="M212.92,109.44H198.5A4.46,4.46,0,0,1,194,105v0h0a4.46,4.46,0,0,1,4.46-4.46h14.42a4.45,4.45,0,0,1,4.46,4.44v0h0A4.46,4.46,0,0,1,212.92,109.44Z"/><rect class="cls-5" x="96.33" y="137.49" width="65.14" height="163.23"/><g class="cls-19"><path class="cls-10" d="M144.36,180.61h-37a1.84,1.84,0,0,1-1.84-1.84h0a1.83,1.83,0,0,1,1.83-1.83h37a1.83,1.83,0,0,1,1.84,1.82h0A1.84,1.84,0,0,1,144.36,180.61Z"/><path class="cls-10" d="M130.19,189.15h-22.8a1.84,1.84,0,0,1-1.84-1.84h0a1.83,1.83,0,0,1,1.83-1.83h22.81a1.85,1.85,0,0,1,1.84,1.83h0A1.84,1.84,0,0,1,130.19,189.15Z"/></g><g class="cls-19"><path class="cls-10" d="M134.36,206.16h-27a1.84,1.84,0,0,1-1.84-1.84h0a1.83,1.83,0,0,1,1.83-1.83h27a1.83,1.83,0,0,1,1.84,1.82h0A1.84,1.84,0,0,1,134.36,206.16Z"/><path class="cls-10" d="M140.19,214.7h-32.8a1.83,1.83,0,0,1-1.84-1.82h0a1.84,1.84,0,0,1,1.84-1.84h32.8a1.84,1.84,0,0,1,1.84,1.84h0A1.85,1.85,0,0,1,140.19,214.7Z"/></g><g class="cls-19"><path class="cls-10" d="M144.36,231.71h-37a1.83,1.83,0,0,1-1.84-1.82h0a1.84,1.84,0,0,1,1.84-1.84h37a1.84,1.84,0,0,1,1.84,1.84h0a1.83,1.83,0,0,1-1.83,1.83Z"/><path class="cls-10" d="M120.19,240.26h-12.8a1.84,1.84,0,0,1-1.84-1.84h0a1.83,1.83,0,0,1,1.83-1.83h12.81a1.85,1.85,0,0,1,1.84,1.83h0A1.86,1.86,0,0,1,120.19,240.26Z"/></g><g class="cls-19"><path class="cls-10" d="M124.36,257.27h-17a1.84,1.84,0,0,1-1.84-1.84h0a1.83,1.83,0,0,1,1.83-1.83h17a1.83,1.83,0,0,1,1.84,1.82h0A1.84,1.84,0,0,1,124.36,257.27Z"/><path class="cls-10" d="M140.19,265.78h-32.8a1.84,1.84,0,0,1-1.84-1.84h0a1.83,1.83,0,0,1,1.83-1.83h32.81a1.85,1.85,0,0,1,1.84,1.83h0A1.84,1.84,0,0,1,140.19,265.78Z"/></g><rect class="cls-6" x="165.17" y="137.5" width="97.58" height="163.23"/><g class="cls-20"><path d="M180.56,155.05h27a1.84,1.84,0,1,0,.27-3.67H180.56a1.84,1.84,0,0,0-.27,3.67Z"/><path d="M243.53,170.12h-51a1.84,1.84,0,0,0-.27,3.67,1.22,1.22,0,0,0,.27,0h51a1.84,1.84,0,1,0,.27-3.67Z"/><path d="M180.56,182.33h62.8a1.84,1.84,0,0,0,0-3.67h-62.8a1.84,1.84,0,0,0-.27,3.67Z"/><path d="M243.53,188.85h-63a1.84,1.84,0,0,0-.27,3.67h63.27a1.84,1.84,0,1,0,.27-3.67Z"/><path d="M180.56,201.07h62.8a1.84,1.84,0,0,0,0-3.67h-62.8a1.84,1.84,0,0,0-.27,3.67A1.22,1.22,0,0,0,180.56,201.07Z"/><path d="M243.53,207.59h-63a1.84,1.84,0,0,0-.27,3.67,1.22,1.22,0,0,0,.27,0h63a1.84,1.84,0,1,0,.27-3.67Z"/><path d="M180.56,219.78h48.8a1.84,1.84,0,0,0,0-3.67h-48.8a1.84,1.84,0,0,0-.27,3.67Z"/><path d="M192.56,238.53h50.8a1.84,1.84,0,0,0,0-3.67h-50.8a1.84,1.84,0,0,0-.27,3.67Z"/><path d="M243.53,245.06h-63a1.84,1.84,0,0,0-.27,3.67,1.22,1.22,0,0,0,.27,0h63a1.84,1.84,0,1,0,.27-3.67Z"/><path d="M180.56,257.27h62.8a1.84,1.84,0,0,0,0-3.67h-62.8a1.84,1.84,0,1,0-.27,3.67Z"/><path d="M230.53,263.78h-50a1.84,1.84,0,1,0-.27,3.67h50.27a1.84,1.84,0,1,0,.27-3.67Z"/><path d="M243.53,282.53h-63a1.84,1.84,0,1,0-.27,3.67h63.27a1.84,1.84,0,1,0,.27-3.67Z"/></g><g class="cls-19"><path class="cls-10" d="M134.36,155.05h-27a1.83,1.83,0,0,1-1.84-1.82h0a1.84,1.84,0,0,1,1.84-1.84h27a1.84,1.84,0,0,1,1.84,1.84h0a1.83,1.83,0,0,1-1.83,1.83Z"/><path class="cls-10" d="M120.19,163.6h-12.8a1.84,1.84,0,0,1-1.84-1.84h0a1.83,1.83,0,0,1,1.83-1.83h12.81a1.84,1.84,0,0,1,1.82,1.85h0A1.85,1.85,0,0,1,120.19,163.6Z"/></g></g><g id="freepik--Character--inject-101"><path class="cls-12" d="M349.91,103.64l2.44-4.43,6.28-9.13,1.18-7.56s5.5,2,6.4,3.63.48,9.7,0,10.69-6.15,4.88-6.15,4.88l-3,5.8Z"/><path class="cls-7" d="M322.07,71.87s20.32,31.91,22.7,34.77,5-7.43,5-7.43l10.28,4.48s-2.9,19.51-10.81,20.3-24.79-20-24.79-20Z"/><path class="cls-18" d="M360.06,103.69s-2.9,19.51-10.81,20.31c-3.95.39-10.15-4.61-15.35-9.72S324.46,104,324.46,104l-.82-11-1.57-21.14s20.32,31.91,22.7,34.77,5-7.43,5-7.43Z"/><path class="cls-13" d="M333.9,114.28c-5.21-5.11-9.44-10.32-9.44-10.32l-.82-11A32.71,32.71,0,0,1,333.9,114.28Z"/><path class="cls-7" d="M282.74,243v-9.9a.71.71,0,0,0-.56-.7L275,230.78a1.2,1.2,0,0,0-1.43.92h0a1.22,1.22,0,0,0,0,.27c0,3.2.22,5.53.2,9.55,0,2.48-.31,9.95-.32,13.37s3.36,3.89,3.67,2.49c1.4-6.28,3.32-11,5.14-13A2,2,0,0,0,282.74,243Z"/><path class="cls-7" d="M326.93,151.86l3.2,16.77s25.27,40.9,25.26,64.51c0,28.21-73.6,11.94-73.6,11.94v-13s44,3.78,48-.63c4.81-5.36-24.85-46.8-24.85-46.8Z"/><path class="cls-8" d="M355.39,233.15c0,15.55-22.38,17.58-42.45,16.27a235.06,235.06,0,0,1-29.77-4l-1.38-.29v-13l1.62.13c5,.4,20.57,1.53,32.35,1.36,7-.1,12.67-.67,14-2.12,2.36-2.63-3.6-14-10.27-24.84h0c-6.91-11.23-14.58-22-14.58-22l9.66-14.38L327,151.86l3.2,16.77S355.4,209.53,355.39,233.15Z"/><path class="cls-13" d="M315.76,233.58l-2.82,15.84a235.06,235.06,0,0,1-29.77-4l.24-13.15C288.41,232.62,304,233.78,315.76,233.58Z"/><path class="cls-13" d="M314.59,188.22s4.11,9.67,4.88,18.39c-6.91-11.23-14.58-22-14.58-22l9.66-14.38,5.09-1.65S320.77,175.23,314.59,188.22Z"/><path class="cls-7" d="M308,330.19h-9.9a.75.75,0,0,0-.7.56l-1.6,7.26a1.2,1.2,0,0,0,.91,1.42H297c3.2-.05,5.53-.25,9.56-.25,2.47,0,9.95.26,13.37.26s3.86-3.38,2.46-3.69c-6.28-1.37-11-3.26-13-5.07A2,2,0,0,0,308,330.19Z"/><path class="cls-7" d="M282.84,152.4s-2.19,8.21,0,45.85C286.22,256,296.93,333,296.93,333l12.45-2.26s-1.59-115.08.09-146.84c0,0,17.6-15.79,17.46-32S282.84,152.4,282.84,152.4Z"/><path class="cls-8" d="M282.84,152.4s-2.19,8.21,0,45.85C286.22,256,296.93,333,296.93,333l12.45-2.26s-1.59-115.08.09-146.84c0,0,17.6-15.79,17.46-32S282.84,152.4,282.84,152.4Z"/><polygon class="cls-7" points="326.38 147.21 282.84 147.21 282.84 152.4 326.94 151.86 326.38 147.21"/><rect class="cls-7" x="296.84" y="144.88" width="1.55" height="9.2"/><rect class="cls-7" x="318.87" y="144.88" width="1.55" height="9.2"/><rect class="cls-10" x="306.54" y="146.3" width="8.05" height="5.8"/><rect class="cls-8" x="296.84" y="144.88" width="1.55" height="9.2"/><rect class="cls-8" x="318.87" y="144.88" width="1.55" height="9.2"/><path class="cls-5" d="M322.07,71.87s-27.51-1.3-48,3.87c0,0,9.05,45.56,8.71,71.47h43.61S329.21,98.61,322.07,71.87Z"/><path class="cls-11" d="M326.38,147.21h-43.6c0-2.82,0-5.86-.2-9.06-.38-7.48-1.23-15.77-2.26-23.79L280,112c-.7-5.21-1.45-10.25-2.18-14.85-2-12.35-3.77-21.43-3.77-21.43,20.49-5.17,48-3.88,48-3.88C329.21,98.61,326.38,147.21,326.38,147.21Z"/><path class="cls-12" d="M290.13,73.68c3.95,3.59,13.62,2.26,13.62,2.26s6-1.65,4.78-3.54c-3.56-.59-5.28-2.25-6-4.38a10.33,10.33,0,0,1-.36-4.06,21.69,21.69,0,0,1,.3-2.27l-12-8.86C292.08,58.68,294,69.44,290.13,73.68Z"/><path class="cls-13" d="M293.27,58.46c.48,7.18,6.38,9.16,9.26,9.56a10.33,10.33,0,0,1-.36-4.06Z"/><path class="cls-7" d="M286.52,34.23s-3.34,10.8,1.89,15.93,8.31-15.44,8.31-15.44Z"/><path class="cls-12" d="M304.12,61.49A10.14,10.14,0,0,1,292,63.65a11.26,11.26,0,0,1-5.6-6.15c-.14-.36-.26-.75-.37-1.14-1.87-7.18-1-19.13,6.79-22.49a11,11,0,0,1,14.46,5.66,10.73,10.73,0,0,1,.91,5C307.91,52.58,308.1,57.31,304.12,61.49Z"/><path class="cls-7" d="M296.07,47.05c.06.64-.32,1.18-.75,1.19s-.78-.52-.8-1.17.33-1.19.75-1.19S296,46.38,296.07,47.05Z"/><path class="cls-7" d="M288.68,47.19c.06.65-.33,1.19-.75,1.2s-.78-.52-.8-1.17.33-1.19.75-1.2S288.67,46.57,288.68,47.19Z"/><path class="cls-14" d="M291,47.47a22.93,22.93,0,0,1-3,5.66,3.81,3.81,0,0,0,3.16.52Z"/><path class="cls-7" d="M298.32,44.61a.43.43,0,0,1-.38-.15,3.08,3.08,0,0,0-2.48-1.23.39.39,0,0,1-.42-.35.38.38,0,0,1,.35-.41h0A3.79,3.79,0,0,1,298.54,44a.39.39,0,0,1,0,.53h0A.85.85,0,0,1,298.32,44.61Z"/><path class="cls-7" d="M285.45,44.71a.41.41,0,0,1-.22,0,.39.39,0,0,1-.2-.5h0A3.77,3.77,0,0,1,287.75,42a.38.38,0,0,1,.43.32h0a.4.4,0,0,1-.32.43h0a3.07,3.07,0,0,0-2.13,1.79A.46.46,0,0,1,285.45,44.71Z"/><path class="cls-7" d="M302.12,34.66l-.53,3.52a2.64,2.64,0,0,1,1.23,3.36c-1.22,3,.34,7.61,2.58,9.51,0,0,.1-1.28,1.18-1s.6,7-1.61,10.19a23.4,23.4,0,0,0,5.84-10.44c1.86-6.48,1.66-11.27.39-13.83Z"/><path class="cls-12" d="M311.85,51.07a7.65,7.65,0,0,1-4.3,4c-2.52.9-4-1.31-3.44-3.79.5-2.21,2.39-5.4,5-5.21S312.87,48.78,311.85,51.07Z"/><path class="cls-7" d="M290.58,55.61a20.05,20.05,0,0,1,.79,2.85h.52c2.36-.11,3.42-.94,3.88-1.82a3.12,3.12,0,0,0,.31-1.41,2.85,2.85,0,0,0-.11-.82,10.91,10.91,0,0,1-4.58,1.17C290.89,55.61,290.58,55.61,290.58,55.61Z"/><path class="cls-10" d="M291.39,55.56l.25.84c2.22-.11,3.77-.48,4.44-1.19a2.85,2.85,0,0,0-.11-.82A10.91,10.91,0,0,1,291.39,55.56Z"/><path class="cls-21" d="M291.89,58.44c2.36-.11,3.42-.94,3.88-1.82a7.53,7.53,0,0,0-2.6.64A2.81,2.81,0,0,0,291.89,58.44Z"/><path class="cls-7" d="M301.59,38.18s-8.43,3.69-13.68-.53,0-10.79,0-10.79a7.23,7.23,0,0,0,4.64,1.82c2.77,0,9-2.11,14.34.13s7.76,9.5,3.3,13.19Z"/><path class="cls-5" d="M307.69,75.35l-1.15,5.7s6.62,27.64,8,42l-2.42,2.41-3.8-2.41s-.34-29.2-3.69-41.47l-6-4.92,4.73-1.53Z"/><path class="cls-5" d="M291.48,68.26,303,73.44l.68-4.15,4.22,1.49a3.45,3.45,0,0,1,2.3,3.63L309.74,79l-5.88-3.19L301,79.89l-13.81-6.65Z"/><path class="cls-16" d="M291.48,68.26,303,73.44l.68-4.15,4.22,1.49a3.45,3.45,0,0,1,2.3,3.63L309.74,79l-5.88-3.19L301,79.89l-13.81-6.65Z"/><path class="cls-7" d="M287.47,72.53s10.84,8.82,23.09,36.94c0,0,.45-27.48-1.86-38.26l13.37.65s9.78,21.61,4.87,68.29l3.39,23.34-14.74,6.17-3.4-10.88-3.49,10.67-28.42-3.8,1.51-29.47s-6.78-48.69-7.72-60.4Z"/><path class="cls-18" d="M330.33,163.5l-14.74,6.16-3.4-10.88-3.49,10.66-11-1.47-17.44-2.33L281,151l.76-14.83s-1.22-8.77-2.71-19.76c-.77-5.7-1.6-12-2.38-18-1.24-9.68-2.31-18.54-2.63-22.72l12.47-3,.93-.22s10.84,8.83,23.09,36.94c0,0,.45-27.48-1.86-38.25l13.37.65s9.78,21.6,4.87,68.29Z"/><path class="cls-8" d="M315.49,83.78l3.1,5.47s-3.22,21-8.4,28.36v-4.35L290.13,90.13l3.6-5.56-9,1.78s-.84-8.45,1.84-13.6l.93-.22s10.84,8.83,23.09,36.94c0,0,.45-27.48-1.86-38.25,0,0,6.39,3.46,10.94,12.56Z"/><path class="cls-13" d="M279.08,116.44c-.77-5.7-1.6-12-2.38-18l3.19-1.63S282.75,107.78,279.08,116.44Z"/><path class="cls-13" d="M297.72,168l-17.44-2.33L281,151C286.36,153.62,295,159.06,297.72,168Z"/><path class="cls-7" d="M274.07,75.78s-21.35,31.89-19.24,49.69,28,46.8,28,46.8l8.25-5.13s-20.7-31.77-22.54-41.67c-1-5.32,11.34-28.61,11.34-28.61S279.06,80.78,274.07,75.78Z"/><path class="cls-18" d="M274.07,75.78s-21.35,31.89-19.24,49.69,28,46.8,28,46.8l8.25-5.13s-20.7-31.77-22.54-41.67c-1-5.32,11.34-28.61,11.34-28.61S279.06,80.78,274.07,75.78Z"/><polygon class="cls-5" points="341.07 97.94 342.99 71.72 360.06 72.9 362.08 64.5 366.21 66.23 357.57 96.84 341.07 97.94"/><polygon class="cls-16" points="341.07 97.94 342.99 71.72 360.06 72.9 362.08 64.5 366.21 66.23 357.57 96.84 341.07 97.94"/><polygon class="cls-5" points="337.58 101.72 343.91 74.56 361.05 74.56 367.12 64.76 362.11 93.82 356.04 100.18 337.58 101.72"/><polygon class="cls-13" points="361.05 74.56 356.04 100.18 362.11 93.82 367.12 64.76 361.05 74.56"/><path class="cls-12" d="M363.75,84.29s-2.89,1-3.29,2.68-1,12.26-1,12.26,4.48-1,5.14-3.43S363.75,84.29,363.75,84.29Z"/></g></g></g></svg>