<svg xmlns="http://www.w3.org/2000/svg" viewBox="0 0 387.78 330.22"><defs><style>.cls-1{fill:#6c48ef;}.cls-10,.cls-2,.cls-5,.cls-6{fill:#fff;}.cls-2{opacity:0.7;}.cls-10,.cls-12,.cls-16,.cls-2,.cls-3,.cls-4,.cls-5{isolation:isolate;}.cls-3{opacity:0.2;}.cls-4{opacity:0.4;}.cls-5{opacity:0.8;}.cls-7{fill:#f5f5f5;}.cls-8{fill:#9f5b53;}.cls-9{fill:#5930f0;}.cls-10{opacity:0.6;}.cls-11{fill:#8a4743;}.cls-12{opacity:0.5;}.cls-13{fill:#263238;}.cls-14{fill:#892b29;}.cls-15{fill:#bed3fc;}.cls-16{opacity:0.3;}.cls-17{fill:#8773ea;}</style></defs><title>walk1Recurso 1</title><g id="Capa_2" data-name="Capa 2"><g id="Capa_1-2" data-name="Capa 1"><rect class="cls-1" x="7.04" y="0.52" width="144.32" height="304.79" rx="14.62"/><rect class="cls-2" x="7.04" y="0.52" width="144.32" height="304.79" rx="14.62"/><rect class="cls-1" x="10.9" width="144.32" height="304.79" rx="14.62"/><rect class="cls-3" x="10.9" width="144.32" height="304.79" rx="14.62"/><path class="cls-1" d="M88.69,291.36a6.51,6.51,0,1,1-6.52-6.5h0A6.5,6.5,0,0,1,88.69,291.36Z"/><path class="cls-4" d="M88.69,291.36a6.51,6.51,0,1,1-6.52-6.5h0A6.5,6.5,0,0,1,88.69,291.36Z"/><polygon class="cls-1" points="154.06 281.83 10.46 281.83 10.46 19.91 155.06 19.91 154.06 281.83"/><polygon class="cls-5" points="155.33 281.69 10.38 281.86 10.38 19.93 155.2 19.78 155.33 281.69"/><path class="cls-6" d="M26.32,30.75H74.67c2.67,0,4.83,4.45,4.83,9.94v59.46c0,5.49-2.16,9.94-4.83,9.94H26.32c-2.66,0-4.82-4.45-4.82-9.94V40.69C21.5,35.2,23.66,30.75,26.32,30.75Z"/><path class="cls-6" d="M26.32,120.75H74.67c2.67,0,4.83,4.45,4.83,9.94v59.46c0,5.49-2.16,9.94-4.83,9.94H26.32c-2.66,0-4.82-4.45-4.82-9.94V130.69C21.5,125.2,23.66,120.75,26.32,120.75Z"/><path class="cls-6" d="M93.51,30.75h48.35c2.67,0,4.83,4.45,4.83,9.94v59.46c0,5.49-2.16,9.94-4.83,9.94H93.51c-2.66,0-4.82-4.45-4.82-9.94V40.69C88.69,35.2,90.85,30.75,93.51,30.75Z"/><path class="cls-6" d="M93.51,120.75h48.35c2.67,0,4.83,4.45,4.83,9.94v59.46c0,5.49-2.16,9.94-4.83,9.94H93.51c-2.66,0-4.82-4.45-4.82-9.94V130.69C88.69,125.2,90.85,120.75,93.51,120.75Z"/><path class="cls-6" d="M93.51,210.75h48.35c2.67,0,4.83,3.54,4.83,7.92V266c0,4.37-2.16,7.91-4.83,7.91H93.51c-2.66,0-4.82-3.54-4.82-7.91V218.67C88.69,214.29,90.85,210.75,93.51,210.75Z"/><path class="cls-6" d="M26.32,210.75H74.67c2.67,0,4.83,3.54,4.83,7.92V266c0,4.37-2.16,7.91-4.83,7.91H26.32c-2.66,0-4.82-3.54-4.82-7.91V218.67C21.5,214.29,23.66,210.75,26.32,210.75Z"/><path class="cls-1" d="M63.63,8.25a2.3,2.3,0,1,1,2.3,2.31,2.3,2.3,0,0,1-2.3-2.31Z"/><path class="cls-1" d="M73.88,6H93a2.31,2.31,0,0,1,2.3,2.3h0A2.32,2.32,0,0,1,93,10.56H73.88a2.32,2.32,0,0,1-2.3-2.31h0A2.31,2.31,0,0,1,73.88,6Z"/><path class="cls-4" d="M63.63,8.25a2.3,2.3,0,1,1,2.3,2.31,2.3,2.3,0,0,1-2.3-2.31Z"/><path class="cls-4" d="M73.88,6H93a2.31,2.31,0,0,1,2.3,2.3h0A2.32,2.32,0,0,1,93,10.56H73.88a2.32,2.32,0,0,1-2.3-2.31h0A2.31,2.31,0,0,1,73.88,6Z"/><g id="freepik--Shadow--inject-209"><ellipse class="cls-7" cx="193.89" cy="318.89" rx="193.89" ry="11.32"/></g><g id="freepik--Character--inject-209"><polygon class="cls-8" points="303.31 122.19 307.56 128.69 313.88 127.38 309.11 119.3 303.31 122.19"/><path class="cls-8" d="M315.36,66.48c.9,1.09,1.65,2.06,2.42,3.12s1.51,2.08,2.24,3.14c1.46,2.11,2.85,4.28,4.15,6.51s2.56,4.5,3.66,6.89c.59,1.17,1.09,2.42,1.63,3.62a31,31,0,0,1,1.39,3.79l.32,1,.16.49c.09.29.18.6.24.89a11.59,11.59,0,0,1,.22,3.16,17.84,17.84,0,0,1-1.07,4.85,38.8,38.8,0,0,1-3.74,7.42,72.91,72.91,0,0,1-9.72,12l-4.37-3.42q3.6-6.15,6.58-12.63a35.27,35.27,0,0,0,2.17-6.14,9,9,0,0,0,.27-2.42,1.25,1.25,0,0,0-.11-.5h0l-.16-.38-.33-.76A86.58,86.58,0,0,0,314.71,85c-1.26-2-2.59-3.92-3.93-5.88s-2.8-3.9-4.12-5.67Z"/><path class="cls-9" d="M312.89,61.56c6.89,1.58,14.79,20.35,14.79,20.35l-13.79,9.48a117.47,117.47,0,0,1-9.14-15.53C300.66,67.27,305.89,59.94,312.89,61.56Z"/><path class="cls-5" d="M312.89,61.56c6.89,1.58,14.79,20.35,14.79,20.35l-13.79,9.48a117.47,117.47,0,0,1-9.14-15.53C300.66,67.27,305.89,59.94,312.89,61.56Z"/><path class="cls-9" d="M308,73.53l6.54,17.41-.65.45s-2.83-4-5.89-9.33Z"/><path class="cls-10" d="M308,73.53l6.54,17.41-.65.45s-2.83-4-5.89-9.33Z"/><polygon class="cls-8" points="290.53 312.3 283.18 312.3 282.45 295.29 289.8 295.29 290.53 312.3"/><polygon class="cls-8" points="334.64 312.3 327.29 312.3 323.6 295.29 330.94 295.29 334.64 312.3"/><polygon class="cls-11" points="282.45 295.3 282.83 304.06 290.18 304.06 289.8 295.3 282.45 295.3"/><polygon class="cls-11" points="330.95 295.3 323.6 295.3 325.5 304.06 332.85 304.06 330.95 295.3"/><path class="cls-9" d="M285.27,125.44s8.34,56.13,12.91,77.17c5,23,23.9,99.76,23.9,99.76h13.46s-12.46-74.87-15.32-97.71c-3.1-24.75-9.59-79.27-9.59-79.27Z"/><path class="cls-12" d="M285.27,125.44s8.34,56.13,12.91,77.17c5,23,23.9,99.76,23.9,99.76h13.46s-12.46-74.87-15.32-97.71c-3.1-24.75-9.59-79.27-9.59-79.27Z"/><path class="cls-4" d="M290.54,145.44c9.64,1.89,8.62,37.84,7.46,56.32-2.78-13.07-6.85-38.22-9.63-56.07A3.25,3.25,0,0,1,290.54,145.44Z"/><path class="cls-9" d="M271.33,125.44s-1,54.92-.21,77.32c.83,23.3,9,99.6,9,99.6h12.44s.46-74.94,1-97.82c.6-24.95,3.61-79.11,3.61-79.11Z"/><path class="cls-12" d="M271.33,125.44s-1,54.92-.21,77.32c.83,23.3,9,99.6,9,99.6h12.44s.46-74.94,1-97.82c.6-24.95,3.61-79.11,3.61-79.11Z"/><path class="cls-8" d="M314.48,118.38l-5.37.92,4.77,8.08s3.74-1.8,4.42-5.29Z"/><path class="cls-13" d="M279,34.26c0,.59-.31,1.07-.7,1.07s-.7-.48-.7-1.07.31-1.07.7-1.07S279,33.66,279,34.26Z"/><path class="cls-14" d="M278.73,35.33a21.56,21.56,0,0,1-2.83,5.07,3.46,3.46,0,0,0,2.83.53Z"/><path class="cls-13" d="M281.09,31a.37.37,0,0,1-.2-.07,2.73,2.73,0,0,0-2.48-.45.35.35,0,0,1-.44-.2h0a.35.35,0,0,1,.18-.45h0a3.38,3.38,0,0,1,3.13.54.32.32,0,0,1,.1.45l0,0A.35.35,0,0,1,281.09,31Z"/><path class="cls-8" d="M298.12,41.08c-1.06,5.39-2.11,15.23,1.65,18.81,0,0-1.47,5.45-11.46,5.45-11,0-5.24-5.45-5.24-5.45,6-1.42,5.84-5.88,4.79-10Z"/><path class="cls-9" d="M301.21,61.77c.79-1.72,1.65-3.7-.14-4.33-2-.67-12.77-1.36-16.49-.1a3.85,3.85,0,0,0-2.68,4.74v0Z"/><path class="cls-9" d="M324.34,312.66a2.33,2.33,0,0,1-1.76-.49.69.69,0,0,1,0-.82.8.8,0,0,1,.54-.41c1.08-.24,3.1,1.14,3.19,1.2a.18.18,0,0,1,.07.18.17.17,0,0,1-.13.13A10.25,10.25,0,0,1,324.34,312.66Zm-.91-1.4h-.22a.43.43,0,0,0-.32.24c-.16.28-.06.39,0,.44.31.42,1.81.42,2.91.23a5.6,5.6,0,0,0-2.37-.89Z"/><path class="cls-9" d="M326.22,312.48h-.08c-.76-.42-2.23-2-2.08-2.84a.56.56,0,0,1,.56-.46,1,1,0,0,1,.74.22c.85.7,1,2.82,1,2.91a.16.16,0,0,1-.08.16Zm-1.48-3h-.08c-.23,0-.25.14-.26.18-.09.48.85,1.7,1.6,2.26a4.16,4.16,0,0,0-.86-2.29.58.58,0,0,0-.4-.13Z"/><path class="cls-9" d="M280.23,312.66c-.94,0-1.85-.13-2.16-.55a.66.66,0,0,1,0-.76.84.84,0,0,1,.55-.41c1.21-.33,3.79,1.13,3.9,1.19a.17.17,0,0,1-.06.32A13.91,13.91,0,0,1,280.23,312.66Zm-1.17-1.43h-.33a.53.53,0,0,0-.34.24c-.12.22-.08.32,0,.38.34.46,2.19.49,3.57.3a7.77,7.77,0,0,0-2.9-.89Z"/><path class="cls-9" d="M282.45,312.48h-.07c-.89-.4-2.64-2-2.51-2.81,0-.2.17-.44.65-.49a1.19,1.19,0,0,1,1,.3c.94.76,1.13,2.74,1.14,2.83a.17.17,0,0,1-.07.16A.22.22,0,0,1,282.45,312.48Zm-1.79-3h-.11c-.31,0-.33.16-.34.2-.08.5,1.12,1.75,2,2.29a4,4,0,0,0-1-2.26.81.81,0,0,0-.55-.21Z"/><path class="cls-13" d="M326.77,311.45H335a.65.65,0,0,1,.63.51l1.45,6.53a1.07,1.07,0,0,1-.84,1.27l-.24,0c-2.88-.05-4.28-.22-7.91-.22-2.23,0-6.83.24-9.92.24s-3.48-3-2.22-3.33c5.66-1.24,7.79-3,9.61-4.57A1.69,1.69,0,0,1,326.77,311.45Z"/><path class="cls-13" d="M283.23,311.45h8a.65.65,0,0,1,.63.51l1.45,6.53a1.07,1.07,0,0,1-.81,1.27l-.25,0c-2.89-.05-7.07-.22-10.71-.22-4.25,0-7.93.24-12.92.24-3,0-3.85-3-2.59-3.33,5.75-1.26,10.44-1.4,15.41-4.45A3.29,3.29,0,0,1,283.23,311.45Z"/><path class="cls-8" d="M268.16,80.34c-.89,5.11-2,10-3.31,15a136.13,136.13,0,0,1-4.77,14.74l-.75,1.83-.2.46-.13.31-.21.45a10.66,10.66,0,0,1-1,1.53,13.31,13.31,0,0,1-4.34,3.62,30.2,30.2,0,0,1-8.19,2.91,65,65,0,0,1-15.68,1.34l-.47-5.49a115,115,0,0,0,13.73-4.07,25.61,25.61,0,0,0,5.61-2.81,3.89,3.89,0,0,0,1.25-1.27l0-.06h0l0-.1.14-.43.54-1.67c1.39-4.54,2.6-9.24,3.68-14s2.14-9.57,3.1-14.27Z"/><path class="cls-15" d="M276.13,77.74a34.84,34.84,0,0,1-7.76,16.82c-.16-3.53-.22-6.68-.21-9.51Z"/><path class="cls-8" d="M298.75,33c-.44,7.28-.33,11.56-4,15.3-5.53,5.62-14.51,2.28-16.25-5-1.56-6.54-.57-17.34,6.56-20.24A9.94,9.94,0,0,1,298.75,33Z"/><path class="cls-13" d="M284.61,28.16c.06,8.56,2.84,19.06,11.12,18.33C301.23,46,305.41,36,306,31.73c.87-6.5,1-7.74-2.66-8.49,1.6-.87,2.18-5-1.56-6-5.2-1.37-15-2.71-11.92-5.88-6.14,1.11-7.68,3.57-6.56,6.56-3.59-.28-5.8-2.16-5.69-5C271.64,15.33,267.78,29,284.61,28.16Z"/><path class="cls-8" d="M288.89,35.12a8.27,8.27,0,0,1-2.78,4.5c-1.85,1.5-3.33.16-3.29-2,0-1.95,1.06-5.08,3.14-5.74S289.4,33,288.89,35.12Z"/><path class="cls-13" d="M308.89,24.73a7,7,0,0,0-6.63-.48S306.42,18.66,308.89,24.73Z"/><path class="cls-9" d="M319.89,297.41c-.06,0,1.39,5.17,1.39,5.17h15.14l-.28-4.61Z"/><path class="cls-9" d="M277.7,297.41c-.06,0,.7,5.17.7,5.17h15.14L294,298Z"/><path class="cls-9" d="M282.68,293.42a.11.11,0,0,1-.12-.1c-2.2-21.12-7.37-72.22-8-90.56-.67-18.7-.06-60.69.14-73.11,0-.07.06-.11.13-.12a.14.14,0,0,1,.12.12c-.2,12.42-.81,54.41-.14,73.1.65,18.33,5.82,69.41,8,90.53a.13.13,0,0,1-.12.14Z"/><path class="cls-16" d="M282.68,293.42a.11.11,0,0,1-.12-.1c-2.2-21.12-7.37-72.22-8-90.56-.67-18.7-.06-60.69.14-73.11,0-.07.06-.11.13-.12a.14.14,0,0,1,.12.12c-.2,12.42-.81,54.41-.14,73.1.65,18.33,5.82,69.41,8,90.53a.13.13,0,0,1-.12.14Z"/><path class="cls-9" d="M279.52,67.89c1,7-12.74,24.72-12.74,24.72L253,83.14s3.82-9.79,10.25-16.22C270.6,59.66,278.46,60.32,279.52,67.89Z"/><path class="cls-5" d="M279.52,67.89c1,7-12.74,24.72-12.74,24.72L253,83.14s3.82-9.79,10.25-16.22C270.6,59.66,278.46,60.32,279.52,67.89Z"/><path class="cls-9" d="M271.77,61.94s-7.82,8.83-.44,63.5h39.3c.27-6-3.52-35.46,2.29-63.88a102.1,102.1,0,0,0-13.15-1.67,145.38,145.38,0,0,0-16.7,0A73.58,73.58,0,0,0,271.77,61.94Z"/><path class="cls-5" d="M271.77,61.94s-7.82,8.83-.44,63.5h39.3c.27-6-3.52-35.46,2.29-63.88a102.1,102.1,0,0,0-13.15-1.67,145.38,145.38,0,0,0-16.7,0A73.58,73.58,0,0,0,271.77,61.94Z"/></g><circle class="cls-9" cx="119.17" cy="70.09" r="20.23"/><path class="cls-9" d="M117.09,96.32A26.21,26.21,0,0,1,94.09,78l.75-.24a25.41,25.41,0,0,0,22.32,17.81Z"/><path class="cls-9" d="M94.73,62.8l-.79-.22a26.31,26.31,0,0,1,32.74-17.65c.34.1.67.2,1,.32l-.25.75A25.52,25.52,0,0,0,95,61.87c-.11.32-.21.64-.31,1Z"/><path class="cls-9" d="M143.53,62.46a25.4,25.4,0,0,0-11-14.12l.41-.68a26.27,26.27,0,0,1,11.36,14.57Z"/><circle class="cls-17" cx="117.69" cy="160.42" r="20.23"/><circle class="cls-17" cx="117.69" cy="244.11" r="20.23" transform="translate(-146.42 304.84) rotate(-77.21)"/><circle class="cls-17" cx="50.5" cy="70.09" r="20.23"/><circle class="cls-17" cx="50.5" cy="160.42" r="20.23"/><circle class="cls-17" cx="50.5" cy="242.35" r="20.23" transform="translate(-196.24 262.35) rotate(-82.86)"/><g id="freepik--Hand--inject-209"><path class="cls-8" d="M231.82,122.13l-6.67-4-3.59,8.67s5.34,2.92,10,.36Z"/><polygon class="cls-8" points="217.19 117.17 216.87 125.32 221.56 126.84 225.15 118.17 217.19 117.17"/><path class="cls-9" d="M146.5,136.93a9.68,9.68,0,0,1,10.23-9.1,9.39,9.39,0,0,1,1.48.2l-6.61-1.43a9.89,9.89,0,0,1-7.85-10.89,9.69,9.69,0,0,1,11-8.18c.2,0,.41.06.61.11l-6.61-1.42a9.9,9.9,0,0,1-7.85-10.91,9.69,9.69,0,0,1,11-8.21c.25,0,.5.08.74.13L121.2,80.37a9.85,9.85,0,0,1-7.93-10,9.71,9.71,0,0,1,10.26-9.11,10.25,10.25,0,0,1,1.46.2l66.15,14.44L178.53,53.11A10.31,10.31,0,0,1,195.84,42l32.47,44.12a19.29,19.29,0,0,0,11.4,7.4l3.78.82a4.52,4.52,0,0,1,3.45,5.36v0l-11.05,50.55a4.52,4.52,0,0,1-5.38,3.45l-9.28-2a19.78,19.78,0,0,0-10.54.66,48,48,0,0,1-25.48,1.37L154.33,147A9.86,9.86,0,0,1,146.5,136.93Z"/><path class="cls-9" d="M233.09,155.08a6,6,0,0,1-2.86.07l-9.28-2a18.57,18.57,0,0,0-9.75.59,49.4,49.4,0,0,1-26.27,1.42l-30.87-6.73A11.39,11.39,0,0,1,145,136.8a11.11,11.11,0,0,1,4.4-8.25,10.07,10.07,0,0,1,1.1-.74,11.36,11.36,0,0,1-8.21-12.37,11,11,0,0,1,4.69-7.58c.24-.15.48-.31.72-.45A11.36,11.36,0,0,1,139.5,95a10.94,10.94,0,0,1,4.7-7.57,7.65,7.65,0,0,1,.67-.43l-24-5.24a11.4,11.4,0,0,1-9.05-11.61,11.21,11.21,0,0,1,11.85-10.51,11.71,11.71,0,0,1,1.68.23l63,13.77-11-19.87a11.8,11.8,0,0,1,19.84-12.68l32.46,44.12a17.86,17.86,0,0,0,10.53,6.83l3.77.82a6,6,0,0,1,4.59,7.14h0l-11.06,50.57A6,6,0,0,1,233.09,155.08Zm-21.59-4.56a21.14,21.14,0,0,1,10.09-.32l9.28,2a3,3,0,0,0,3.59-2.27v0l11.06-50.56a3,3,0,0,0-2.29-3.58h0L239.44,95a20.69,20.69,0,0,1-12.25-8L194.71,42.87a8.8,8.8,0,0,0-14.79,9.48l12.63,22.77a1.5,1.5,0,0,1-1.63,2.19L124.77,62.87a8.17,8.17,0,0,0-6.66,1.48,8,8,0,0,0-3.23,6.07A8.38,8.38,0,0,0,121.59,79L153,85.81a1.5,1.5,0,0,1,1.15,1.78,1.51,1.51,0,0,1-1.79,1.15,8.2,8.2,0,0,0-9.83,6.81,8.39,8.39,0,0,0,6.67,9.23l6.61,1.43h0a1.5,1.5,0,0,1-.64,2.92h0a8.2,8.2,0,0,0-6.38,1.28,8.06,8.06,0,0,0-3.44,5.54,8.39,8.39,0,0,0,6.67,9.22l6.61,1.43h0a1.5,1.5,0,0,1-.64,2.93h0a8.2,8.2,0,0,0-6.67,1.49,8,8,0,0,0-3.21,6.06h0a8.36,8.36,0,0,0,6.71,8.53l30.87,6.74a46.64,46.64,0,0,0,24.57-1.4c.42-.11.82-.3,1.23-.41Z"/><path class="cls-9" d="M166.86,131.27a1.35,1.35,0,0,1-.72,0l-8.2-1.81a1.5,1.5,0,0,1,.64-2.93l8.24,1.8a1.5,1.5,0,0,1,.08,2.91Z"/><path class="cls-9" d="M164.06,110.87a1.46,1.46,0,0,1-.72,0l-8.24-1.8a1.5,1.5,0,0,1,.44-3l.21,0L164,108a1.5,1.5,0,0,1,.08,2.91Z"/><path class="cls-9" d="M161.25,90.48a1.55,1.55,0,0,1-.71,0l-8.23-1.8a1.5,1.5,0,0,1,.63-2.93l8.24,1.8a1.5,1.5,0,0,1,.07,2.92Z"/><path class="cls-16" d="M233.09,155.08a6,6,0,0,1-2.86.07l-9.28-2a18.57,18.57,0,0,0-9.75.59,49.4,49.4,0,0,1-26.27,1.42l-30.87-6.73A11.39,11.39,0,0,1,145,136.8a11.11,11.11,0,0,1,4.4-8.25,10.07,10.07,0,0,1,1.1-.74,11.36,11.36,0,0,1-8.21-12.37,11,11,0,0,1,4.69-7.58c.24-.15.48-.31.72-.45A11.36,11.36,0,0,1,139.5,95a10.94,10.94,0,0,1,4.7-7.57,7.65,7.65,0,0,1,.67-.43l-24-5.24a11.4,11.4,0,0,1-9.05-11.61,11.21,11.21,0,0,1,11.85-10.51,11.71,11.71,0,0,1,1.68.23l63,13.77-11-19.87a11.8,11.8,0,0,1,19.84-12.68l32.46,44.12a17.86,17.86,0,0,0,10.53,6.83l3.77.82a6,6,0,0,1,4.59,7.14h0l-11.06,50.57A6,6,0,0,1,233.09,155.08Zm-21.59-4.56a21.14,21.14,0,0,1,10.09-.32l9.28,2a3,3,0,0,0,3.59-2.27v0l11.06-50.56a3,3,0,0,0-2.29-3.58h0L239.44,95a20.69,20.69,0,0,1-12.25-8L194.71,42.87a8.8,8.8,0,0,0-14.79,9.48l12.63,22.77a1.5,1.5,0,0,1-1.63,2.19L124.77,62.87a8.17,8.17,0,0,0-6.66,1.48,8,8,0,0,0-3.23,6.07A8.38,8.38,0,0,0,121.59,79L153,85.81a1.5,1.5,0,0,1,1.15,1.78,1.51,1.51,0,0,1-1.79,1.15,8.2,8.2,0,0,0-9.83,6.81,8.39,8.39,0,0,0,6.67,9.23l6.61,1.43h0a1.5,1.5,0,0,1-.64,2.92h0a8.2,8.2,0,0,0-6.38,1.28,8.06,8.06,0,0,0-3.44,5.54,8.39,8.39,0,0,0,6.67,9.22l6.61,1.43h0a1.5,1.5,0,0,1-.64,2.93h0a8.2,8.2,0,0,0-6.67,1.49,8,8,0,0,0-3.21,6.06h0a8.36,8.36,0,0,0,6.71,8.53l30.87,6.74a46.64,46.64,0,0,0,24.57-1.4c.42-.11.82-.3,1.23-.41Z"/></g></g></g></svg>