<svg xmlns="http://www.w3.org/2000/svg" viewBox="0 0 387.78 350.73"><defs><style>.cls-1{fill:#ebebeb;}.cls-2{fill:#f0f0f0;}.cls-3{fill:#f5f5f5;}.cls-10,.cls-11,.cls-4{fill:#fafafa;}.cls-5,.cls-6{fill:#e6e6e6;}.cls-11,.cls-5{opacity:0.7;}.cls-10,.cls-11,.cls-15,.cls-16,.cls-5,.cls-9{isolation:isolate;}.cls-7,.cls-9{fill:#fff;}.cls-8{fill:#6c48ef;}.cls-9{opacity:0.8;}.cls-10,.cls-16{opacity:0.3;}.cls-12{fill:#b55b52;}.cls-13{fill:#263238;}.cls-14{fill:#a02724;}.cls-15{opacity:0.2;}</style></defs><title>walk2Recurso 1</title><g id="Capa_2" data-name="Capa 2"><g id="Capa_1-2" data-name="Capa 1"><g id="freepik--background-complete--inject-196"><rect class="cls-1" x="115.03" y="312.38" width="84.97" height="0.25"/><rect class="cls-1" x="335.36" y="322.7" width="11.97" height="0.25"/><rect class="cls-1" x="291.78" y="318.48" width="23" height="0.25"/><rect class="cls-1" x="231.78" y="318.48" width="48.44" height="0.25"/><rect class="cls-2" x="18.92" y="187.05" width="15.4" height="118.52"/><rect class="cls-3" x="34.32" y="187.05" width="134.79" height="118.52"/><rect class="cls-4" x="51.99" y="231.78" width="118.34" height="63.39"/><rect class="cls-4" x="51.99" y="204.18" width="118.34" height="20.87"/><rect class="cls-5" x="50.93" y="231.78" width="1.06" height="63.39"/><rect class="cls-5" x="50.93" y="204.18" width="1.06" height="20.87"/><rect class="cls-5" x="18.91" y="192.05" width="150.53" height="2.68"/><rect class="cls-2" x="17.12" y="185.43" width="17.2" height="7.75"/><rect class="cls-3" x="34.32" y="185.43" width="136.59" height="7.75"/><path class="cls-6" d="M74.74,162.67a8.11,8.11,0,0,1-1.45-4.16,13.14,13.14,0,0,1,.39-4.5,21,21,0,0,1,4.1-7.91,38,38,0,0,1,3-3.21c.56-.47,1.1-.95,1.67-1.41a20.09,20.09,0,0,1,1.72-1.32,40.53,40.53,0,0,1,3.66-2.27c1.3-.64,2.58-1.27,3.94-1.78-1,1.12-2,2.1-3,3.09s-2,2-3,3-1.88,2-2.84,3c-.47.49-.89,1-1.33,1.53a15.9,15.9,0,0,0-1.3,1.53,30.29,30.29,0,0,0-4.23,6.66,16.87,16.87,0,0,0-1.23,3.65A11.31,11.31,0,0,0,74.74,162.67Z"/><path class="cls-6" d="M51.37,158.48a10.94,10.94,0,0,0,.65-3.71,12.76,12.76,0,0,0-.13-1.75,13.34,13.34,0,0,0-.47-1.64,15.46,15.46,0,0,0-4-5.56c-.42-.42-.92-.78-1.37-1.18a13.09,13.09,0,0,0-1.43-1.15c-1-.7-1.95-1.53-3-2.18-.52-.35-1-.7-1.57-1.07s-1-.75-1.6-1.08c-1.11-.7-2.19-1.47-3.23-2.28a37.11,37.11,0,0,1,3.91.8,12.7,12.7,0,0,1,1.9.6c.62.24,1.24.48,1.86.74l.93.39c.3.14.59.32.89.48.59.32,1.17.67,1.76,1a13,13,0,0,1,1.68,1.18c.53.44,1.09.83,1.59,1.32A13.44,13.44,0,0,1,54,150.75a5,5,0,0,1,.11,1.09v1.1a8.9,8.9,0,0,1-.44,2.11A7.61,7.61,0,0,1,51.37,158.48Z"/><path class="cls-6" d="M52.44,158.48a23.16,23.16,0,0,0,.19-8,21.65,21.65,0,0,0-2.53-7.19l-1-1.65c-.37-.53-.79-1-1.16-1.56l-.58-.8-.67-.73c-.44-.49-.88-1-1.31-1.51-.94-1-1.93-1.88-2.89-2.88s-2.07-1.84-3.06-2.9a41.38,41.38,0,0,1,4,1.56A39.5,39.5,0,0,1,47.11,135c.56.46,1.13.93,1.68,1.41l.83.72.74.83c.48.56,1,1.12,1.43,1.71l1.2,1.9a17,17,0,0,1,2.24,8.67A13.56,13.56,0,0,1,52.44,158.48Z"/><path class="cls-6" d="M73.46,160a39.09,39.09,0,0,1-5-8.11,53.58,53.58,0,0,1-3.29-9,43.75,43.75,0,0,1-1.38-9.52,26.89,26.89,0,0,1,1.45-9.5c.28,3.2.63,6.23,1.15,9.24s1.25,6,2,9S70,148,70.89,151,72.64,156.87,73.46,160Z"/><path class="cls-6" d="M72.42,159.46a45.81,45.81,0,0,1-6.33-7.57,61.72,61.72,0,0,1-4.87-8.6A50.85,50.85,0,0,1,58,133.91a30.32,30.32,0,0,1-.72-9.91c1,3.17,2,6.17,3.22,9.14s2.48,5.85,3.79,8.76,2.72,5.78,4.11,8.69S71.13,156.41,72.42,159.46Z"/><path class="cls-6" d="M76.49,163.27a45.86,45.86,0,0,1-7.87-6A62.12,62.12,0,0,1,62,150a51.68,51.68,0,0,1-5.29-8.41,30.79,30.79,0,0,1-2.91-9.5c1.69,2.86,3.37,5.55,5.18,8.18s3.72,5.16,5.65,7.7,4,5,5.94,7.55S74.55,160.59,76.49,163.27Z"/><path class="cls-6" d="M70.37,158.91a34.94,34.94,0,0,1-7.56-5.12,46.49,46.49,0,0,1-6.26-6.67,39.66,39.66,0,0,1-4.71-7.9,26.39,26.39,0,0,1-2.24-8.9c1.53,2.67,2.93,5.22,4.55,7.66s3.27,4.81,5,7.12,3.6,4.6,5.48,6.87S68.47,156.52,70.37,158.91Z"/><path class="cls-6" d="M75.26,161.7a10,10,0,0,1-4.12-6.87,14.43,14.43,0,0,1,1.3-8.16l.42-.94.51-.88,1.07-1.73q.61-.8,1.26-1.56A15.59,15.59,0,0,1,77,140.08a33.33,33.33,0,0,1,3-2.57,33.84,33.84,0,0,1,3.34-2.08,38.58,38.58,0,0,1-2.17,3.22c-.74,1-1.4,2.1-2.14,3.09s-1.29,2.09-2,3.1l-.83,1.58-.44.78-.33.81a17.55,17.55,0,0,0-1.75,6.66A14.52,14.52,0,0,0,75.26,161.7Z"/><path class="cls-6" d="M73.41,158.51a16.12,16.12,0,0,1-4.24-7.12,15.74,15.74,0,0,1-.12-8.61,14.7,14.7,0,0,1,1.75-4,15.89,15.89,0,0,1,2.74-3.32,17.73,17.73,0,0,1,7.17-4.12,54.45,54.45,0,0,0-5.22,5.83,20.16,20.16,0,0,0-1.94,3.13,16.22,16.22,0,0,0-1.29,3.35,19.31,19.31,0,0,0-.53,7.22A37,37,0,0,0,73.41,158.51Z"/><polygon class="cls-6" points="68.52 156.14 52.87 141.12 53.5 155.85 68.52 156.14"/><polygon class="cls-3" points="85.62 154.54 44.05 154.54 49.49 185.43 80.18 185.43 85.62 154.54"/><polygon class="cls-1" points="59.65 154.54 44.05 154.54 49.49 185.43 57.69 185.43 59.65 154.54"/><rect class="cls-2" x="44.83" width="83.91" height="105.48"/><rect class="cls-3" x="48.05" width="99.22" height="105.48"/><rect class="cls-7" x="56.36" y="8.3" width="82.6" height="88.86"/><polygon class="cls-1" points="379.33 305.57 251.68 305.57 240.35 94.52 368 94.52 379.33 305.57"/><polygon class="cls-3" points="383.23 305.57 255.58 305.57 244.25 94.52 371.9 94.52 383.23 305.57"/><polygon class="cls-7" points="319.21 283.8 307.81 283.8 308.27 116.29 319.67 116.29 319.21 283.8"/><polygon class="cls-7" points="349.36 283.8 337.96 283.8 338.43 116.29 349.82 116.29 349.36 283.8"/><polygon class="cls-7" points="289.05 283.8 277.65 283.8 278.12 116.29 289.52 116.29 289.05 283.8"/></g><g id="freepik--Shadow--inject-196"><ellipse id="freepik--path--inject-196" class="cls-3" cx="193.89" cy="339.41" rx="193.89" ry="11.32"/></g><g id="freepik--Screen--inject-196"><rect class="cls-8" x="318.73" y="228.56" width="23.58" height="1" transform="translate(83.69 546.54) rotate(-86.86)"/><rect class="cls-8" x="325.86" y="202.89" width="12.15" height="1" transform="translate(110.67 523.68) rotate(-86.86)"/><path class="cls-8" d="M310.69,285.69H193.47a12.87,12.87,0,0,1-13-12.71q0-.5,0-1L194,25.87a14.7,14.7,0,0,1,14.5-13.7H325.7a12.89,12.89,0,0,1,13,12.78c0,.31,0,.61,0,.92L325.14,272A14.69,14.69,0,0,1,310.69,285.69Z"/><path class="cls-9" d="M303.6,285.69H193.47a12.87,12.87,0,0,1-13-12.71q0-.5,0-1L194,25.87a14.7,14.7,0,0,1,14.5-13.7H318.61a12.87,12.87,0,0,1,13,12.76c0,.32,0,.63,0,.94L318.06,272A14.71,14.71,0,0,1,303.6,285.69Z"/><path class="cls-7" d="M249,56.79H217.39a5.43,5.43,0,0,1-5.47-5.39c0-.13,0-.27,0-.4h0a6.2,6.2,0,0,1,6.1-5.78h31.63a5.42,5.42,0,0,1,5.47,5.37c0,.14,0,.27,0,.41h0A6.21,6.21,0,0,1,249,56.79Z"/><path class="cls-8" d="M255.12,51a11.11,11.11,0,0,1-11,10.41,9.75,9.75,0,0,1-9.86-9.64c0-.25,0-.51,0-.77a11.11,11.11,0,0,1,11-10.41,9.75,9.75,0,0,1,9.86,9.64C255.14,50.48,255.14,50.74,255.12,51Z"/><path class="cls-7" d="M247,93.8H215.36a5.43,5.43,0,0,1-5.47-5.39c0-.13,0-.27,0-.4h0a6.2,6.2,0,0,1,6.1-5.78h31.63a5.42,5.42,0,0,1,5.47,5.37c0,.14,0,.27,0,.41h0A6.21,6.21,0,0,1,247,93.8Z"/><ellipse class="cls-8" cx="228.72" cy="88.03" rx="10.7" ry="10.13" transform="translate(3.39 184.41) rotate(-44.21)"/><ellipse class="cls-10" cx="228.72" cy="88.03" rx="10.7" ry="10.13" transform="translate(3.39 184.41) rotate(-44.21)"/><path class="cls-7" d="M211.3,167.82h31.59A6.21,6.21,0,0,0,249,162h0a5.42,5.42,0,0,0-5.05-5.77h-32a6.21,6.21,0,0,0-6.11,5.78h0a5.44,5.44,0,0,0,5.08,5.78Z"/><ellipse class="cls-8" cx="216.25" cy="162.04" rx="10.7" ry="10.13" transform="translate(-51.74 196.68) rotate(-44.21)"/><ellipse class="cls-11" cx="216.25" cy="162.04" rx="10.7" ry="10.13" transform="translate(-51.74 196.68) rotate(-44.21)"/><path class="cls-7" d="M240.89,204.83H209.27a5.44,5.44,0,0,1-5.48-5.4c0-.13,0-.26,0-.39h0a6.21,6.21,0,0,1,6.11-5.78h31.62a5.42,5.42,0,0,1,5.48,5.36c0,.14,0,.28,0,.42h0A6.21,6.21,0,0,1,240.89,204.83Z"/><path class="cls-8" d="M247,199a11.11,11.11,0,0,1-11,10.41,9.76,9.76,0,0,1-9.87-9.65c0-.25,0-.51,0-.76a11.14,11.14,0,0,1,11-10.41,9.75,9.75,0,0,1,9.87,9.63C247,198.52,247,198.78,247,199Z"/><path class="cls-7" d="M213.33,130.81H245a6.21,6.21,0,0,0,6.1-5.79h0a5.42,5.42,0,0,0-5.05-5.77H214a6.2,6.2,0,0,0-6.1,5.78h0a5.44,5.44,0,0,0,5.06,5.78Z"/><path class="cls-8" d="M207.89,125A9.76,9.76,0,0,0,217,135.41c.25,0,.51,0,.77,0a11.11,11.11,0,0,0,11-10.41,9.76,9.76,0,0,0-9.07-10.39c-.25,0-.51,0-.77,0A11.11,11.11,0,0,0,207.89,125Z"/><path class="cls-11" d="M207.89,125A9.76,9.76,0,0,0,217,135.41c.25,0,.51,0,.77,0a11.11,11.11,0,0,0,11-10.41,9.76,9.76,0,0,0-9.07-10.39c-.25,0-.51,0-.77,0A11.11,11.11,0,0,0,207.89,125Z"/><path class="cls-7" d="M318.3,49.27H271.42a2.18,2.18,0,0,1-2.18-2.18V47h0a2.48,2.48,0,0,1,2.44-2.31h46.88a2.16,2.16,0,0,1,2.18,2.16V47h0A2.48,2.48,0,0,1,318.3,49.27Z"/><path class="cls-7" d="M302.68,57.37H271a2.17,2.17,0,0,1-2.19-2.17v-.15h0a2.48,2.48,0,0,1,2.44-2.31h31.71a2.17,2.17,0,0,1,2.19,2.17v.14h0A2.49,2.49,0,0,1,302.68,57.37Z"/><path class="cls-7" d="M304.26,197.31h-41a2.18,2.18,0,0,1-2.18-2.18V195h0a2.47,2.47,0,0,1,2.44-2.31h41a2.17,2.17,0,0,1,2.19,2.17V195h0A2.49,2.49,0,0,1,304.26,197.31Z"/><path class="cls-7" d="M283.1,205.4H262.89a2.17,2.17,0,0,1-2.19-2.17v-.14h0a2.48,2.48,0,0,1,2.44-2.31h20.24a2.17,2.17,0,0,1,2.19,2.17v.14h0A2.48,2.48,0,0,1,283.1,205.4Z"/><path class="cls-7" d="M316.08,89.75H269.2a2.48,2.48,0,0,0-2.44,2.31h0a2.19,2.19,0,0,0,2.05,2.31h47a2.48,2.48,0,0,0,2.44-2.31h0a2.19,2.19,0,0,0-2-2.31Z"/><path class="cls-7" d="M301.35,81.65h-31.7A2.48,2.48,0,0,0,267.21,84h0a2.18,2.18,0,0,0,2,2.32H301.1A2.49,2.49,0,0,0,303.54,84h0a2.17,2.17,0,0,0-2-2.31Z"/><path class="cls-7" d="M291.41,123.29h-24a2.18,2.18,0,0,1-2.18-2.18V121h0a2.47,2.47,0,0,1,2.44-2.31h24a2.18,2.18,0,0,1,2.22,2.14V121h0A2.49,2.49,0,0,1,291.41,123.29Z"/><path class="cls-7" d="M314.24,123.29H300.08a2.17,2.17,0,0,1-2.19-2.17V121h0a2.48,2.48,0,0,1,2.44-2.31H314.5a2.16,2.16,0,0,1,2.18,2.16V121h0A2.49,2.49,0,0,1,314.24,123.29Z"/><path class="cls-7" d="M298.62,131.38H266.89a2.17,2.17,0,0,1-2.19-2.17v-.14h0a2.48,2.48,0,0,1,2.44-2.31h31.75a2.17,2.17,0,0,1,2.19,2.17v.14h0A2.48,2.48,0,0,1,298.62,131.38Z"/><path class="cls-7" d="M258.89,237.87h-54a3,3,0,0,1-3.07-2.93c0-.1,0-.21,0-.31h0a3.48,3.48,0,0,1,3.42-3.24h54a3,3,0,0,1,3.07,2.93c0,.1,0,.21,0,.31h0A3.47,3.47,0,0,1,258.89,237.87Z"/><path class="cls-7" d="M307,237.87H273.89a3,3,0,0,1-3.07-2.93c0-.1,0-.21,0-.31h0a3.48,3.48,0,0,1,3.42-3.24h33.14a3,3,0,0,1,3.07,2.93c0,.1,0,.21,0,.31h0A3.48,3.48,0,0,1,307,237.87Z"/><path class="cls-7" d="M245.39,249.17h-41.1a3,3,0,0,1-3.07-2.93c0-.1,0-.21,0-.31h0a3.47,3.47,0,0,1,3.42-3.24h41.09a3,3,0,0,1,3.07,2.93c0,.1,0,.21,0,.31h0A3.47,3.47,0,0,1,245.39,249.17Z"/><path class="cls-7" d="M290,260.53H203.67a3,3,0,0,1-3.07-2.93c0-.1,0-.21,0-.31h0a3.47,3.47,0,0,1,3.41-3.24h86.35a3,3,0,0,1,3.07,2.93c0,.1,0,.21,0,.31h0A3.47,3.47,0,0,1,290,260.53Z"/><path class="cls-7" d="M279,163.77H265.14a2.48,2.48,0,0,0-2.44,2.31h0a2.19,2.19,0,0,0,2.05,2.31h14a2.48,2.48,0,0,0,2.44-2.31h0a2.19,2.19,0,0,0-2-2.31Z"/><path class="cls-7" d="M303.78,163.77H287.69a2.48,2.48,0,0,0-2.44,2.31h0a2.19,2.19,0,0,0,2.05,2.31h16.23a2.48,2.48,0,0,0,2.44-2.31h0a2.17,2.17,0,0,0-2-2.31Z"/><path class="cls-7" d="M297.29,155.67h-31.7a2.47,2.47,0,0,0-2.44,2.31h0a2.18,2.18,0,0,0,2,2.32H297a2.49,2.49,0,0,0,2.44-2.32h0a2.19,2.19,0,0,0-2.05-2.31Z"/></g><g id="freepik--Character--inject-196"><path class="cls-12" d="M121.89,96.3c-3.27,2.71-6.65,5.66-9.76,8.62-1.56,1.49-3.08,3-4.49,4.56a39.32,39.32,0,0,0-3.75,4.69l-.19.28-.09.16a3,3,0,0,0-.21.4c-.14.31-.27.7-.41,1.11a21.74,21.74,0,0,0-.62,2.77,60.47,60.47,0,0,0-.6,6.3c-.21,4.32-.21,8.83-.13,13.24l-4.68.7a87.06,87.06,0,0,1-2.4-13.79,53.49,53.49,0,0,1-.17-7.27,30.14,30.14,0,0,1,.5-3.9,15.69,15.69,0,0,1,.57-2.14c.15-.39.26-.75.46-1.16l.28-.6c.1-.18.17-.29.25-.45a39.67,39.67,0,0,1,4.27-6.25,69.39,69.39,0,0,1,4.77-5.36A105.47,105.47,0,0,1,116,88.8Z"/><path class="cls-8" d="M120.14,84.31c-5.12,3-12.86,10.8-12.86,10.8l9.49,11.39S130.24,98.42,131.88,94C134.62,86.48,125,81.44,120.14,84.31Z"/><path class="cls-12" d="M101.43,136.74l1.16,6.77-6.29-.91s-1.29-4.6,2-6.18Z"/><polygon class="cls-12" points="100.27 147.63 94.61 145.87 96.3 142.6 102.59 143.51 100.27 147.63"/><path class="cls-13" d="M158.21,60.39c0,.69.38,1.25.84,1.26s.81-.55.8-1.23-.38-1.25-.84-1.26S158.2,59.71,158.21,60.39Z"/><path class="cls-13" d="M158.81,59.17l1.67-.45S159.64,60,158.81,59.17Z"/><path class="cls-14" d="M158.8,61.07a19.13,19.13,0,0,0,2.54,4.43,3,3,0,0,1-2.47.42Z"/><path class="cls-13" d="M159.08,55.82a.34.34,0,0,1-.2,0,3.39,3.39,0,0,0-3,.35.39.39,0,0,1-.56-.07h0a.41.41,0,0,1,.08-.57,4.23,4.23,0,0,1,3.72-.47.41.41,0,0,1,.26.51A.44.44,0,0,1,159.08,55.82Z"/><path class="cls-12" d="M137.83,67.73c.46,5.17-1.27,13.64-5.17,16.52,0,0,2.94,5.44,12.36,6.71,10.37,1.39,5.5-4.44,5.5-4.44-5.51-2.1-4.93-6.25-3.53-10Z"/><path class="cls-12" d="M156.24,90.54c4.93,1.34,10.11,2.63,15.19,3.78,2.56.55,5.12,1,7.68,1.55s5.13.9,7.68,1.23l1,.13.66.07H190a26.89,26.89,0,0,0,3.46-.47,71.18,71.18,0,0,0,7.33-1.93c4.93-1.54,9.93-3.4,14.82-5.32l2.22,4.17a105.26,105.26,0,0,1-14.47,7.93,65.24,65.24,0,0,1-8,3,34,34,0,0,1-4.45,1c-.83.11-1.66.18-2.5.21H187l-1-.08a131.25,131.25,0,0,1-16.4-2.18,154,154,0,0,1-16-3.88Z"/><path class="cls-12" d="M214.26,91.27l1.45-4.91,5.33,2s-1.22,7.38-5.79,5.34Z"/><polygon class="cls-12" points="218.8 83.1 224.24 83.71 221.04 88.36 215.71 86.36 218.8 83.1"/><polygon class="cls-12" points="122.53 330.04 131.1 330.67 133.65 310.99 125.08 310.36 122.53 330.04"/><polygon class="cls-12" points="59.33 291.89 65.15 298.35 81.41 287.11 75.59 280.66 59.33 291.89"/><path class="cls-8" d="M69.46,302h-.31c-1-.34-1.75-2.27-2.08-3.39a.2.2,0,0,1,.29-.23c.31.16,3.07,1.66,3.16,2.76a.69.69,0,0,1-.29.62A1.24,1.24,0,0,1,69.46,302Zm-1.85-3.07c.5,1.48,1.11,2.45,1.67,2.63a.72.72,0,0,0,.7-.17.32.32,0,0,0,.14-.27C70.07,300.55,68.7,299.57,67.61,298.94Z"/><path class="cls-8" d="M69.79,299.34a6.19,6.19,0,0,1-2.63-.65.22.22,0,0,1-.1-.18.18.18,0,0,1,.11-.17c.08,0,2.2-1.22,3.37-.82a1.09,1.09,0,0,1,.68.63.69.69,0,0,1-.16.88A2,2,0,0,1,69.79,299.34Zm-2.08-.83c1,.41,2.64.6,3.09.22.07-.07.15-.17,0-.42a.73.73,0,0,0-.43-.41,4.57,4.57,0,0,0-2.66.61Z"/><path class="cls-13" d="M67.76,297.4,63,288.88a.7.7,0,0,0-.85-.32L55,291.28a1.39,1.39,0,0,0-.71,1.83l.09.17c1.73,2.94,2.7,4.27,4.81,8,1.3,2.3,3.3,7.33,4.84,10.64s4.8,2,4.45.5A30.09,30.09,0,0,1,68,298.94,2.3,2.3,0,0,0,67.76,297.4Z"/><path class="cls-8" d="M134.83,331a15.29,15.29,0,0,1-2.7-.3.21.21,0,0,1-.16-.17.2.2,0,0,1,.11-.21c.39-.2,3.87-2,4.9-1.37a.64.64,0,0,1,.33.54,1.16,1.16,0,0,1-.4,1A3.26,3.26,0,0,1,134.83,331Zm-2-.59c1.89.31,3.3.23,3.84-.24a.76.76,0,0,0,.25-.65.25.25,0,0,0-.12-.22c-.59-.31-2.56.43-4,1.11Z"/><path class="cls-8" d="M132.17,330.65a.24.24,0,0,1-.12,0,.18.18,0,0,1-.08-.18c0-.16.41-3.66,2.33-3.66h.17c.55.05.71.33.75.56.16,1-1.92,2.83-3,3.29Zm2.14-3.48c-1.24,0-1.73,2-1.88,2.91,1.07-.64,2.48-2.09,2.39-2.68,0,0,0-.18-.39-.22Z"/><path class="cls-13" d="M131.64,329.45H122a.71.71,0,0,0-.7.59L120,337.66a1.35,1.35,0,0,0,1.16,1.52h.18c3.36-.06,5-.26,9.22-.26,2.6,0,8,.27,11.59.27s3.88-3.55,2.39-3.88c-6.68-1.44-9.28-3.44-11.49-5.34A2.19,2.19,0,0,0,131.64,329.45Z"/><polygon class="cls-15" points="133.65 311 132.23 321.94 123.76 320.52 125.07 310.36 133.65 311"/><polygon class="cls-15" points="75.58 280.66 81.4 287.12 74.68 291.76 68.65 285.45 75.58 280.66"/><path class="cls-8" d="M118.21,135.9l34.68,4.66c13.45-48.69,9.48-50,9.48-50a69.6,69.6,0,0,0-8-3.16l-.47-.15c-2.24-.68-2.71-.77-5.7-1.45-5.13-.91-9.89-1.61-15.77-2.11-.37,0-.75-.07-1.12-.09-1.06-.07-2.11-.12-3.13-.16H122.8a4.81,4.81,0,0,0-4.7,4.92,3.25,3.25,0,0,0,0,.44C121.1,114.37,120.16,122.8,118.21,135.9Z"/><path class="cls-15" d="M153.89,101.57c.24,2.26,5.46,6.39,7.27,5.28.52-2.71.9-5,1.17-6.84C159.71,99.81,154.58,96.92,153.89,101.57Z"/><path class="cls-8" d="M148.26,90.17c-.25-8,19.14.81,23.59,2.8l-5,13.41s-6.49-.22-10.62-2.61A16.74,16.74,0,0,1,148.26,90.17Z"/><path class="cls-12" d="M134.89,58.17c.64,8.46.73,12,5.11,16.45,6.57,6.61,16.92,4.27,18.84-4.14,1.73-7.57.39-20.13-8-23.61a11.35,11.35,0,0,0-16,11.3Z"/><path class="cls-13" d="M135.63,49.24c-8.5-2.13-8.77,5-8.59,8.76S121,63.56,121,68.27c0,6.14,4.63,9.8-6.63,11.66-9.53,1.57-12.47,13.48,1.63,20.45,15.61,7.7,39.16-3.14,36.3-13.45-4.38-15.91,3.49-15.86,2.62-24.76-.65-6.46,5.47-6.78,3.27-12.17C155.26,43,134.89,36.76,135.63,49.24Z"/><path class="cls-13" d="M125.79,61.17c-1.17-6.16-.53-10.24,1.9-12.15,3.13-2.47,7.94-.33,8.14-.24l-.41.91s-4.47-2-7.12.11c-2.11,1.67-2.62,5.43-1.53,11.18Z"/><path class="cls-13" d="M116.18,78.17a19.58,19.58,0,0,1-6.41-1.3l.37-.93c.07,0,6.81,2.68,9.93.09,1.52-1.26,2-3.62,1.29-7l1-.19c.74,3.79.19,6.48-1.63,8A7,7,0,0,1,116.18,78.17Z"/><path class="cls-12" d="M152.58,61.58a7.69,7.69,0,0,0,1.17,4.48C154.91,68,156.48,67.6,157,66s.42-4.17-1.15-5.54S152.74,59.83,152.58,61.58Z"/><path class="cls-13" d="M143.76,139.33S130.28,196.33,124,229c-6.64,34.53-46,62.7-46,62.7l-8.64-8.89s25.34-22.18,31.85-54.42c13.21-65.44,4.27-78.62,17-92.51Z"/><polygon class="cls-8" points="78.72 293 67.93 281.9 70.96 278.64 83.49 289.67 78.72 293"/><path class="cls-15" d="M136.6,151.71c-10.48,9.1-9.35,41.39-8.25,55.94,4.39-20.69,9.68-43.73,12.78-57.06C140,149.77,138.52,150,136.6,151.71Z"/><path class="cls-13" d="M152.41,140.59s6.06,67.63,2.75,93.43c-3.44,26.83-21,85.21-21,85.21l-12.27-1.59s10-57.86,11.83-84.42c1.94-29-6.69-96-6.69-96Z"/><polygon class="cls-8" points="136.84 319.94 119.22 317.66 119.49 312.46 138.61 314.31 136.84 319.94"/><path class="cls-8" d="M117.89,133.81l-1.9,2.87c-.14.23.12.51.52.56l36.38,4.93c.31,0,.59-.08.63-.27l.64-3c.05-.21-.21-.43-.55-.48l-35.15-4.71A.59.59,0,0,0,117.89,133.81Z"/><path class="cls-16" d="M117.89,133.81l-1.9,2.87c-.14.23.12.51.52.56l36.38,4.93c.31,0,.59-.08.63-.27l.64-3c.05-.21-.21-.43-.55-.48l-35.15-4.71A.59.59,0,0,0,117.89,133.81Z"/><path class="cls-13" d="M122.21,138.34l-.94-.12c-.19,0-.32-.14-.29-.26l.86-4c0-.11.2-.18.39-.16l.94.13c.19,0,.32.14.3.25l-.87,4C122.58,138.3,122.4,138.37,122.21,138.34Z"/><path class="cls-13" d="M146,141.59l-.94-.13c-.19,0-.32-.14-.3-.25l.87-4c0-.11.2-.19.39-.16l.94.12c.19,0,.32.14.29.26l-.86,4C146.35,141.54,146.18,141.62,146,141.59Z"/></g></g></g></svg>