<svg xmlns="http://www.w3.org/2000/svg" viewBox="0 0 391.29 358.23"><defs><style>.cls-1{fill:#e6e6e6;}.cls-2{fill:#fafafa;}.cls-3{fill:#f5f5f5;}.cls-21,.cls-4{fill:#fff;}.cls-5{fill:#e0e0e0;}.cls-6{fill:#f4f8ff;}.cls-7{fill:#ebebeb;}.cls-8{fill:#263238;}.cls-9{fill:#e58a7b;}.cls-10,.cls-16,.cls-20,.cls-24,.cls-26{fill:#6c48ef;}.cls-11{opacity:0.2;}.cls-11,.cls-12,.cls-14,.cls-15,.cls-16,.cls-19,.cls-20,.cls-21,.cls-23,.cls-24,.cls-26{isolation:isolate;}.cls-12{opacity:0.4;}.cls-13{fill:#cf6f64;}.cls-14{opacity:0.7;}.cls-15,.cls-26{opacity:0.5;}.cls-16{opacity:0.27;}.cls-17{fill:#df5753;}.cls-18{fill:#26395a;}.cls-19,.cls-24{opacity:0.6;}.cls-20,.cls-25{opacity:0.22;}.cls-21{opacity:0.8;}.cls-22{opacity:0.28;}.cls-23{opacity:0.3;}</style></defs><title>walk3Recurso 1</title><g id="Capa_2" data-name="Capa 2"><g id="Capa_1-2" data-name="Capa 1"><g id="freepik--background-complete--inject-245"><rect class="cls-1" x="319.25" y="328.75" width="8.69" height="0.25"/><rect class="cls-1" x="11.88" y="325.17" width="6.33" height="0.25"/><rect class="cls-2" x="4.89" y="4.35" width="202.25" height="144.13"/><rect class="cls-3" x="6.64" y="4.35" width="204.24" height="144.13"/><rect class="cls-2" x="11.88" y="10.23" width="193.76" height="132.36"/><polygon class="cls-4" points="47.16 142.59 77.9 10.23 118.2 10.23 87.46 142.59 47.16 142.59"/><polygon class="cls-4" points="93.98 142.59 124.73 10.23 142.93 10.23 112.18 142.59 93.98 142.59"/><rect class="cls-2" x="204.97" y="10.23" width="0.67" height="132.36"/><path class="cls-5" d="M1,4.11V61.23H16.07S43.18,43.52,49.39,7.09a6.05,6.05,0,0,0-4.94-7A6.32,6.32,0,0,0,43.39,0H5.07A4.11,4.11,0,0,0,1,4.11Z"/><path class="cls-5" d="M1,166.11V65.84H16.07s30.67,59.05,34.22,100.27Z"/><rect class="cls-3" y="61.23" width="17.14" height="4.61" rx="1.51"/><path class="cls-5" d="M215.18,4.11V61.23H200S172.89,43.52,166.72,7.09a6.09,6.09,0,0,1,6-7.09h38.36A4.13,4.13,0,0,1,215.18,4.11Z"/><path class="cls-5" d="M215.18,166.11V65.84H200s-30.66,59.05-34.22,100.27Z"/><rect class="cls-3" x="198.97" y="61.22" width="17.14" height="4.61" rx="1.51"/><rect class="cls-2" x="177.38" y="184.33" width="33.23" height="128.74"/><polygon class="cls-6" points="201.74 313.07 210.61 313.07 210.61 298.2 192.44 298.2 201.74 313.07"/><rect class="cls-5" x="18.4" y="184.33" width="33.23" height="128.74"/><rect class="cls-2" x="43.89" y="184.33" width="166.72" height="123.62"/><path class="cls-7" d="M94,162.47c0,12,11.56,21.86,25.7,21.86h12.76c14.13,0,25.69-9.84,25.69-21.86Z"/><path class="cls-5" d="M86.58,135h24s-4.17,11-4.17,17.48,18.26,31.85-7.83,31.85S90.75,159,90.75,152.48,86.58,135,86.58,135Z"/><rect class="cls-7" x="50.77" y="191.86" width="152.96" height="31.17"/><polygon class="cls-2" points="52.76 313.07 43.89 313.07 43.89 298.2 62.07 298.2 52.76 313.07"/><path class="cls-2" d="M122.55,207.44a4.7,4.7,0,1,0,4.7-4.7,4.69,4.69,0,0,0-4.7,4.7Z"/><rect class="cls-7" x="50.77" y="230.56" width="152.96" height="31.17"/><path class="cls-2" d="M122.55,246.14a4.7,4.7,0,1,0,4.7-4.7,4.69,4.69,0,0,0-4.7,4.7Z"/><rect class="cls-7" x="50.77" y="269.25" width="152.96" height="31.17"/><circle class="cls-2" cx="127.25" cy="284.84" r="4.7"/><rect class="cls-5" x="241.83" y="2.61" width="74.23" height="52.84"/><rect class="cls-3" x="246.05" y="2.61" width="76.07" height="52.84"/><rect class="cls-4" x="250.9" y="7.46" width="66.37" height="43.14"/><rect class="cls-3" x="262.58" y="20.02" width="43.01" height="18.01"/><rect class="cls-5" x="331.1" y="29.03" width="45.18" height="47.38"/><rect class="cls-3" x="335.33" y="29.03" width="47.03" height="47.38"/><rect class="cls-4" x="340.18" y="33.88" width="37.33" height="37.68"/><path class="cls-3" d="M351.86,52.72h0a6.29,6.29,0,0,1,6.27-6.28h1.42a6.29,6.29,0,0,1,6.27,6.28h0A6.27,6.27,0,0,1,359.55,59h-1.37a6.27,6.27,0,0,1-6.32-6.22Z"/></g><g id="freepik--Shadow--inject-245"><ellipse class="cls-3" cx="196.18" cy="346.91" rx="193.89" ry="11.32"/></g><g id="freepik--Character--inject-245"><path class="cls-8" d="M311.33,92.67c1.4,4.69,8.62,13.47,9.19,19.86s-11.74,16.61-11.74,16.61-9.2-30.76-3.44-34.35S311.33,92.67,311.33,92.67Z"/><path class="cls-9" d="M286.05,125.9c-2.18,1.82-4.32,3.35-6.55,4.92s-4.53,3-6.87,4.34a79.22,79.22,0,0,1-7.25,3.79c-1.26.57-2.51,1.13-3.81,1.62-.64.26-1.29.51-1.95.73l-2,.7a13.16,13.16,0,0,1-5.26.38,29.43,29.43,0,0,1-4.36-.84,58,58,0,0,1-7.81-2.78A104.21,104.21,0,0,1,226,131.21l1.87-3.48c2.36,1,4.78,2,7.18,2.87s4.82,1.79,7.24,2.54a61.42,61.42,0,0,0,7.2,1.88,22.74,22.74,0,0,0,3.39.41,6.93,6.93,0,0,0,2.52-.26,63.38,63.38,0,0,0,6.68-3c1.11-.58,2.21-1.17,3.29-1.81s2.18-1.26,3.25-1.92c2.15-1.33,4.25-2.74,6.33-4.19s4.15-3,6-4.47Z"/><path class="cls-10" d="M291.33,115.25c-2.48-1.94-12.74,4.41-15.85,7.06L277.75,136s14.75-6.18,15.63-10.4C294.31,121.23,293.18,116.73,291.33,115.25Z"/><path class="cls-11" d="M291.33,115.25c-2.48-1.94-12.74,4.41-15.85,7.06L277.75,136s14.75-6.18,15.63-10.4C294.31,121.23,293.18,116.73,291.33,115.25Z"/><path class="cls-10" d="M325.84,156.8l-31.14,6.07c-16.09-43.57-12.59-45-12.59-45a62.06,62.06,0,0,1,7-3.3l.42-.16c2-.73,2.4-.84,5.06-1.62,4.58-1.09,8.85-2,14.14-2.75l1-.14c1-.12,1.91-.22,2.83-.31.62-.07,1.24-.11,1.83-.15l2-.11c3.42-.17,5.87-.12,5.87-.12C321.31,136.42,322.85,144.23,325.84,156.8Z"/><path class="cls-11" d="M325.84,156.8l-31.14,6.07c-16.09-43.57-12.59-45-12.59-45a62.06,62.06,0,0,1,7-3.3l.42-.16c2-.73,2.4-.84,5.06-1.62,4.58-1.09,8.85-2,14.14-2.75l1-.14c1-.12,1.91-.22,2.83-.31.62-.07,1.24-.11,1.83-.15l2-.11c3.42-.17,5.87-.12,5.87-.12C321.31,136.42,322.85,144.23,325.84,156.8Z"/><path class="cls-10" d="M301.45,95.8c-2,3.31,5.25,4.84,9.54,1.45,3.43-2.72,2.62-9-.32-10.46S301.45,95.8,301.45,95.8Z"/><path class="cls-12" d="M301.45,95.8c-2,3.31,5.25,4.84,9.54,1.45,3.43-2.72,2.62-9-.32-10.46S301.45,95.8,301.45,95.8Z"/><polygon class="cls-9" points="331.76 337.14 323.97 337.72 321.12 319.79 328.91 319.21 331.76 337.14"/><polygon class="cls-9" points="386.86 312.08 380.25 316.24 368.48 302.28 375.09 298.11 386.86 312.08"/><polygon class="cls-13" points="321.12 319.79 322.7 329.75 330.38 328.46 328.92 319.22 321.12 319.79"/><polygon class="cls-13" points="375.1 298.12 368.48 302.28 373.36 308.06 380.12 304.07 375.1 298.12"/><path class="cls-10" d="M295.18,162.87s-.11,61.82,4.94,85.1c5.26,24.22,20.73,79.32,20.73,79.32l11.22-1.45s-8.77-55.66-12.51-79.73c-4.07-26.23-1.57-87.68-1.57-87.68Z"/><path class="cls-14" d="M295.18,162.87s-.11,61.82,4.94,85.1c5.26,24.22,20.73,79.32,20.73,79.32l11.22-1.45s-8.77-55.66-12.51-79.73c-4.07-26.23-1.57-87.68-1.57-87.68Z"/><path class="cls-15" d="M317.29,185.83l-5.5-5.48c.21,23.75,1.54,35.48,6.11,48.26C317.18,215.1,317.12,199.12,317.29,185.83Z"/><path class="cls-10" d="M302.92,161.27s16.77,51.09,25.09,80.52c8.78,31,42.44,65.39,42.44,65.39l9.66-5.58s-23-32.6-31.46-61.57c-17.2-58.81-10.13-71.27-22.82-83.23Z"/><path class="cls-14" d="M302.92,161.27s16.77,51.09,25.09,80.52c8.78,31,42.44,65.39,42.44,65.39l9.66-5.58s-23-32.6-31.46-61.57c-17.2-58.81-10.13-71.27-22.82-83.23Z"/><path class="cls-8" d="M289.74,77.76c4.46,1.49,8.51,12.56,8.68,16.92s-12.92,10.37-12.92,10.37-5.77-14-4.16-23C282,78.14,289.74,77.76,289.74,77.76Z"/><path class="cls-9" d="M228.53,128.1l-5.29-5.76-1.73,7.22s3.76,3.32,6.8,2.18Z"/><polygon class="cls-9" points="217.88 120.69 214.18 123.63 221.51 129.56 223.24 122.34 217.88 120.69"/><path class="cls-8" d="M378.18,314.75l6.18-6.23a.63.63,0,0,1,.82-.06l5.63,4.18a1.25,1.25,0,0,1,.21,1.76l-.1.11c-2.2,2.13-3.36,3.05-6.08,5.79-1.67,1.69-3.94,4.32-6.25,6.65s-4.74.16-4-1c3.37-5.27,2.77-7.24,3-9.92A2,2,0,0,1,378.18,314.75Z"/><path class="cls-8" d="M323.45,336.6h8.78a.66.66,0,0,1,.65.54l1.38,6.94a1.17,1.17,0,0,1-.95,1.37l-.22,0c-3.07-.05-4.55-.23-8.41-.23-2.37,0-7.27.24-10.55.24s-3.63-3.24-2.28-3.53c6-1.32,8.35-3.13,10.32-4.87A2,2,0,0,1,323.45,336.6Z"/><path class="cls-16" d="M323.27,125l-4.8,2.86L324,148.67C322.8,142.36,323.34,135.43,323.27,125Z"/><path class="cls-8" d="M296,92.46c3.41,2.85,8.36,7,14.19,2.15,5-4.18,8.5-15.15-.47-15.55C305,78.85,296,92.46,296,92.46Z"/><path class="cls-9" d="M304.23,94.41c0,4.72.73,13.23,4.5,15.65,0,0-.34,4.86-8.8,6.5-9.29,1.81-5.34-3.75-5.34-3.75,4.84-2.2,4-5.94,2.4-9.3Z"/><path class="cls-13" d="M301.28,98.12,297,103.51a16.07,16.07,0,0,1,.92,2.42c1.88-.66,4.13-3.3,3.94-5.37A6.86,6.86,0,0,0,301.28,98.12Z"/><path class="cls-9" d="M304.68,83.57c1,7.69,1.61,10.92-1.47,15.57-4.63,7-14.29,6.55-17.58-.68-3-6.51-4.12-18,2.72-22.45a10.57,10.57,0,0,1,16.33,7.56Z"/><path class="cls-8" d="M291.32,70.1c-5.2,3.69,5.23,4.78,5.24,10.13,0,2.21,3.63,9.22,8.79,8.82l5-8.88C315.61,71.67,303.18,61.67,291.32,70.1Z"/><path class="cls-8" d="M291.32,70.1c-9.15-.48-13.14,6.8-12.09,13.34a59.52,59.52,0,0,1,19.54-1.55C311.31,83.17,291.32,70.1,291.32,70.1Z"/><path class="cls-9" d="M307.18,90.2a5.63,5.63,0,0,1-1.31,4.12c-1.29,1.51-3,.62-3.6-1.17-.51-1.62-.45-4.35,1.29-5.21a2.55,2.55,0,0,1,3.38,1.24A2.58,2.58,0,0,1,307.18,90.2Z"/><path class="cls-8" d="M293.57,87.94c.12.62-.11,1.18-.51,1.26s-.83-.36-.95-1,.11-1.19.51-1.27S293.45,87.32,293.57,87.94Z"/><path class="cls-8" d="M286.58,89.3c.12.62-.11,1.19-.51,1.27s-.83-.36-.95-1,.11-1.19.51-1.26S286.46,88.67,286.58,89.3Z"/><path class="cls-8" d="M285.82,88.32l-1.57-.13S285.24,89.2,285.82,88.32Z"/><path class="cls-17" d="M288.64,90a17.37,17.37,0,0,1-1.44,4.37,2.7,2.7,0,0,0,2.29,0Z"/><path class="cls-8" d="M292.1,96.38a.17.17,0,0,1-.18-.15.18.18,0,0,1,.15-.21h0a5,5,0,0,0,3.62-2.7.18.18,0,1,1,.34.14,5.25,5.25,0,0,1-3.89,2.92Z"/><path class="cls-8" d="M295.18,85.28a.38.38,0,0,1-.25-.09,2.93,2.93,0,0,0-2.56-.76.41.41,0,0,1-.48-.28.4.4,0,0,1,.29-.48,3.72,3.72,0,0,1,3.25.93.37.37,0,0,1,0,.52A.35.35,0,0,1,295.18,85.28Z"/><path class="cls-8" d="M282.71,86.67a.33.33,0,0,1-.14,0,.36.36,0,0,1-.2-.48h0A3.66,3.66,0,0,1,284.9,84a.36.36,0,0,1,.43.28v0a.36.36,0,0,1-.28.43h0a3,3,0,0,0-2,1.79A.38.38,0,0,1,282.71,86.67Z"/><path class="cls-10" d="M375.86,318.38a1.06,1.06,0,0,1-.86-.48.63.63,0,0,1-.11-.62c.35-.94,3.11-1.54,3.42-1.61a.2.2,0,0,1,.19.08.18.18,0,0,1,0,.2c-.54.89-1.6,2.38-2.59,2.43Zm2.09-2.25c-1.09.28-2.53.78-2.71,1.28a.25.25,0,0,0,.06.27.68.68,0,0,0,.6.33C376.43,318,377.18,317.29,378,316.13Z"/><path class="cls-10" d="M377.5,316.13c-1,0-2.25-.25-2.62-.79a.65.65,0,0,1,.07-.81,1,1,0,0,1,.73-.38h.08c1.12,0,2.66,1.51,2.72,1.57a.18.18,0,0,1,0,.18.21.21,0,0,1-.13.13A3.88,3.88,0,0,1,377.5,316.13Zm-1.74-1.61h-.06a.6.6,0,0,0-.46.24c-.14.19-.1.3-.05.37.3.46,1.83.72,2.77.61a4.45,4.45,0,0,0-2.2-1.22Z"/><path class="cls-10" d="M320.58,338a3,3,0,0,1-1.91-.48,1,1,0,0,1-.38-.89.61.61,0,0,1,.28-.5c.92-.54,4.14,1.06,4.5,1.24a.19.19,0,0,1,.1.19.19.19,0,0,1-.14.16A13.53,13.53,0,0,1,320.58,338Zm-1.48-1.62a.67.67,0,0,0-.34.07.19.19,0,0,0-.1.19.69.69,0,0,0,.25.6c.5.43,1.79.5,3.49.22a10.4,10.4,0,0,0-3.3-1.08Z"/><path class="cls-10" d="M323,337.67h-.07c-1-.43-2.93-2.13-2.79-3,0-.2.18-.46.68-.51H321c1.74,0,2.19,3.18,2.21,3.32a.2.2,0,0,1-.07.18A.21.21,0,0,1,323,337.67Zm-2-3.16h-.11c-.32,0-.34.15-.34.19-.08.53,1.24,1.86,2.24,2.45-.2-.78-.71-2.62-1.83-2.62Z"/><path class="cls-8" d="M292.81,87l-1.57-.14S292.23,87.84,292.81,87Z"/><path class="cls-9" d="M299.68,123.21c-16.73,3.73-11.56-6.39-10.56-8.62l.42-.16c2-.73,2.4-.84,5.06-1.62a101.47,101.47,0,0,1,14.14-2.75l1-.14c1-.13,1.91-.23,2.83-.31.62-.07,1.24-.11,1.83-.15l2-.12h0C316.74,110.9,317.57,119.24,299.68,123.21Z"/><path class="cls-18" d="M325.94,154.88l1.95,2.52c.15.19-.06.46-.42.53l-32.66,6.36c-.28.06-.54,0-.59-.21l-.83-2.73a.51.51,0,0,1,.46-.46l31.54-6.14A.56.56,0,0,1,325.94,154.88Z"/><path class="cls-10" d="M322.39,159.23l.85-.16c.17,0,.28-.14.25-.25l-1.1-3.54c0-.11-.2-.16-.37-.13l-.84.16c-.17,0-.28.15-.25.25l1.1,3.55C322.06,159.21,322.23,159.27,322.39,159.23Z"/><path class="cls-9" d="M303.26,171l-6.51-2.42,1,6.19s4.72,1.7,7.13-.48Z"/><polygon class="cls-9" points="290.55 170.25 289 174.31 297.75 174.8 296.75 168.61 290.55 170.25"/><path class="cls-10" d="M297.24,164.13l.85-.16c.16,0,.28-.14.24-.25l-1.1-3.54c0-.11-.19-.16-.36-.13l-.85.16c-.17,0-.28.15-.24.25l1.1,3.55C296.91,164.11,297.07,164.17,297.24,164.13Z"/><path class="cls-10" d="M309.82,161.67l.84-.16c.17,0,.28-.14.25-.25l-1.1-3.54c0-.11-.2-.16-.37-.13l-.84.16c-.17,0-.28.15-.25.25l1.1,3.55A.31.31,0,0,0,309.82,161.67Z"/><path class="cls-10" d="M306.26,106.09c.71-.27,1.6,2.23,1.38,2.55-.51.73-9.85,3.28-10.27,1.85a6.08,6.08,0,0,1,.35-2.28C298,107.73,300.06,108.61,306.26,106.09Z"/><path class="cls-10" d="M304.68,106.15c.36-.83,1.39-2.16,2.29-1.4s1.28,2.4.69,2.67S304.06,107.54,304.68,106.15Z"/><path class="cls-10" d="M306.59,106.58c.62-.66,2-1.57,2.63-.55s.4,2.69-.24,2.74S305.54,107.67,306.59,106.58Z"/><path class="cls-10" d="M306.93,106.43a2.77,2.77,0,0,1,1.39-2.67c1.14-.74,2.25-1.22,2.69-2a5.46,5.46,0,0,1,.11,2.24c-.23,1.07-3.78,1.89-3.54,2.82Z"/><path class="cls-10" d="M306.78,106.38a2.76,2.76,0,0,1-.28-3c.54-1.24,1.22-2.24,1.18-3.12a5.5,5.5,0,0,1,1.31,1.82c.38,1-2.15,3.63-1.44,4.29Z"/><path class="cls-10" d="M376.33,301.73a.11.11,0,0,1-.1-.06c-.23-.32-23.09-32.94-31.47-61.6A420,420,0,0,1,332.18,184c-1.73-10.68-2.78-17.13-6.22-22.42a.13.13,0,0,1,0-.18.14.14,0,0,1,.17,0c3.48,5.34,4.53,11.81,6.26,22.52a420.81,420.81,0,0,0,12.6,56c8.37,28.62,31.21,61.2,31.44,61.53a.14.14,0,0,1,0,.17A.12.12,0,0,1,376.33,301.73Z"/><path class="cls-12" d="M376.33,301.73a.11.11,0,0,1-.1-.06c-.23-.32-23.09-32.94-31.47-61.6A420,420,0,0,1,332.18,184c-1.73-10.68-2.78-17.13-6.22-22.42a.13.13,0,0,1,0-.18.14.14,0,0,1,.17,0c3.48,5.34,4.53,11.81,6.26,22.52a420.81,420.81,0,0,0,12.6,56c8.37,28.62,31.21,61.2,31.44,61.53a.14.14,0,0,1,0,.17A.12.12,0,0,1,376.33,301.73Z"/><polygon class="cls-10" points="334.08 325.8 318.8 327.78 317.8 323.52 333.71 320.15 334.08 325.8"/><polygon class="cls-10" points="380.92 301.26 369.65 307.77 365.85 304.52 378.18 296.18 380.92 301.26"/><path class="cls-9" d="M328,119.8c.54,2.78.85,5.4,1.15,8.11s.41,5.39.49,8.1a80,80,0,0,1-.18,8.19c-.11,1.37-.23,2.74-.42,4.12-.08.68-.17,1.37-.3,2.06l-.37,2.12a13.26,13.26,0,0,1-2.21,4.79,29,29,0,0,1-2.84,3.41,56.81,56.81,0,0,1-6.2,5.5A104,104,0,0,1,303.69,175l-2.14-3.32c2-1.59,4-3.23,6-4.9s3.9-3.36,5.73-5.12a62,62,0,0,0,5.11-5.39,24.76,24.76,0,0,0,2-2.78,7.09,7.09,0,0,0,1-2.33,64.07,64.07,0,0,0,.57-7.32v-3.75c0-1.25,0-2.52-.11-3.78-.12-2.52-.35-5-.62-7.56s-.62-5.09-1-7.46Z"/><path class="cls-10" d="M326.82,111.3c4.27,3.46,3.25,13.74,3.25,13.74l-14.4,4.74s.66-11.85,1.38-16.11C317.89,108.6,322.61,107.89,326.82,111.3Z"/><path class="cls-11" d="M326.82,111.3c4.27,3.46,3.25,13.74,3.25,13.74l-14.4,4.74s.66-11.85,1.38-16.11C317.89,108.6,322.61,107.89,326.82,111.3Z"/></g><g id="freepik--Documents--inject-245"><path class="cls-10" d="M136.59,154.2h0a11,11,0,0,0-10.72-8.53h-80a11,11,0,0,0-11,11h0V334.49a11,11,0,0,0,11,11h254a11,11,0,0,0,11-11V185.12a11,11,0,0,0-11-11H161.62A25.68,25.68,0,0,1,136.59,154.2Z"/><path class="cls-19" d="M136.59,154.2h0a11,11,0,0,0-10.72-8.53h-80a11,11,0,0,0-11,11h0V334.49a11,11,0,0,0,11,11h254a11,11,0,0,0,11-11V185.12a11,11,0,0,0-11-11H161.62A25.68,25.68,0,0,1,136.59,154.2Z"/><path class="cls-20" d="M108.35,98.82l7.13,23.09A11.61,11.61,0,0,0,130,129.57l23.08-7.13Z"/><path class="cls-10" d="M108.35,98.82l-82.5,25.49a11.59,11.59,0,0,0-7.68,14.48v0l47.1,152.48A11.6,11.6,0,0,0,79.79,299h0l105.59-32.62A11.58,11.58,0,0,0,193,251.84h0L153,122.44Z"/><path class="cls-21" d="M108.35,98.82l-82.5,25.49a11.59,11.59,0,0,0-7.68,14.48v0l47.1,152.48A11.6,11.6,0,0,0,79.79,299h0l105.59-32.62A11.58,11.58,0,0,0,193,251.84h0L153,122.44Z"/><g class="cls-22"><path class="cls-10" d="M152.74,259.67,84.1,280.87a5.08,5.08,0,0,1-6.34-3.34h0a5.08,5.08,0,0,1,3.35-6.33L149.75,250a5.08,5.08,0,0,1,6.34,3.35h0A5.08,5.08,0,0,1,152.74,259.67Z"/></g><g class="cls-22"><path class="cls-10" d="M78.87,135.25l-36.3,11.21a5.1,5.1,0,0,1-6.34-3.34h0a5.09,5.09,0,0,1,3.35-6.34l36.3-11.21a5.07,5.07,0,0,1,6.34,3.34h0A5.09,5.09,0,0,1,78.87,135.25Z"/></g><g class="cls-22"><path class="cls-10" d="M108.49,147.14l-60,18.53a5.08,5.08,0,0,1-6.31-3.35h0A5.07,5.07,0,0,1,45.52,156l60-18.53a5.08,5.08,0,0,1,6.34,3.34h0A5.1,5.1,0,0,1,108.49,147.14Z"/></g><g class="cls-22"><path class="cls-10" d="M142,157.83l-87.56,27a5.07,5.07,0,0,1-6.33-3.34h0a5.1,5.1,0,0,1,3.34-6.34l87.56-27a5.08,5.08,0,0,1,6.33,3.34h0A5.08,5.08,0,0,1,142,157.83Z"/></g><g class="cls-22"><path class="cls-10" d="M147.92,177,97,192.76a5.08,5.08,0,0,1-6.33-3.35h0A5.08,5.08,0,0,1,94,183.08l50.9-15.73a5.1,5.1,0,0,1,6.34,3.35h0A5.08,5.08,0,0,1,147.92,177Z"/></g><g class="cls-22"><path class="cls-10" d="M73.68,200l-13.31,4.11A5.08,5.08,0,0,1,54,200.74h0a5.08,5.08,0,0,1,3.35-6.34l13.31-4.11A5.1,5.1,0,0,1,77,193.63h0A5.1,5.1,0,0,1,73.68,200Z"/></g><g class="cls-22"><path class="cls-10" d="M153.86,196.24l-87.56,27A5.08,5.08,0,0,1,60,219.94h0a5.07,5.07,0,0,1,3.34-6.33l87.56-27.05a5.08,5.08,0,0,1,6.33,3.34h0A5.08,5.08,0,0,1,153.86,196.24Z"/></g><g class="cls-22"><path class="cls-10" d="M126,225.88,72.23,242.49a5.08,5.08,0,0,1-6.33-3.34h0a5.1,5.1,0,0,1,3.34-6.34L123,216.2a5.09,5.09,0,0,1,6.34,3.35h0A5.07,5.07,0,0,1,126,225.88Z"/></g><g class="cls-22"><path class="cls-10" d="M159.79,215.45l-14.35,4.43a5.09,5.09,0,0,1-6.34-3.35h0a5.08,5.08,0,0,1,3.35-6.33l14.35-4.43a5.07,5.07,0,0,1,6.33,3.34h0A5.08,5.08,0,0,1,159.79,215.45Z"/></g><g class="cls-22"><path class="cls-10" d="M165.72,234.67l-87.54,27a5.08,5.08,0,0,1-6.34-3.35h0A5.07,5.07,0,0,1,75.19,252l87.55-27.05a5.1,5.1,0,0,1,6.34,3.35h0a5.08,5.08,0,0,1-3.32,6.37Z"/></g><path class="cls-10" d="M167.6,41.48l26.18,58.34a6.32,6.32,0,0,1-3.16,8.32L79.56,158a6.3,6.3,0,0,1-8.32-3.16L45.05,96.49a6.3,6.3,0,0,1,3.16-8.33L159.27,38.31A6.32,6.32,0,0,1,167.6,41.48Z"/><path class="cls-23" d="M167.6,41.48l26.18,58.34a6.32,6.32,0,0,1-3.16,8.32L79.56,158a6.3,6.3,0,0,1-8.32-3.16L45.05,96.49a6.3,6.3,0,0,1,3.16-8.33L159.27,38.31A6.32,6.32,0,0,1,167.6,41.48Z"/><rect class="cls-10" x="146.58" y="39.35" width="3.89" height="1" transform="translate(-3.3 64.28) rotate(-24.16)"/><rect class="cls-10" x="130.18" y="44.85" width="12.13" height="1" transform="translate(-6.63 59.74) rotate(-24.16)"/><rect class="cls-10" x="45.51" y="102.25" width="1" height="7.4" transform="translate(-39.36 28.14) rotate(-24.18)"/><path class="cls-24" d="M163.88,38.1,135.24,94.2a25.65,25.65,0,0,1-29.3,13.15L45,91.46a6.4,6.4,0,0,1,3.22-3.3L159.27,38.31A6.28,6.28,0,0,1,163.88,38.1Z"/><path class="cls-10" d="M203.25,109.9l-86.18,5.32a11.59,11.59,0,0,0-10.89,12.27v0L116,286.79a11.6,11.6,0,0,0,12.28,10.88h0l110.3-6.81a11.57,11.57,0,0,0,10.86-12.26v0l-8.3-135.17Z"/><path class="cls-21" d="M203.25,109.9l-86.18,5.32a11.59,11.59,0,0,0-10.89,12.27v0L116,286.79a11.6,11.6,0,0,0,12.28,10.88h0l110.3-6.81a11.57,11.57,0,0,0,10.86-12.26v0l-8.3-135.17Z"/><g class="cls-25"><path class="cls-10" d="M208.46,276.67l-71.71,4.43a5.08,5.08,0,0,1-5.36-4.75h0a5.09,5.09,0,0,1,4.74-5.37l71.71-4.42a5.07,5.07,0,0,1,5.37,4.74h0A5.08,5.08,0,0,1,208.46,276.67Z"/></g><g class="cls-25"><path class="cls-10" d="M166,138.35l-37.93,2.32a5.09,5.09,0,0,1-5.37-4.74h0a5.09,5.09,0,0,1,4.75-5.37l37.93-2.34a5.06,5.06,0,0,1,5.36,4.74h0A5.07,5.07,0,0,1,166,138.35Z"/></g><g class="cls-25"><path class="cls-10" d="M192,156.89l-62.67,3.86A5.07,5.07,0,0,1,124,156h0a5.08,5.08,0,0,1,4.75-5.37l62.66-3.86a5.07,5.07,0,0,1,5.37,4.74h0A5.07,5.07,0,0,1,192,156.89Z"/></g><g class="cls-25"><path class="cls-10" d="M222,175.18l-91.46,5.64a5.09,5.09,0,0,1-5.39-4.75h0a5.06,5.06,0,0,1,4.74-5.36l91.47-5.65a5.08,5.08,0,0,1,5.36,4.75h0A5.08,5.08,0,0,1,222,175.18Z"/></g><g class="cls-25"><path class="cls-10" d="M223.27,195.24l-53.17,3.28a5.07,5.07,0,0,1-5.37-4.74h0a5.07,5.07,0,0,1,4.74-5.37l53.17-3.28a5.07,5.07,0,0,1,5.37,4.74h0A5.07,5.07,0,0,1,223.27,195.24Z"/></g><g class="cls-25"><path class="cls-10" d="M145.71,200l-13.91.86a5.06,5.06,0,0,1-5.36-4.74h0a5.07,5.07,0,0,1,4.74-5.37l13.91-.86a5.09,5.09,0,0,1,5.37,4.75h0A5.08,5.08,0,0,1,145.71,200Z"/></g><g class="cls-25"><path class="cls-10" d="M224.51,215.3,133,220.94a5.07,5.07,0,0,1-5.37-4.74h0a5.09,5.09,0,0,1,4.75-5.37l91.46-5.64a5.08,5.08,0,0,1,5.37,4.75h0A5.06,5.06,0,0,1,224.51,215.3Z"/></g><g class="cls-25"><path class="cls-10" d="M190.45,237.54,134.28,241a5.09,5.09,0,0,1-5.37-4.75h0a5.08,5.08,0,0,1,4.75-5.36l56.17-3.47a5.08,5.08,0,0,1,5.36,4.75h0A5.06,5.06,0,0,1,190.45,237.54Z"/></g><g class="cls-25"><path class="cls-10" d="M225.74,235.37l-15,.92a5.06,5.06,0,0,1-5.36-4.74h0a5.07,5.07,0,0,1,4.74-5.37l15-.92a5.07,5.07,0,0,1,5.37,4.74h0A5.09,5.09,0,0,1,225.74,235.37Z"/></g><g class="cls-25"><path class="cls-10" d="M227,255.43l-91.46,5.64a5.07,5.07,0,0,1-5.37-4.74h0a5.07,5.07,0,0,1,4.74-5.37l91.47-5.64a5.06,5.06,0,0,1,5.36,4.74h0A5.07,5.07,0,0,1,227,255.43Z"/></g><path class="cls-20" d="M203.25,109.9,204.74,134A11.6,11.6,0,0,0,217,144.89h0l24.15-1.49Z"/><path class="cls-26" d="M175,170.07h0a8.65,8.65,0,0,0-8.76-8.54H85.93a14,14,0,0,0-13.14,11l-31.61,162c-1.18,6.07,2.78,11,8.85,11H304c6.07,0,12-4.92,13.14-11L343.24,201c1.18-6.08-2.78-11-8.85-11H196.18C184.18,190,175.44,181.73,175,170.07Z"/></g></g></g></svg>